SplineFontDB: 3.2
FontName: MNFPath0
FullName: MNF Path0
FamilyName: MNF Path
Weight: 0
Copyright: Copyright 2020 MNF Path project authors (adrien@gallou.email, corentin.brule@gmail.com)\n
Version: 001.001
ItalicAngle: 0
UnderlinePosition: -100
UnderlineWidth: 50
Ascent: 750
Descent: 250
InvalidEm: 0
sfntRevision: 0x00010000
LayerCount: 2
Layer: 0 0 "Back" 1
Layer: 1 0 "Fore" 0
XUID: [1021 220 1612488618 11000196]
StyleMap: 0x0040
FSType: 4
OS2Version: 4
OS2_WeightWidthSlopeOnly: 0
OS2_UseTypoMetrics: 1
CreationTime: 1251911182
ModificationTime: 1601910855
PfmFamily: 81
TTFWeight: 900
TTFWidth: 5
LineGap: 9
VLineGap: 0
Panose: 0 0 0 0 0 0 0 0 0 0
OS2TypoAscent: 750
OS2TypoAOffset: 0
OS2TypoDescent: -250
OS2TypoDOffset: 0
OS2TypoLinegap: 0
OS2WinAscent: 1035
OS2WinAOffset: 0
OS2WinDescent: 342
OS2WinDOffset: 0
HheadAscent: 750
HheadAOffset: 0
HheadDescent: -250
HheadDOffset: 0
OS2SubXSize: 700
OS2SubYSize: 650
OS2SubXOff: 0
OS2SubYOff: 140
OS2SupXSize: 700
OS2SupYSize: 650
OS2SupXOff: 0
OS2SupYOff: 477
OS2StrikeYSize: 50
OS2StrikeYPos: 250
OS2CapHeight: 720
OS2XHeight: 520
OS2Vendor: '    '
OS2CodePages: 00000007.00000000
OS2UnicodeRanges: 8000020f.0000000a.00000000.00000000
Lookup: 4 0 1 "'liga' Standard Ligatures lookup 0" { "'liga' Standard Ligatures lookup 0 subtable"  } ['    ' ('DFLT' <'dflt' > 'cyrl' <'dflt' > 'latn' <'dflt' > ) 'liga' ('DFLT' <'dflt' > 'cyrl' <'dflt' > 'latn' <'dflt' > ) ]
Lookup: 258 0 0 "'kern' Horizontal Kerning in Latin lookup 0" { "'kern' Horizontal Kerning in Latin lookup 0 per glyph data 0"  "'kern' Horizontal Kerning in Latin lookup 0 per glyph data 1"  } ['kern' ('latn' <'dflt' > ) ]
MarkAttachClasses: 1
DEI: 91125

StartChar: .notdef
Encoding: 65536 -1 0
Width: 500
Flags: MW
HStem: 0 50<100 400 100 450> 450 50<100 400 100 100>
VStem: 50 50<50 50 50 450> 400 50<50 450 450 450>
LayerCount: 2
Fore
SplineSet
50 0 m 1
 50 500 l 1
 450 500 l 1
 450 0 l 1
 50 0 l 1
100 50 m 1
 400 50 l 1
 400 450 l 1
 100 450 l 1
 100 50 l 1
EndSplineSet
EndChar

StartChar: uni0000
Encoding: 0 -1 1
AltUni2: 000000.ffffffff.0
Width: 538
GlyphClass: 3
Flags: HMW
HStem: 0 21G<386 476 386 386> 451 69<20 94 20 94 184 386> 700.245 20G
VStem: 94 90<152 451 152 451 520 700> 375.9 109.422 386 90<0 451 451 451>
LayerCount: 2
Fore
SplineSet
425.047851562 645.4296875 m 1
 417.259765625 653.905273438 l 1
 417.263671875 665.951171875 l 1
 424.916992188 674.5703125 l 1
 435.87890625 674.5703125 l 1
 443.741210938 665.927734375 l 1
 443.72265625 653.87109375 l 1
 436.009765625 645.4296875 l 1
 425.047851562 645.4296875 l 1
245.124023438 27.322265625 m 1
 225.40625 21.0634765625 l 1
 150.7734375 54.646484375 l 1
 136 152 l 1
 136 451 l 1
 136.619140625 483.674804688 l 1
 56.5458984375 485.5 l 1
 136.619140625 487.326171875 l 1
 136.619140625 487.326171875 l 1
 139 663.983398438 l 1
 141.379882812 487.326171875 l 1
 141.379882812 487.326171875 l 1
 433.380859375 487.325195312 l 1
 431 35.751953125 l 1
 428.619140625 483.674804688 l 1
 141.379882812 483.674804688 l 1
 142 451 l 1
 142 152 l 1
 155.508789062 58.3310546875 l 1
 226.713867188 26.9189453125 l 1
 245.124023438 27.322265625 l 1
EndSplineSet
Ligature2: "'liga' Standard Ligatures lookup 0 subtable" t i
EndChar

StartChar: exclam
Encoding: 33 33 3
Width: 239
GlyphClass: 2
Flags: HMW
HStem: 0 100 700 20G
VStem: 81 77
LayerCount: 2
Fore
SplineSet
108.294921875 18.9716796875 m 1
 92.154296875 37.1484375 l 1
 92.14453125 62.5478515625 l 1
 108.5703125 80.4208984375 l 1
 131.684570312 80.4208984375 l 1
 147.94921875 62.623046875 l 1
 147.990234375 37.197265625 l 1
 131.41015625 18.9716796875 l 1
 108.294921875 18.9716796875 l 1
118.890625 209.530273438 m 1
 95.3671875 706.770507812 l 1
 143.115234375 706.770507812 l 1
 118.890625 209.530273438 l 1
EndSplineSet
EndChar

StartChar: quotedbl
Encoding: 34 34 4
Width: 399
GlyphClass: 2
Flags: HMW
HStem: 482 238
LayerCount: 2
Fore
SplineSet
94.08984375 686.73828125 m 1
 141.837890625 686.73828125 l 1
 118.41015625 515.901367188 l 1
 94.08984375 686.73828125 l 1
257.2890625 686.73828125 m 1
 305.037109375 686.73828125 l 1
 281.609375 515.901367188 l 1
 257.2890625 686.73828125 l 1
EndSplineSet
EndChar

StartChar: numbersign
Encoding: 35 35 5
Width: 556
GlyphClass: 2
Flags: HMW
HStem: 0 21G 205 75<0 98 0 120 209 278 0 188 389 492> 445 75<64 167 64 189 278 347 64 257 458 556> 700 20G
LayerCount: 2
Fore
SplineSet
95.3203125 37.921875 m 1
 151.32421875 241.030273438 l 1
 151.32421875 241.030273438 l 1
 35.955078125 242.5 l 1
 151.794921875 244.931640625 l 1
 151.794921875 244.931640625 l 1
 220.32421875 481.030273438 l 1
 220.32421875 481.030273438 l 1
 100.016601562 482.5 l 1
 220.794921875 484.931640625 l 1
 220.794921875 484.931640625 l 1
 280.493164062 681.681640625 l 1
 225.295898438 484.388671875 l 1
 225.295898438 484.388671875 l 1
 400.46875 484.708007812 l 1
 400.46875 484.708007812 l 1
 460.420898438 681.682617188 l 1
 404.986328125 484.1796875 l 1
 404.986328125 484.1796875 l 1
 520.512695312 482.5 l 1
 404.53125 480.291992188 l 1
 404.53125 480.291992188 l 1
 336.295898438 244.388671875 l 1
 336.295898438 244.388671875 l 1
 455.858398438 242.5 l 1
 335.825195312 240.487304688 l 1
 335.825195312 240.487304688 l 1
 275.93359375 38.642578125 l 1
 331.32421875 241.030273438 l 1
 331.32421875 241.030273438 l 1
 155.825195312 240.487304688 l 1
 155.825195312 240.487304688 l 1
 95.3203125 37.921875 l 1
EndSplineSet
EndChar

StartChar: dollar
Encoding: 36 36 6
Width: 556
GlyphClass: 2
Flags: HMW
HStem: -100 21G 800 20G<235.946 310.905 310.905 310.905>
VStem: 40 94 67 92 236 75 418 97
LayerCount: 2
Fore
SplineSet
431.963867188 555.233398438 m 1
 405.48046875 638.126953125 l 1
 287.399414062 705.73828125 l 1
 273.508789062 650.986328125 l 1
 273.508789062 423.522460938 l 1
 272.935546875 381.890625 l 1
 430.077148438 302.026367188 l 1
 470.044921875 193.209960938 l 1
 425.522460938 69.3662109375 l 1
 280.880859375 12.1904296875 l 1
 276.591796875 -13.5615234375 l 1
 273.591796875 -64.07421875 l 1
 270.592773438 -13.521484375 l 1
 276.3671875 8.0732421875 l 1
 123.38671875 86.2568359375 l 1
 99.6787109375 180.692382812 l 1
 128.04296875 90.0419921875 l 1
 257.298828125 24.13671875 l 1
 273.591796875 66.486328125 l 1
 273.591796875 330.510742188 l 1
 268.338867188 369.493164062 l 1
 134.166015625 451.690429688 l 1
 109.439453125 537.487304688 l 1
 146.380859375 649.168945312 l 1
 236.029296875 691.509765625 l 1
 269.384765625 708.4375 l 1
 273.424804688 783.983398438 l 1
 275.384765625 708.4375 l 1
 310.982421875 694.509765625 l 1
 409.749023438 642.34375 l 1
 431.963867188 555.233398438 l 1
EndSplineSet
EndChar

StartChar: percent
Encoding: 37 37 7
Width: 1000
GlyphClass: 2
Flags: HMW
HStem: -8 21G<357 357> 705 20G<310.001 310.001>
LayerCount: 2
Fore
SplineSet
310 687.587890625 m 1
 386.428710938 655.134765625 l 1
 417.518554688 560.055664062 l 1
 386.428710938 464.975585938 l 1
 310 432.525390625 l 1
 233.553710938 464.975585938 l 1
 202.48046875 560.055664062 l 1
 234.337890625 655.134765625 l 1
 310 687.587890625 l 1
680.44140625 677.927734375 m 1
 514.826171875 362.857421875 l 1
 344.014648438 50.7958984375 l 1
 509.561523438 365.73828125 l 1
 680.44140625 677.927734375 l 1
710.061523438 287.56640625 m 1
 786.4921875 255.11328125 l 1
 817.583984375 160.03515625 l 1
 786.4921875 64.955078125 l 1
 710.061523438 32.50390625 l 1
 633.619140625 64.955078125 l 1
 602.54296875 160.03515625 l 1
 634.400390625 255.11328125 l 1
 710.061523438 287.56640625 l 1
EndSplineSet
EndChar

StartChar: ampersand
Encoding: 38 38 8
Width: 633
GlyphClass: 2
Flags: HMW
HStem: -15 80 0 21G 655 80
VStem: 40 95 81 91 373 91 455 89
LayerCount: 2
Fore
SplineSet
510.453125 47.5 m 1
 466.135742188 91.9951171875 l 1
 439.76171875 110.3515625 l 1
 344.68359375 35.7490234375 l 1
 253.67578125 18.1826171875 l 1
 128.048828125 61.263671875 l 1
 83.494140625 170.20703125 l 1
 114.668945312 261.791992188 l 1
 230.505859375 352.541015625 l 1
 230.505859375 352.541015625 l 1
 153.047851562 445.250976562 l 1
 123.168945312 553.693359375 l 1
 165.587890625 661.129882812 l 1
 275.747070312 701.591796875 l 1
 389.25 655.900390625 l 1
 421.009765625 563.8984375 l 1
 386.650390625 467.001953125 l 1
 236.4921875 352.25390625 l 1
 236.4921875 352.25390625 l 1
 422.858398438 143.065429688 l 1
 454.271484375 148.78515625 l 1
 493.163085938 251.48828125 l 1
 498.201171875 308.806640625 l 1
 498.627929688 249.01171875 l 1
 465.057617188 162.706054688 l 1
 450.670898438 120.737304688 l 1
 510.453125 47.5 l 1
EndSplineSet
EndChar

StartChar: quotesingle
Encoding: 39 39 9
Width: 239
GlyphClass: 2
Flags: HMW
HStem: 482 21G 700 20G
LayerCount: 2
Fore
SplineSet
103.370117188 519.18359375 m 1
 124.409179688 540.50390625 l 1
 142.415039062 620.444335938 l 1
 119.921875 645.938476562 l 1
 108.784179688 645.938476562 l 1
 93.8544921875 660.873046875 l 1
 93.8544921875 681.99609375 l 1
 108.787109375 696.926757812 l 1
 129.911132812 696.926757812 l 1
 144.840820312 681.994140625 l 1
 148.415039062 620.444335938 l 1
 129.948242188 538.198242188 l 1
 103.370117188 519.18359375 l 1
EndSplineSet
EndChar

StartChar: parenleft
Encoding: 40 40 10
Width: 311
GlyphClass: 2
Flags: HMW
HStem: -100 21G 800 20G
VStem: 50 95
LayerCount: 2
Fore
SplineSet
232.030273438 783.506835938 m 1
 138.396484375 608.97265625 l 1
 94.208984375 359.984375 l 1
 138.396484375 111.04296875 l 1
 232.040039062 -63.53515625 l 1
 132.408203125 110.659179688 l 1
 88.208984375 359.984375 l 1
 132.408203125 609.359375 l 1
 232.030273438 783.506835938 l 1
EndSplineSet
EndChar

StartChar: parenright
Encoding: 41 41 11
Width: 311
GlyphClass: 2
Flags: HMW
HStem: -100 21G 800 20G
VStem: 166 95
LayerCount: 2
Fore
SplineSet
74.0361328125 783.509765625 m 1
 173.659179688 609.361328125 l 1
 217.858398438 359.987304688 l 1
 173.659179688 110.662109375 l 1
 74.0263671875 -63.5322265625 l 1
 167.670898438 111.045898438 l 1
 211.858398438 359.987304688 l 1
 167.670898438 608.975585938 l 1
 74.0361328125 783.509765625 l 1
EndSplineSet
EndChar

StartChar: asterisk
Encoding: 42 42 12
Width: 417
GlyphClass: 2
Flags: HMW
HStem: 423 21G 715 20G
LayerCount: 2
Fore
SplineSet
209.010742188 702.5390625 m 1
 208.5 579 l 1
 208.5 579 l 1
 327.612304688 613.59765625 l 1
 208.5 579 l 1
 208.5 579 l 1
 281.565429688 473.823242188 l 1
 208.5 579 l 1
 208.5 579 l 1
 132.459960938 474.203125 l 1
 208.5 579 l 1
 208.5 579 l 1
 88.353515625 615.46875 l 1
 208.5 579 l 1
 208.5 579 l 1
 209.010742188 702.5390625 l 1
EndSplineSet
EndChar

StartChar: plus
Encoding: 43 43 13
Width: 556
GlyphClass: 2
Flags: HMW
HStem: 114 21G 325 75 590 20G
VStem: 240 75
LayerCount: 2
Fore
SplineSet
277.490234375 144.791992188 m 1
 275.369140625 360.388671875 l 1
 275.369140625 360.388671875 l 1
 81.45703125 362.509765625 l 1
 275.369140625 364.630859375 l 1
 275.369140625 364.630859375 l 1
 277.490234375 579.208007812 l 1
 279.611328125 364.630859375 l 1
 279.611328125 364.630859375 l 1
 474.541992188 362.509765625 l 1
 279.611328125 360.388671875 l 1
 279.611328125 360.388671875 l 1
 277.490234375 144.791992188 l 1
EndSplineSet
EndChar

StartChar: comma
Encoding: 44 44 14
Width: 246
GlyphClass: 2
Flags: HMW
HStem: -142 21G<96 96> 0 21G 80 20G
VStem: 76 100 127 49
LayerCount: 2
Fore
SplineSet
109.989257812 -100.814453125 m 1
 131.028320312 -79.494140625 l 1
 149.034179688 0.4462890625 l 1
 126.541015625 25.94140625 l 1
 115.403320312 25.94140625 l 1
 100.47265625 40.875 l 1
 100.47265625 61.998046875 l 1
 115.40625 76.9287109375 l 1
 136.530273438 76.9287109375 l 1
 151.459960938 61.99609375 l 1
 155.034179688 0.4462890625 l 1
 136.567382812 -81.798828125 l 1
 109.989257812 -100.814453125 l 1
EndSplineSet
EndChar

StartChar: hyphen
Encoding: 45 45 15
Width: 370
GlyphClass: 2
Flags: HMW
HStem: 217 86
LayerCount: 2
Fore
SplineSet
83.2548828125 268.032226562 m 1
 286.745117188 268.032226562 l 1
 286.745117188 251.96875 l 1
 83.2548828125 251.96875 l 1
 83.2548828125 268.032226562 l 1
EndSplineSet
EndChar

StartChar: period
Encoding: 46 46 16
Width: 239
GlyphClass: 2
Flags: HMW
HStem: 0 100
VStem: 70 91
LayerCount: 2
Fore
SplineSet
143.709960938 37.0751953125 m 1
 127.446289062 19.275390625 l 1
 104.330078125 19.275390625 l 1
 87.904296875 37.1484375 l 1
 87.9150390625 62.5498046875 l 1
 104.0546875 80.724609375 l 1
 127.169921875 80.724609375 l 1
 143.75 62.5 l 1
 143.709960938 37.0751953125 l 1
EndSplineSet
EndChar

StartChar: slash
Encoding: 47 47 17
Width: 336
GlyphClass: 2
Flags: HMW
HStem: -100 21G<89 89> 800 20G<246 246>
LayerCount: 2
Fore
SplineSet
56.7705078125 -53.8515625 m 1
 164.609375 360.80078125 l 1
 278.200195312 773.7421875 l 1
 170.390625 359.19921875 l 1
 56.7705078125 -53.8515625 l 1
EndSplineSet
EndChar

StartChar: zero
Encoding: 48 48 18
Width: 556
GlyphClass: 2
Flags: HMW
HStem: -15 75 660 75
VStem: 45 90 421 90
LayerCount: 2
Fore
SplineSet
278.08984375 707.25 m 1
 425.66796875 634.399414062 l 1
 432.8359375 595.900390625 l 1
 472.79296875 359.97265625 l 1
 429.404296875 112.486328125 l 1
 278.01171875 12.736328125 l 1
 127.647460938 102.174804688 l 1
 122.396484375 124.5546875 l 1
 83.30859375 359.970703125 l 1
 126.744140625 607.4765625 l 1
 278.08984375 707.25 l 1
278.095703125 701.25 m 1
 131.35546875 603.638671875 l 1
 89.30859375 359.970703125 l 1
 125.890625 129.431640625 l 1
 176.173828125 128.5078125 l 1
 375.66796875 597.21875 l 1
 422.66796875 629.204101562 l 1
 278.095703125 701.25 l 1
378.595703125 591.982421875 m 1
 179.126953125 123.283203125 l 1
 130.647460938 107.372070312 l 1
 278.00390625 18.736328125 l 1
 424.794921875 116.326171875 l 1
 466.79296875 359.97265625 l 1
 429.23828125 591.09765625 l 1
 378.595703125 591.982421875 l 1
EndSplineSet
EndChar

StartChar: one
Encoding: 49 49 19
Width: 512
GlyphClass: 2
Flags: HMW
HStem: 0 21G 700 20G<253.857 327.983 327.983 327.983>
VStem: 233 95
LayerCount: 2
Fore
SplineSet
280.4140625 35.8740234375 m 1
 277.4140625 554.905273438 l 1
 290.573242188 678.100585938 l 1
 180.606445312 537.810546875 l 1
 116.784179688 511.041015625 l 1
 181.8046875 543.690429688 l 1
 251.844726562 630.548828125 l 1
 290.919921875 684.081054688 l 1
 283.4140625 554.905273438 l 1
 280.4140625 35.8740234375 l 1
EndSplineSet
EndChar

StartChar: two
Encoding: 50 50 20
Width: 556
GlyphClass: 2
Flags: HMW
HStem: 0 85 655 80
VStem: 50 90 405 90
LayerCount: 2
Fore
SplineSet
107.86328125 553.888671875 m 1
 141.131835938 650.728515625 l 1
 276.329101562 704.568359375 l 1
 408.44140625 655.6484375 l 1
 456.708007812 524.002929688 l 1
 407.168945312 395.25 l 1
 280.323242188 276.993164062 l 1
 155.118164062 176.865234375 l 1
 97.837890625 80.4462890625 l 1
 97.634765625 44.900390625 l 1
 459.6796875 42.4775390625 l 1
 92.9892578125 41.15234375 l 1
 91.8662109375 79.8642578125 l 1
 149.170898438 177.422851562 l 1
 276.081054688 281.236328125 l 1
 402.328125 398.793945312 l 1
 450.708984375 524.141601562 l 1
 404.126953125 651.478515625 l 1
 276.178710938 698.5703125 l 1
 145.248046875 646.364257812 l 1
 107.86328125 553.888671875 l 1
EndSplineSet
EndChar

StartChar: three
Encoding: 51 51 21
Width: 556
GlyphClass: 2
Flags: HMW
HStem: -15 80 356 75 658 77
VStem: 40 94 230 249 384 95 414 92
LayerCount: 2
Fore
SplineSet
118.072265625 576.934570312 m 1
 147.014648438 657.741210938 l 1
 270.880859375 706.249023438 l 1
 390.994140625 666.251953125 l 1
 437.680664062 552.860351562 l 1
 414.022460938 457.076171875 l 1
 325.313476562 415.19921875 l 1
 327.977539062 385.73046875 l 1
 433.404296875 327.583007812 l 1
 466.638671875 205.319335938 l 1
 414.150390625 69.45703125 l 1
 271.856445312 15.2666015625 l 1
 134.109375 64.64453125 l 1
 101.508789062 148.603515625 l 1
 138.360351562 68.87890625 l 1
 271.856445312 21.2666015625 l 1
 409.754882812 73.5419921875 l 1
 460.642578125 205.514648438 l 1
 418.50390625 332.919921875 l 1
 282.759765625 387.869140625 l 1
 264.744140625 394.626953125 l 1
 280.67578125 399.572265625 l 1
 384.490234375 443.98046875 l 1
 431.681640625 552.739257812 l 1
 386.633789062 662.130859375 l 1
 271.043945312 700.250976562 l 1
 151.010742188 653.265625 l 1
 118.072265625 576.934570312 l 1
EndSplineSet
EndChar

StartChar: four
Encoding: 52 52 22
Width: 556
GlyphClass: 2
Flags: HMW
HStem: 0 21G<329 424 329 329> 171 85<121 329 30 30 424 521> 700 20G<345 424 424 424>
VStem: 329 95<0 171 256 565 565 565>
LayerCount: 2
Fore
SplineSet
376.5 35.955078125 m 1
 373.5 171 l 1
 373.5 213.5 l 1
 73.3076171875 211.452148438 l 1
 72.5 256 l 1
 337.307617188 645.484375 l 1
 378.057617188 683.9921875 l 1
 379.5 256 l 1
 379.5 213.5 l 1
 485.044921875 213.5 l 1
 379.5 213.5 l 1
 379.5 171 l 1
 376.5 35.955078125 l 1
EndSplineSet
EndChar

StartChar: five
Encoding: 53 53 23
Width: 556
GlyphClass: 2
Flags: HMW
HStem: -15 80 395 80 635 85
VStem: 412 97
LayerCount: 2
Fore
SplineSet
439.052734375 677.474609375 m 1
 155.944335938 675.158203125 l 1
 102.048828125 386.1328125 l 1
 140.775390625 381.943359375 l 1
 213.662109375 431.369140625 l 1
 275.8046875 439.512695312 l 1
 416.40625 379.8203125 l 1
 467.083007812 232.665039062 l 1
 414.205078125 79.484375 l 1
 263.704101562 15.466796875 l 1
 133.365234375 62.1669921875 l 1
 99.28515625 141.54296875 l 1
 137.616210938 66.400390625 l 1
 263.709960938 21.466796875 l 1
 409.552734375 83.2724609375 l 1
 461.083007812 232.66015625 l 1
 411.517578125 376.338867188 l 1
 274.084960938 433.764648438 l 1
 174.29296875 401.338867188 l 1
 119.765625 365.194335938 l 1
 91.640625 369.336914062 l 1
 152.131835938 679.791015625 l 1
 439.052734375 677.474609375 l 1
EndSplineSet
EndChar

StartChar: six
Encoding: 54 54 24
Width: 556
GlyphClass: 2
Flags: HMW
HStem: -15 80 387 80 655 80
VStem: 35 86 35 100 409 97
LayerCount: 2
Fore
SplineSet
424.260742188 601.114257812 m 1
 391.888671875 661.2109375 l 1
 286.00390625 698.765625 l 1
 125.555664062 596.7421875 l 1
 76.921875 353.017578125 l 1
 97.0048828125 229.108398438 l 1
 165.88671875 379.846679688 l 1
 279.568359375 428.45703125 l 1
 415.403320312 368.412109375 l 1
 461.232421875 226.465820312 l 1
 414.720703125 80.3466796875 l 1
 276.0390625 18.392578125 l 1
 124.513671875 97.8369140625 l 1
 71.3447265625 350.805664062 l 1
 121.909179688 601.505859375 l 1
 285.635742188 704.754882812 l 1
 396.2734375 665.307617188 l 1
 424.260742188 601.114257812 l 1
EndSplineSet
EndChar

StartChar: seven
Encoding: 55 55 25
Width: 556
GlyphClass: 2
Flags: HMW
HStem: 0 21G 635 85
VStem: 150 96
LayerCount: 2
Fore
SplineSet
85.9189453125 677.826171875 m 1
 443.37109375 679.477539062 l 1
 444.466796875 635.4765625 l 1
 272.819335938 337.165039062 l 1
 205.451171875 36.783203125 l 1
 266.823242188 336.95703125 l 1
 438.466796875 635.473632812 l 1
 438.819335938 675.612304688 l 1
 85.9189453125 677.826171875 l 1
EndSplineSet
EndChar

StartChar: eight
Encoding: 56 56 26
Width: 556
GlyphClass: 2
Flags: HMW
HStem: -15 80 356 75 665 70
VStem: 45 92 73 88 394 88 419 63 419 92
LayerCount: 2
Fore
SplineSet
277.115234375 706.779296875 m 1
 395.732421875 664.020507812 l 1
 441.34375 552.755859375 l 1
 418.90625 497.453125 l 1
 391.303710938 439.677734375 l 1
 277.115234375 394.182617188 l 1
 327.633789062 377.852539062 l 1
 415.032226562 338.399414062 l 1
 468.857421875 201.88671875 l 1
 417.168945312 69.7548828125 l 1
 277.073242188 18.3095703125 l 1
 137.974609375 69.7392578125 l 1
 87.28515625 201.88671875 l 1
 141.909179688 338.399414062 l 1
 227.107421875 377.852539062 l 1
 277.115234375 394.182617188 l 1
 165.309570312 438.553710938 l 1
 136.432617188 496.704101562 l 1
 113.907226562 552.755859375 l 1
 159.008789062 664.00390625 l 1
 277.115234375 706.779296875 l 1
EndSplineSet
EndChar

StartChar: nine
Encoding: 57 57 27
Width: 556
GlyphClass: 2
Flags: HMW
HStem: -15 80 263 80 655 80
VStem: 35 92 406 100 420 86
LayerCount: 2
Fore
SplineSet
118.118164062 119.9765625 m 1
 153.536132812 58.8798828125 l 1
 263.796875 21.3505859375 l 1
 419.862304688 124.435546875 l 1
 464.052734375 369.25390625 l 1
 448.297851562 501.7265625 l 1
 401.767578125 357.904296875 l 1
 268.102539062 304.815429688 l 1
 124.19921875 360.333007812 l 1
 77.236328125 500.749023438 l 1
 126.203125 643.293945312 l 1
 271.451171875 700.552734375 l 1
 415.99609375 623.508789062 l 1
 448.297851562 501.7265625 l 1
 469.71875 371.228515625 l 1
 423.387695312 119.58203125 l 1
 263.953125 15.3525390625 l 1
 149.112304688 54.8271484375 l 1
 118.118164062 119.9765625 l 1
EndSplineSet
EndChar

StartChar: colon
Encoding: 58 58 28
Width: 239
GlyphClass: 2
Flags: HMW
HStem: 82 100 342 100
VStem: 70 91
LayerCount: 2
Fore
SplineSet
87.904296875 116.698242188 m 1
 87.9150390625 142.099609375 l 1
 104.0546875 160.275390625 l 1
 127.169921875 160.274414062 l 1
 143.75 142.049804688 l 1
 143.709960938 116.625 l 1
 127.446289062 98.8251953125 l 1
 104.330078125 98.8251953125 l 1
 87.904296875 116.698242188 l 1
104.330078125 363.826171875 m 1
 87.904296875 381.698242188 l 1
 87.9150390625 407.099609375 l 1
 104.0546875 425.275390625 l 1
 127.169921875 425.275390625 l 1
 143.75 407.049804688 l 1
 143.709960938 381.625 l 1
 127.446289062 363.825195312 l 1
 104.330078125 363.826171875 l 1
EndSplineSet
EndChar

StartChar: semicolon
Encoding: 59 59 29
Width: 231
GlyphClass: 2
Flags: HMW
HStem: -142 21G 0 21G 100 242
VStem: 70 100 121 49
LayerCount: 2
Fore
SplineSet
104.0546875 425.275390625 m 1
 127.169921875 425.275390625 l 1
 143.75 407.05078125 l 1
 143.7109375 381.625 l 1
 127.4453125 363.82421875 l 1
 104.330078125 363.826171875 l 1
 87.904296875 381.697265625 l 1
 87.916015625 407.099609375 l 1
 104.0546875 425.275390625 l 1
108.78515625 75.509765625 m 1
 129.91015625 75.509765625 l 1
 144.83984375 60.576171875 l 1
 148.4140625 -0.97265625 l 1
 129.947265625 -83.21875 l 1
 103.369140625 -102.232421875 l 1
 124.408203125 -80.912109375 l 1
 142.4140625 -0.97265625 l 1
 119.921875 24.521484375 l 1
 108.783203125 24.521484375 l 1
 93.853515625 39.455078125 l 1
 93.853515625 60.578125 l 1
 108.78515625 75.509765625 l 1
EndSplineSet
EndChar

StartChar: less
Encoding: 60 60 30
Width: 556
GlyphClass: 2
Flags: HMW
HStem: 72 21G 607 20G
LayerCount: 2
Fore
SplineSet
422.295898438 549.837890625 m 1
 132.061523438 374 l 1
 131.990234375 327.666992188 l 1
 422.637695312 150.129882812 l 1
 126.94921875 324.413085938 l 1
 126.876953125 377.018554688 l 1
 422.295898438 549.837890625 l 1
EndSplineSet
EndChar

StartChar: equal
Encoding: 61 61 31
Width: 556
GlyphClass: 2
Flags: HMW
HStem: 245 75 405 75
LayerCount: 2
Fore
SplineSet
82.14453125 444.099609375 m 1
 278 447.099609375 l 1
 473.856445312 444.099609375 l 1
 278 441.099609375 l 1
 82.14453125 444.099609375 l 1
82.14453125 280.900390625 m 1
 278 283.900390625 l 1
 473.856445312 280.900390625 l 1
 278 277.900390625 l 1
 82.14453125 280.900390625 l 1
EndSplineSet
EndChar

StartChar: greater
Encoding: 62 62 32
Width: 556
GlyphClass: 2
Flags: HMW
HStem: 72 21G 607 20G
LayerCount: 2
Fore
SplineSet
143.68359375 549.837890625 m 1
 439.102539062 377.01953125 l 1
 439.030273438 324.413085938 l 1
 143.340820312 150.130859375 l 1
 433.990234375 327.666992188 l 1
 433.91796875 374 l 1
 143.68359375 549.837890625 l 1
EndSplineSet
EndChar

StartChar: question
Encoding: 63 63 33
Width: 561
GlyphClass: 2
Flags: HMW
HStem: 0 100 655 80
VStem: 227 95 403 95
LayerCount: 2
Fore
SplineSet
268.1328125 704.572265625 m 1
 403.564453125 660.7265625 l 1
 456.818359375 533.4921875 l 1
 423.130859375 430.908203125 l 1
 348.87109375 358.361328125 l 1
 289.271484375 289.01171875 l 1
 269.2265625 208.309570312 l 1
 283.787109375 291.447265625 l 1
 344.62890625 362.60546875 l 1
 417.51171875 433.009765625 l 1
 450.830078125 533.115234375 l 1
 398.763671875 657.130859375 l 1
 268.1953125 698.572265625 l 1
 148.298828125 653.56640625 l 1
 108.099609375 567.48046875 l 1
 143.94140625 657.69140625 l 1
 268.1328125 704.572265625 l 1
284.62890625 79.376953125 m 1
 302.533203125 61.50390625 l 1
 302.65625 36.1015625 l 1
 284.9296875 18.052734375 l 1
 259.732421875 17.927734375 l 1
 241.828125 35.80078125 l 1
 241.705078125 61.201171875 l 1
 259.43359375 79.251953125 l 1
 284.62890625 79.376953125 l 1
EndSplineSet
EndChar

StartChar: at
Encoding: 64 64 34
Width: 745
GlyphClass: 2
Flags: HMW
HStem: -110 75 54 71 395 71 555 75
VStem: 32.9678 85 193.968 78 460.968 71 622.968 85
LayerCount: 2
Fore
SplineSet
230.376953125 259.99609375 m 1
 265.869140625 387.111328125 l 1
 363.010742188 433.920898438 l 1
 464.760742188 386.077148438 l 1
 492.305664062 279.845703125 l 1
 501 402.000976562 l 1
 504 418.984375 l 1
 507 402.000976562 l 1
 511.84375 141.375 l 1
 545.079101562 99.0185546875 l 1
 573.595703125 89.072265625 l 1
 647.524414062 149.862304688 l 1
 668.44140625 280.40625 l 1
 589.365234375 509.313476562 l 1
 371.09765625 596.129882812 l 1
 153.884765625 499.1953125 l 1
 72.7197265625 259.955078125 l 1
 153.1796875 20.7822265625 l 1
 381.217773438 -76.2197265625 l 1
 476.4609375 -61.4765625 l 1
 518.365234375 -40.9365234375 l 1
 479.119140625 -66.8564453125 l 1
 381.205078125 -82.2197265625 l 1
 148.618164062 16.884765625 l 1
 66.7197265625 259.955078125 l 1
 149.211914062 502.958007812 l 1
 371.084960938 602.129882812 l 1
 593.913085938 513.225585938 l 1
 674.44140625 280.412109375 l 1
 653.046875 148.23828125 l 1
 573.673828125 83.072265625 l 1
 540.45703125 95.1943359375 l 1
 506.184570312 139.987304688 l 1
 492.875 240.478515625 l 1
 466.73046875 130.944335938 l 1
 363.010742188 86.072265625 l 1
 265.869140625 132.69140625 l 1
 230.376953125 259.99609375 l 1
EndSplineSet
EndChar

StartChar: A
Encoding: 65 65 35
Width: 675
GlyphClass: 2
Flags: HMW
HStem: 0 21G 175 85<205 466 205 497 173 466> 700 20G<290 387 387 387>
LayerCount: 2
Fore
SplineSet
74.345703125 41.513671875 m 1
 314 683.8515625 l 1
 362.5 683.8515625 l 1
 597.612304688 41.908203125 l 1
 532.483398438 218.4453125 l 1
 481.5 217.5 l 1
 189 217.5 l 1
 140.392578125 218.4453125 l 1
 74.345703125 41.513671875 l 1
EndSplineSet
EndChar

StartChar: B
Encoding: 66 66 36
Width: 674
GlyphClass: 2
Flags: HMW
HStem: 0 85 325 85 635 85
VStem: 79.7402 95 492.74 98 522.74 101
LayerCount: 2
Fore
SplineSet
126.494140625 42.1357421875 m 1
 126.409179688 677.368164062 l 1
 331.046875 677.368164062 l 1
 485.766601562 650.325195312 l 1
 548.728515625 530.35546875 l 1
 471.9921875 403.806640625 l 1
 346.737304688 368.817382812 l 1
 132.451171875 367.69921875 l 1
 346.737304688 368.817382812 l 1
 492.939453125 333.84765625 l 1
 581.046875 204.958007812 l 1
 518.509765625 72.7412109375 l 1
 356.178710938 42.1357421875 l 1
 126.494140625 42.1357421875 l 1
EndSplineSet
EndChar

StartChar: C
Encoding: 67 67 37
Width: 734
GlyphClass: 2
Flags: HMW
HStem: -15 80 655 80
VStem: 50 100
LayerCount: 2
Fore
SplineSet
616.15625 541.073242188 m 1
 554.153320312 643.541992188 l 1
 383.485351562 698.71875 l 1
 170.797851562 600.637695312 l 1
 97.7861328125 359.993164062 l 1
 168.825195312 119.405273438 l 1
 383.485351562 21.265625 l 1
 550.38671875 76.3720703125 l 1
 614.383789062 176.838867188 l 1
 554.823242188 72.33203125 l 1
 383.485351562 15.265625 l 1
 164.044921875 115.778320312 l 1
 91.7861328125 359.990234375 l 1
 165.9296875 604.14453125 l 1
 383.485351562 704.71875 l 1
 558.327148438 647.852539062 l 1
 616.15625 541.073242188 l 1
EndSplineSet
EndChar

StartChar: D
Encoding: 68 68 38
Width: 709
GlyphClass: 2
Flags: HMW
HStem: 0 84<175 309 175 319> 635 85<175 306 175 175>
VStem: 83.75 95 564.75 98
LayerCount: 2
Fore
SplineSet
127.5 42 m 1
 127.5 677.5 l 1
 306 677.5 l 1
 536.643554688 606.575195312 l 1
 618.657226562 362.552734375 l 1
 543.680664062 120.294921875 l 1
 314 42 l 1
 127.5 42 l 1
EndSplineSet
EndChar

StartChar: E
Encoding: 69 69 39
Width: 657
GlyphClass: 2
Flags: HMW
HStem: 0 85<175 587 175 587> 325 85<175 527 175 527> 635 85<175 577 175 175>
VStem: 80 95<85 325 410 635>
LayerCount: 2
Fore
SplineSet
541.248046875 677.5 m 1
 129.736328125 675.5 l 1
 130.5 410 l 1
 131.1796875 370.5 l 1
 491.248046875 367.5 l 1
 131.1796875 364.5 l 1
 130.5 325 l 1
 129.736328125 44.5 l 1
 551.248046875 42.5 l 1
 125.263671875 40.5 l 1
 125.263671875 679.5 l 1
 541.248046875 677.5 l 1
EndSplineSet
EndChar

StartChar: F
Encoding: 70 70 40
Width: 611
GlyphClass: 2
Flags: HMW
HStem: 0 21G<80 175 80 80> 325 85<175 511 175 511> 635 85<175 561 175 175>
VStem: 80 95<0 325 410 635>
LayerCount: 2
Fore
SplineSet
127.5 35.888671875 m 1
 125.263671875 679.5 l 1
 525.126953125 677.5 l 1
 129.736328125 675.5 l 1
 132.151367188 410 l 1
 130.510742188 370.5 l 1
 475.111328125 367.5 l 1
 130.510742188 364.5 l 1
 132.430664062 325 l 1
 127.5 35.888671875 l 1
EndSplineSet
EndChar

StartChar: G
Encoding: 71 71 41
Width: 760
GlyphClass: 2
Flags: HMW
HStem: -15 80 281 84 655 80
VStem: 50 100 608 92
LayerCount: 2
Fore
SplineSet
431.099609375 323.232421875 m 1
 655.76953125 325.251953125 l 1
 656.728515625 129.5078125 l 1
 404.930664062 15.3115234375 l 1
 174.29296875 116.44140625 l 1
 91.4453125 359.991210938 l 1
 170.189453125 604.162109375 l 1
 392.361328125 704.71875 l 1
 560.786132812 657.465820312 l 1
 620.530273438 555.58984375 l 1
 556.147460938 653.661132812 l 1
 392.2109375 698.720703125 l 1
 175.611328125 602.391601562 l 1
 97.4443359375 359.993164062 l 1
 179.670898438 118.26953125 l 1
 405.15625 21.3076171875 l 1
 651.037109375 130.83203125 l 1
 651.334960938 321.2109375 l 1
 431.099609375 323.232421875 l 1
EndSplineSet
EndChar

StartChar: H
Encoding: 72 72 42
Width: 722
GlyphClass: 2
Flags: HMW
HStem: 0 21G<80 175 80 80 547 547 547 642> 325 85<175 547 175 547> 700 20G<80 175 175 175 547 642 642 642>
VStem: 80 95<0 325 410 720> 547 95<0 325 325 325 410 720 0 720>
LayerCount: 2
Fore
SplineSet
594.5 36.0166015625 m 1
 588.5 325 l 1
 587.784179688 364.5 l 1
 133.685546875 364.5 l 1
 133.5 325 l 1
 127.5 36.0166015625 l 1
 127.5 684.512695312 l 1
 133.5 410 l 1
 133.685546875 370.5 l 1
 587.784179688 370.5 l 1
 588.5 410 l 1
 594.5 684.512695312 l 1
 594.5 36.0166015625 l 1
EndSplineSet
EndChar

StartChar: I
Encoding: 73 73 43
Width: 255
GlyphClass: 2
Flags: HMW
HStem: 0 21G<80 175 80 80> 700 20G<80 175 175 175>
VStem: 80 95<0 720>
LayerCount: 2
Fore
SplineSet
127.5 35.751953125 m 1
 124.5 360 l 1
 127.5 684.232421875 l 1
 130.5 360 l 1
 127.5 35.751953125 l 1
EndSplineSet
EndChar

StartChar: J
Encoding: 74 74 44
Width: 516
GlyphClass: 2
Flags: HMW
HStem: -15 80 700 20G<341 436 436 436>
VStem: 18.7725 86 338.772 95
LayerCount: 2
Fore
SplineSet
388.5 684.248046875 m 1
 391.5 221.452148438 l 1
 352.412109375 72.6552734375 l 1
 221.67578125 15.4677734375 l 1
 96.5703125 66.576171875 l 1
 71.060546875 156.205078125 l 1
 100.661132812 70.96484375 l 1
 221.67578125 21.4677734375 l 1
 348.236328125 76.962890625 l 1
 385.504882812 221.607421875 l 1
 388.5 684.248046875 l 1
EndSplineSet
EndChar

StartChar: K
Encoding: 75 75 45
Width: 698
GlyphClass: 2
Flags: HMW
HStem: 0 21G<80 175 80 80> 700 20G<80 175 175 175>
VStem: 80 95<0 238 352 720>
LayerCount: 2
Fore
SplineSet
127.5 35.955078125 m 1
 127.5 683.983398438 l 1
 133.5 318.29296875 l 1
 175 298 l 1
 532.094726562 672.259765625 l 1
 312.306640625 435.693359375 l 1
 286.588867188 407.653320312 l 1
 556.411132812 50.2548828125 l 1
 282.411132812 403.346679688 l 1
 248.040039062 367.959960938 l 1
 175 292 l 1
 133.5 238 l 1
 127.5 35.955078125 l 1
EndSplineSet
EndChar

StartChar: L
Encoding: 76 76 46
Width: 608
GlyphClass: 2
Flags: HMW
HStem: 0 85<175 578 175 578> 700 20G<80 175 175 175>
VStem: 80 95<85 720 85 720 85 720>
LayerCount: 2
Fore
SplineSet
127.5 684.098632812 m 1
 130.5 85 l 1
 129.736328125 44.5 l 1
 542.107421875 42.5 l 1
 125.263671875 40.5 l 1
 124.5 85 l 1
 127.5 684.098632812 l 1
EndSplineSet
EndChar

StartChar: M
Encoding: 77 77 47
Width: 863
GlyphClass: 2
Flags: HMW
HStem: 0 21G<80 175 80 80 389 389 389 474 688 688 688 783> 700 20G<80 219 219 219 652 783 783 783>
VStem: 80 95<0 598> 688 95<0 598 598 598>
LayerCount: 2
Fore
SplineSet
127.5 35.40234375 m 1
 125.657226562 684.377929688 l 1
 198.017578125 684.833007812 l 1
 412.009765625 64.3251953125 l 1
 452.55078125 64.345703125 l 1
 669.151367188 683.560546875 l 1
 737.342773438 683.05078125 l 1
 735.5 35.4013671875 l 1
 733.657226562 656.6328125 l 1
 670.848632812 656.123046875 l 1
 454.44921875 35.201171875 l 1
 409.990234375 35.2216796875 l 1
 195.982421875 656.177734375 l 1
 129.342773438 656.6328125 l 1
 127.5 35.40234375 l 1
EndSplineSet
EndChar

StartChar: N
Encoding: 78 78 48
Width: 724
GlyphClass: 2
Flags: HMW
HStem: 0 21G<80 171 80 80 547 547 547 644> 700 20G<80 177 177 177 553 644 644 644>
VStem: 80 91<0 566> 553 91<154 720 0 720>
LayerCount: 2
Fore
SplineSet
125.5 35.580078125 m 1
 123.973632812 684.248046875 l 1
 174.1171875 684.663085938 l 1
 550.1171875 79.998046875 l 1
 596.973632812 79.5830078125 l 1
 598.5 684.248046875 l 1
 600.026367188 35.4658203125 l 1
 549.8828125 35.0517578125 l 1
 173.8828125 640.001953125 l 1
 127.026367188 640.416992188 l 1
 125.5 35.580078125 l 1
EndSplineSet
EndChar

StartChar: O
Encoding: 79 79 49
Width: 785
GlyphClass: 2
Flags: HMW
HStem: -15 80 655 80
VStem: 50 100 635 100
LayerCount: 2
Fore
SplineSet
392.956054688 701.71875 m 1
 612.25390625 602.390625 l 1
 690.838867188 359.993164062 l 1
 612.25390625 117.6328125 l 1
 392.956054688 18.30859375 l 1
 170.83984375 117.6328125 l 1
 94.09375 359.993164062 l 1
 172.752929688 602.390625 l 1
 392.956054688 701.71875 l 1
EndSplineSet
EndChar

StartChar: P
Encoding: 80 80 50
Width: 657
GlyphClass: 2
Flags: HMW
HStem: 0 21G<80 80 80 175> 290 85 635 85
VStem: 83.2305 95 512.23 98
LayerCount: 2
Fore
SplineSet
127.5 35.580078125 m 1
 124.5 290 l 1
 127.5 680.5 l 1
 337.5 680.5 l 1
 497.255859375 647.868164062 l 1
 565.587890625 510.453125 l 1
 509.725585938 376.853515625 l 1
 342.15625 332.67578125 l 1
 132.302734375 332.676757812 l 1
 130.5 290 l 1
 127.5 35.580078125 l 1
EndSplineSet
EndChar

StartChar: Q
Encoding: 81 81 51
Width: 785
GlyphClass: 2
Flags: HMW
HStem: -59 21G -15 80 655 80
VStem: 50 100 635 100
LayerCount: 2
Fore
SplineSet
392.955078125 704.71875 m 1
 614.688476562 604.14453125 l 1
 693.83984375 359.9921875 l 1
 608.353515625 94.9619140625 l 1
 608.97265625 71.240234375 l 1
 670.834960938 -3.65234375 l 1
 603.46875 68.8515625 l 1
 575.30078125 94.3115234375 l 1
 392.95703125 15.30859375 l 1
 168.451171875 115.818359375 l 1
 91.09375 359.990234375 l 1
 170.3203125 604.146484375 l 1
 392.955078125 704.71875 l 1
392.955078125 698.71875 m 1
 609.818359375 600.638671875 l 1
 687.83984375 359.994140625 l 1
 589.047851562 90.4833984375 l 1
 545.688476562 143.05078125 l 1
 503.005859375 187.499023438 l 1
 540.880859375 139.458984375 l 1
 560.853515625 101.814453125 l 1
 392.95703125 21.30859375 l 1
 173.228515625 119.447265625 l 1
 97.09375 359.99609375 l 1
 175.185546875 600.634765625 l 1
 392.955078125 698.71875 l 1025
EndSplineSet
EndChar

StartChar: R
Encoding: 82 82 52
Width: 683
GlyphClass: 2
Flags: HMW
HStem: 0 21G<80 80 80 175> 290 85 635 85
VStem: 80 95<0 290 0 375.353 375.353 641> 499 98
LayerCount: 2
Fore
SplineSet
127.5 35.751953125 m 1
 124.5 290 l 1
 127.5 375.352539062 l 1
 127.5 680.5 l 1
 337.5 680.5 l 1
 497.255859375 647.868164062 l 1
 565.587890625 510.453125 l 1
 509.725585938 376.853515625 l 1
 356.52734375 335.991210938 l 1
 419.8671875 350.213867188 l 1
 583.161132812 46.4169921875 l 1
 403.471679688 348.060546875 l 1
 341.225585938 332.68359375 l 1
 134.17578125 333.05078125 l 1
 130.5 290 l 1
 127.5 35.751953125 l 1
EndSplineSet
EndChar

StartChar: S
Encoding: 83 83 53
Width: 665
GlyphClass: 2
Flags: HMW
HStem: -15 80 510 225 655 80
VStem: 50 94 77 92 513 102
LayerCount: 2
Fore
SplineSet
527.748046875 559.232421875 m 1
 482.806640625 651.8046875 l 1
 325.981445312 698.721679688 l 1
 187.111328125 659.913085938 l 1
 121.81640625 537.53125 l 1
 142.875976562 464.325195312 l 1
 228.377929688 409.557617188 l 1
 436.420898438 349.227539062 l 1
 535.484375 291.994140625 l 1
 571.508789062 193.400390625 l 1
 504.620117188 60.818359375 l 1
 348.264648438 15.353515625 l 1
 165.29296875 69.7724609375 l 1
 113.600585938 185.293945312 l 1
 169.76171875 73.775390625 l 1
 347.952148438 21.345703125 l 1
 500.440429688 65.123046875 l 1
 565.515625 193.107421875 l 1
 531.1015625 287.896484375 l 1
 435.91015625 343.25 l 1
 227.694335938 403.596679688 l 1
 137.756835938 461.1953125 l 1
 115.823242188 537.3359375 l 1
 182.58203125 663.848632812 l 1
 325.668945312 704.713867188 l 1
 487.052734375 656.043945312 l 1
 527.748046875 559.232421875 l 1
EndSplineSet
EndChar

StartChar: T
Encoding: 84 84 54
Width: 619
GlyphClass: 2
Flags: HMW
HStem: 0 21G<262 357 262 262> 635 85<20 262 20 599 357 357 357 599>
VStem: 262 95<0 635>
LayerCount: 2
Fore
SplineSet
309.5 35.7666015625 m 1
 306.5 635 l 1
 306.5 674.627929688 l 1
 55.751953125 677.5 l 1
 262 680.5 l 1
 357 680.5 l 1
 563.248046875 677.5 l 1
 312.5 674.627929688 l 1
 312.5 635 l 1
 309.5 35.7666015625 l 1
EndSplineSet
EndChar

StartChar: U
Encoding: 85 85 55
Width: 723
GlyphClass: 2
Flags: HMW
HStem: -15 85 700 20G
VStem: 80 95 548 95
LayerCount: 2
Fore
SplineSet
127.346679688 684.525390625 m 1
 130.338867188 299.17578125 l 1
 182.322265625 99.82421875 l 1
 362.634765625 23.9765625 l 1
 542.23828125 99.8134765625 l 1
 592.76953125 299.290039062 l 1
 595.682617188 684.525390625 l 1
 598.767578125 299.392578125 l 1
 546.896484375 96.0302734375 l 1
 362.565429688 17.9775390625 l 1
 177.65625 96.052734375 l 1
 124.35546875 299.611328125 l 1
 127.346679688 684.525390625 l 1
EndSplineSet
EndChar

StartChar: V
Encoding: 86 86 56
Width: 675
GlyphClass: 2
Flags: HMW
HStem: 0 21G<288 385 288 288> 700 20G
LayerCount: 2
Fore
SplineSet
76.775390625 677.715820312 m 1
 313.73046875 57.236328125 l 1
 359.791015625 57.2451171875 l 1
 601.180664062 678.217773438 l 1
 362.208984375 51.75390625 l 1
 311.26953125 51.7626953125 l 1
 76.775390625 677.715820312 l 1
EndSplineSet
EndChar

StartChar: W
Encoding: 87 87 57
Width: 940
GlyphClass: 2
Flags: HMW
HStem: 0 21G<198 293 198 198 647 647 647 742> 700 20G<413 527 527 527>
LayerCount: 2
Fore
SplineSet
69.26953125 682.6171875 m 1
 225.236328125 60.2333984375 l 1
 270.44921875 60.3095703125 l 1
 439.919921875 684.415039062 l 1
 500.080078125 684.415039062 l 1
 672.15625 60.267578125 l 1
 717.365234375 60.27734375 l 1
 872.524414062 682.483398438 l 1
 714.602539062 35.71875 l 1
 674.346679688 35.7265625 l 1
 496.919921875 671.44921875 l 1
 443.080078125 671.44921875 l 1
 265.80859375 35.962890625 l 1
 225.759765625 36.0400390625 l 1
 69.26953125 682.6171875 l 1
EndSplineSet
EndChar

StartChar: X
Encoding: 88 88 58
Width: 697
GlyphClass: 2
Flags: HMW
HStem: 0 21G 700 20G
LayerCount: 2
Fore
SplineSet
142.840820312 672.536132812 m 1
 350.67578125 378.455078125 l 1
 350.67578125 378.455078125 l 1
 571.034179688 673.325195312 l 1
 353.56640625 375.594726562 l 1
 353.569335938 375.45703125 l 1
 583.756835938 48.669921875 l 1
 350.462890625 372.458984375 l 1
 350.462890625 372.458984375 l 1
 111.572265625 48.3369140625 l 1
 347.572265625 375.3203125 l 1
 347.572265625 375.3203125 l 1
 142.840820312 672.536132812 l 1
EndSplineSet
EndChar

StartChar: Y
Encoding: 89 89 59
Width: 675
GlyphClass: 2
Flags: HMW
HStem: 0 21G<290 385 290 290> 700 20G
VStem: 290 95<0 303>
LayerCount: 2
Fore
SplineSet
97.796875 673.526367188 m 1
 317.634765625 345.514648438 l 1
 362.080078125 345.641601562 l 1
 579.82421875 673.439453125 l 1
 364.919921875 340.357421875 l 1
 340.5 303 l 1
 337.5 35.751953125 l 1
 334.5 303 l 1
 314.365234375 340.485351562 l 1
 97.796875 673.526367188 l 1
EndSplineSet
EndChar

StartChar: Z
Encoding: 90 90 60
Width: 672
GlyphClass: 2
Flags: HMW
HStem: 0 85<169 612 60 60> 635 85<80 488 80 602 80 602>
LayerCount: 2
Fore
SplineSet
116.048828125 677.5 m 1
 546.978515625 678.975585938 l 1
 548 635 l 1
 117.5 85 l 1
 116.866210938 44.3447265625 l 1
 576.025390625 42.5 l 1
 112.133789062 40.6552734375 l 1
 111.5 85 l 1
 542 635 l 1
 542.197265625 675.41015625 l 1
 116.048828125 677.5 l 1
EndSplineSet
EndChar

StartChar: bracketleft
Encoding: 91 91 61
Width: 337
GlyphClass: 2
Flags: HMW
HStem: -100 85<175 297 175 297> 735 85<175 297 175 175>
VStem: 80 95<-15 735 -15 820 -15 820> 80 217<-100 -15 735 820>
LayerCount: 2
Fore
SplineSet
261.044921875 777.5 m 1
 129.736328125 775.5 l 1
 129.736328125 -55.5 l 1
 261.044921875 -57.5 l 1
 125.263671875 -59.5 l 1
 125.263671875 779.5 l 1
 261.044921875 777.5 l 1
EndSplineSet
EndChar

StartChar: backslash
Encoding: 92 92 62
Width: 336
GlyphClass: 2
Flags: HMW
HStem: -100 21G<247 247> 800 20G<90 90>
LayerCount: 2
Fore
SplineSet
56.98828125 774.168945312 m 1
 171.151367188 360.763671875 l 1
 279.245117188 -54.4443359375 l 1
 165.348632812 359.236328125 l 1
 56.98828125 774.168945312 l 1
EndSplineSet
EndChar

StartChar: bracketright
Encoding: 93 93 63
Width: 337
GlyphClass: 2
Flags: HMW
HStem: -100 85<40 162 40 257 40 162> 735 85<40 162 40 257>
VStem: 40 217<-100 -15 -15 -15 735 820> 162 95<-15 735 735 735>
LayerCount: 2
Fore
SplineSet
75.8818359375 777.5 m 1
 211.663085938 779.5 l 1
 211.663085938 -59.5 l 1
 75.8818359375 -57.5 l 1
 207.19140625 -55.5 l 1
 207.19140625 775.5 l 1
 75.8818359375 777.5 l 1
EndSplineSet
EndChar

StartChar: asciicircum
Encoding: 94 94 64
Width: 556
GlyphClass: 2
Flags: MW
HStem: 470 21G 700 20G
LayerCount: 2
Fore
SplineSet
254 750 m 1
 296 750 l 1
 434 507.840820312 l 1
 384 479.840820312 l 1
 277.021484375 641.331054688 l 1
 169.379882812 478.840820312 l 1
 119.379882812 506.840820312 l 1
 254 750 l 1
EndSplineSet
EndChar

StartChar: underscore
Encoding: 95 95 65
Width: 696
GlyphClass: 2
Flags: HMW
HStem: 0 75
LayerCount: 2
Fore
SplineSet
100.34765625 37.5 m 1
 348 40.5 l 1
 595.807617188 37.5 l 1
 348 34.5 l 1
 100.34765625 37.5 l 1
EndSplineSet
EndChar

StartChar: grave
Encoding: 96 96 66
Width: 284
GlyphClass: 2
Flags: MW
HStem: 533 21G 700 20G
LayerCount: 2
Fore
SplineSet
136.139648438 776.171875 m 1
 225 563 l 1
 175 535 l 1
 46.3798828125 729.159179688 l 1
 136.139648438 776.171875 l 1
EndSplineSet
EndChar

StartChar: a
Encoding: 97 97 67
Width: 545
GlyphClass: 2
Flags: HMW
HStem: -15 72 0 21G<388 472 388 388> 463 72
VStem: 36 94 382 90
LayerCount: 2
Fore
SplineSet
430.235351562 341.655273438 m 1
 430 35.5 l 1
 424.065429688 129.3515625 l 1
 310.892578125 39.6611328125 l 1
 217.1484375 16.1318359375 l 1
 119.811523438 43.390625 l 1
 77.45703125 136.4765625 l 1
 127.366210938 233.967773438 l 1
 424.389648438 321.3984375 l 1
 424.299804688 342.534179688 l 1
 383.569335938 463.212890625 l 1
 264.193359375 500.783203125 l 1
 155.516601562 470.740234375 l 1
 115.732421875 413.231445312 l 1
 151.9453125 475.560546875 l 1
 264.936523438 506.737304688 l 1
 388.705078125 466.31640625 l 1
 430.235351562 341.655273438 l 1
EndSplineSet
EndChar

StartChar: b
Encoding: 98 98 68
Width: 550
GlyphClass: 2
Flags: HMW
HStem: -15 75 0 60 460 75 700 20G<65 155 155 155>
VStem: 65 90<465 720 465 720 465 720> 425 90
LayerCount: 2
Fore
SplineSet
108.5 684.15625 m 1
 103.5 35.884765625 l 1
 106.98828125 70.181640625 l 1
 111.213867188 258.05078125 l 1
 157.579101562 80.380859375 l 1
 289.4921875 15.873046875 l 1
 424.19921875 80.7578125 l 1
 473.623046875 258.091796875 l 1
 424.19921875 435.44921875 l 1
 289.4921875 500.35546875 l 1
 152.943359375 435.127929688 l 1
 111.213867188 258.05078125 l 1
 109.732421875 465.561523438 l 1
 108.5 684.15625 l 1025
EndSplineSet
EndChar

StartChar: c
Encoding: 99 99 69
Width: 524
GlyphClass: 2
Flags: HMW
HStem: -15 75 460 75
VStem: 35 90
LayerCount: 2
Fore
SplineSet
425.235351562 123.708007812 m 1
 387.53125 52.7978515625 l 1
 273.384765625 14.7470703125 l 1
 129.794921875 77.1005859375 l 1
 73.49609375 260.0078125 l 1
 129.827148438 442.916015625 l 1
 273.383789062 505.26953125 l 1
 387.568359375 466.850585938 l 1
 425.841796875 394.340820312 l 1
 383.250976562 462.68359375 l 1
 273.383789062 499.26953125 l 1
 134.737304688 439.466796875 l 1
 79.49609375 260.0078125 l 1
 134.706054688 80.5478515625 l 1
 273.384765625 20.7470703125 l 1
 383.224609375 56.9765625 l 1
 425.235351562 123.708007812 l 1
EndSplineSet
EndChar

StartChar: d
Encoding: 100 100 70
Width: 550
GlyphClass: 2
Flags: HMW
HStem: -15 75 0 60 460 75 700 20G<395 485 485 485>
VStem: 35 90 406 79
LayerCount: 2
Fore
SplineSet
438.787109375 462.712890625 m 1
 438.315429688 257.78515625 l 1
 392.534179688 435.985351562 l 1
 257.857421875 500.046875 l 1
 123.09765625 435.142578125 l 1
 73.685546875 257.78515625 l 1
 123.09765625 80.44921875 l 1
 257.857421875 15.56640625 l 1
 389.793945312 79.689453125 l 1
 438.315429688 257.78515625 l 1
 441.44921875 79.4296875 l 1
 445 35.4873046875 l 1
 443 684.180664062 l 1
 438.787109375 462.712890625 l 1025
EndSplineSet
EndChar

StartChar: e
Encoding: 101 101 71
Width: 544
GlyphClass: 2
Flags: HMW
HStem: -15 75 237 72 460 75
VStem: 35 90 413 96
LayerCount: 2
Fore
SplineSet
79.06640625 247.907226562 m 1
 138.137695312 78.1220703125 l 1
 275.797851562 21.162109375 l 1
 391.494140625 56.9970703125 l 1
 435.76171875 122.16015625 l 1
 395.524414062 52.5517578125 l 1
 275.399414062 15.17578125 l 1
 132.930664062 75.1416015625 l 1
 73.25390625 249.39453125 l 1
 85.478515625 309 l 1
 139.04296875 447.227539062 l 1
 273.004882812 502.693359375 l 1
 414.22265625 442.317382812 l 1
 458.873046875 309 l 1
 462 273 l 1
 416 272.990234375 l 1
 84.0927734375 272.990234375 l 1
 79.06640625 247.907226562 l 1
EndSplineSet
EndChar

StartChar: f
Encoding: 102 102 72
Width: 303
GlyphClass: 2
Flags: HMW
HStem: 0 21G<88 175 88 88> 451 69<10 88 10 88 175 276> 633 78
VStem: 88 87<0 451 0 451 520 545 545 545>
LayerCount: 2
Fore
SplineSet
132.323242188 37.0380859375 m 1
 129.150390625 483.635742188 l 1
 129.150390625 483.635742188 l 1
 45.77734375 485.5 l 1
 129.150390625 487.364257812 l 1
 129.150390625 487.364257812 l 1
 128.500976562 545.930664062 l 1
 156.147460938 645.913085938 l 1
 244.755859375 681.278320312 l 1
 279.53125 672.047851562 l 1
 245.59375 675.336914062 l 1
 160.651367188 641.950195312 l 1
 134.499023438 546.069335938 l 1
 133.850585938 487.364257812 l 1
 133.850585938 487.364257812 l 1
 239.983398438 485.5 l 1
 133.850585938 483.635742188 l 1
 133.850585938 483.635742188 l 1
 132.323242188 37.0380859375 l 1
EndSplineSet
EndChar

StartChar: g
Encoding: 103 103 73
Width: 558
GlyphClass: 2
Flags: HMW
HStem: -210 76 -15 75 460 60 460 75
VStem: 43 90 63 85 403 90
LayerCount: 2
Fore
SplineSet
443.999023438 55 m 1
 446.41015625 261.875 l 1
 386.098632812 82.2080078125 l 1
 264.470703125 19.6982421875 l 1
 129.806640625 84.58203125 l 1
 80.42578125 261.91796875 l 1
 129.806640625 439.274414062 l 1
 264.470703125 504.178710938 l 1
 389.201171875 432.188476562 l 1
 446.41015625 261.875 l 1
 451.999023438 450 l 1
 454.999023438 484.141601562 l 1
 449.999023438 55 l 1
 449.817382812 25.9814453125 l 1
 411.215820312 -120.841796875 l 1
 261.879882812 -181.76171875 l 1
 147.922851562 -147.702148438 l 1
 126.286132812 -95.0673828125 l 1
 152.208984375 -143.50390625 l 1
 262.044921875 -175.763671875 l 1
 405.883789062 -118.091796875 l 1
 443.922851562 24.8603515625 l 1
 443.999023438 55 l 1
EndSplineSet
EndChar

StartChar: h
Encoding: 104 104 74
Width: 555
GlyphClass: 2
Flags: HMW
HStem: 0 21G<62 62 62 152.645 402 402 402 491.768> 459 76 700 20G<62 152.519 152.519 152.519>
VStem: 65.7109 90 400.711 90
LayerCount: 2
Fore
SplineSet
107.323242188 35.3564453125 m 1
 105.823242188 283.000976562 l 1
 105.758789062 449 l 1
 107.258789062 684.336914062 l 1
 108.758789062 449 l 1
 108.791015625 366 l 1
 170.9609375 432.858398438 l 1
 203.659179688 467.094726562 l 1
 302.825195312 501.155273438 l 1
 419.084960938 449.654296875 l 1
 448.606445312 316.049804688 l 1
 446.883789062 35.3564453125 l 1
 445.606445312 316.038085938 l 1
 416.592773438 447.984375 l 1
 302.134765625 498.236328125 l 1
 203.315429688 464.134765625 l 1
 173.217773438 430.8828125 l 1
 152.569335938 383.483398438 l 1
 108.823242188 283.000976562 l 1
 107.323242188 35.3564453125 l 1
EndSplineSet
EndChar

StartChar: i
Encoding: 105 105 75
Width: 220
GlyphClass: 2
Flags: HMW
HStem: 0 21G<65 155 65 65> 500 20G<65 155 155 155> 619 101
VStem: 65 90<0 520>
LayerCount: 2
Fore
SplineSet
104.384765625 682.959960938 m 1
 115.346679688 682.959960938 l 1
 123.208007812 674.319335938 l 1
 123.188476562 662.260742188 l 1
 115.4765625 653.818359375 l 1
 104.514648438 653.818359375 l 1
 96.7255859375 662.295898438 l 1
 96.73046875 674.341796875 l 1
 104.384765625 682.959960938 l 1
110 484.154296875 m 1
 113 260 l 1
 110 36.017578125 l 1
 107 260 l 1
 110 484.154296875 l 1
EndSplineSet
EndChar

StartChar: j
Encoding: 106 106 76
Width: 220
GlyphClass: 2
Flags: HMW
HStem: -210 79 500 20G<64.9883 154.956 154.956 154.956> 619 101
VStem: 65 90
LayerCount: 2
Fore
SplineSet
104.513671875 653.8203125 m 1
 96.7255859375 662.295898438 l 1
 96.7294921875 674.341796875 l 1
 104.3828125 682.9609375 l 1
 115.344726562 682.959960938 l 1
 123.20703125 674.318359375 l 1
 123.189453125 662.260742188 l 1
 115.475585938 653.8203125 l 1
 104.513671875 653.8203125 l 1
-7.5908203125 -167.201171875 m 1
 12.4404296875 -168.001953125 l 1
 88.2919921875 -126.579101562 l 1
 110.590820312 -9.2412109375 l 1
 109.971679688 483.983398438 l 1
 116.024414062 -11.7880859375 l 1
 92.8544921875 -130.474609375 l 1
 12.513671875 -174.000976562 l 1
 -7.5908203125 -167.201171875 l 1
EndSplineSet
EndChar

StartChar: k
Encoding: 107 107 77
Width: 506
GlyphClass: 2
Flags: HMW
HStem: 0 21G<65 154.758 65 65> 225 75<154.758 239 154.843 239 154.843 239> 437 83 700 20G<65.084 65.084>
VStem: 65 90
LayerCount: 2
Fore
SplineSet
109.87890625 35.8603515625 m 1
 104.67578125 225 l 1
 106.939453125 300 l 1
 107.115234375 684.08984375 l 1
 112.939453125 300 l 1
 154.80078125 262.734375 l 1
 239 265.5 l 1
 263.477539062 282.756835938 l 1
 307.068359375 331.649414062 l 1
 359.890625 445.084960938 l 1
 400.344726562 474.231445312 l 1
 424.241210938 474.00390625 l 1
 403.275390625 468.995117188 l 1
 364.62109375 441.391601562 l 1
 312.559570312 329.233398438 l 1
 251.94140625 256.62109375 l 1
 321.786132812 210.114257812 l 1
 409.013671875 45.5947265625 l 1
 316.21484375 207.885742188 l 1
 239 259.5 l 1
 154.793945312 256.734375 l 1
 109.891601562 225 l 1
 109.87890625 35.8603515625 l 1
EndSplineSet
EndChar

StartChar: l
Encoding: 108 108 78
Width: 220
GlyphClass: 2
Flags: HMW
HStem: 0 21G<65 155 65 65> 715 20G
VStem: 65 90<0 720>
LayerCount: 2
Fore
SplineSet
110 35.7666015625 m 1
 107 360 l 1
 110 683.983398438 l 1
 113 360 l 1
 110 35.7666015625 l 1
EndSplineSet
EndChar

StartChar: m
Encoding: 109 109 79
Width: 839
GlyphClass: 2
Flags: HMW
HStem: 0 21G<60.3184 60.3184 60.3184 150.521 374.717 374.717 374.717 464.717 690 690 690 780> 459 61 459 76
VStem: 65.3623 90 375.362 90 684.362 90
LayerCount: 2
Fore
SplineSet
105.418945312 35.7529296875 m 1
 102.471679688 269.000976562 l 1
 98.005859375 446 l 1
 101.021484375 484.233398438 l 1
 104.005859375 446 l 1
 105.963867188 368.396484375 l 1
 228.756835938 485.244140625 l 1
 293.173828125 504.217773438 l 1
 376.33203125 475.1796875 l 1
 414.544921875 391.934570312 l 1
 473.802734375 426.8671875 l 1
 510.147460938 469.188476562 l 1
 606.866210938 504.478515625 l 1
 706.283203125 460.662109375 l 1
 737.825195312 346.97265625 l 1
 735 35.751953125 l 1
 732.173828125 344.958984375 l 1
 704.233398438 455.471679688 l 1
 605.41015625 498.658203125 l 1
 508.727539062 463.358398438 l 1
 473.802734375 426.8671875 l 1
 420.060546875 302.397460938 l 1
 419.715820312 35.7529296875 l 1
 416.715820312 301.000976562 l 1
 410.887695312 387.177734375 l 1
 373.431640625 469.927734375 l 1
 291.516601562 498.451171875 l 1
 231.756835938 480.047851562 l 1
 160.922851562 420.694335938 l 1
 104.806640625 260.01953125 l 1
 105.418945312 35.7529296875 l 1
EndSplineSet
EndChar

StartChar: n
Encoding: 110 110 80
Width: 555
GlyphClass: 2
Flags: HMW
HStem: 0 21G<62.5225 62.5225 62.5225 152.522 402 402 402 492> 459 61 459 76
VStem: 68.835 90 403.835 90
LayerCount: 2
Fore
SplineSet
108.176757812 36.0166015625 m 1
 104.522460938 283 l 1
 100.022460938 445 l 1
 103.022460938 484.248046875 l 1
 106.022460938 445 l 1
 107.99609375 373.947265625 l 1
 224.59765625 480.83203125 l 1
 303.125 504.48828125 l 1
 420.25 452.361328125 l 1
 450 319 l 1
 447.655273438 36.0166015625 l 1
 444 319 l 1
 415.263671875 449.0234375 l 1
 301.74609375 498.6484375 l 1
 226.151367188 475.037109375 l 1
 169.048828125 429.912109375 l 1
 110.522460938 283 l 1
 108.176757812 36.0166015625 l 1
EndSplineSet
EndChar

StartChar: o
Encoding: 111 111 81
Width: 556
GlyphClass: 2
Flags: HMW
HStem: -15 75 460 75
VStem: 35 90 431 90
LayerCount: 2
Fore
SplineSet
277.971679688 17.7470703125 m 1
 134.36328125 78.8037109375 l 1
 76.06640625 259.965820312 l 1
 134.36328125 441.150390625 l 1
 277.971679688 502.227539062 l 1
 421.678710938 441.150390625 l 1
 480.005859375 259.965820312 l 1
 421.647460938 78.8212890625 l 1
 277.971679688 17.7470703125 l 1
EndSplineSet
EndChar

StartChar: p
Encoding: 112 112 82
Width: 550
GlyphClass: 2
Flags: HMW
HStem: -200 21G<65 65 65 155> -15 75 460 60 460 75
VStem: 67.7334 79 427.733 90
LayerCount: 2
Fore
SplineSet
110 -164.045898438 m 1
 107 55 l 1
 102 449 l 1
 105 483.983398438 l 1
 108 449 l 1
 110.375976562 261.774414062 l 1
 161.16015625 439.59765625 l 1
 292.3828125 507.071289062 l 1
 429.462890625 440.856445312 l 1
 479.399414062 261.817382812 l 1
 429.46484375 82.80078125 l 1
 292.3828125 16.603515625 l 1
 156.379882812 85.0595703125 l 1
 110.375976562 261.774414062 l 1
 113 55 l 1
 110 -164.045898438 l 1
EndSplineSet
EndChar

StartChar: q
Encoding: 113 113 83
Width: 550
GlyphClass: 2
Flags: HMW
HStem: -200 21G<395 395 395 485> -15 75 460 60 460 75
VStem: 32.1758 90 392.176 90
LayerCount: 2
Fore
SplineSet
440 -164.115234375 m 1
 437 55 l 1
 439.625 261.860351562 l 1
 394.032226562 84.0966796875 l 1
 257.532226562 16.6396484375 l 1
 120.565429688 82.841796875 l 1
 70.6865234375 261.860351562 l 1
 120.565429688 440.897460938 l 1
 257.532226562 507.12109375 l 1
 389.047851562 439.090820312 l 1
 439.625 261.860351562 l 1
 442 449 l 1
 445 484.034179688 l 1
 448 449 l 1
 443 55 l 1
 440 -164.115234375 l 1
EndSplineSet
EndChar

StartChar: r
Encoding: 114 114 84
Width: 385
GlyphClass: 2
Flags: HMW
HStem: 0 21G<155 155> 450 70 450 85
VStem: 66.2979 90
LayerCount: 2
Fore
SplineSet
110 35.916015625 m 1
 107 281 l 1
 102.5 430 l 1
 105.5 483.983398438 l 1
 108.5 430 l 1
 166.952148438 418.190429688 l 1
 226.793945312 477.688476562 l 1
 286.822265625 499.447265625 l 1
 332.796875 480.952148438 l 1
 288.446289062 493.866210938 l 1
 229.79296875 472.494140625 l 1
 166.952148438 418.190429688 l 1
 113 281 l 1
 110 35.916015625 l 1
EndSplineSet
EndChar

StartChar: s
Encoding: 115 115 85
Width: 493
GlyphClass: 2
Flags: HMW
HStem: -15 75 460 75
VStem: 40 86 368 90
LayerCount: 2
Fore
SplineSet
97.046875 111.134765625 m 1
 126.7109375 57.591796875 l 1
 249.586914062 20.7041015625 l 1
 360.2734375 46.0078125 l 1
 413.301757812 136.259765625 l 1
 385.959960938 211.837890625 l 1
 312.782226562 248.92578125 l 1
 187.908203125 282.36328125 l 1
 108.40234375 317.946289062 l 1
 76.6005859375 388.133789062 l 1
 122.801757812 476.436523438 l 1
 239.127929688 505.07421875 l 1
 354.43359375 471.682617188 l 1
 375.06640625 425.216796875 l 1
 349.860351562 467.799804688 l 1
 238.861328125 499.080078125 l 1
 126.90625 472.059570312 l 1
 82.560546875 388.821289062 l 1
 112.827148438 321.997070312 l 1
 190.951171875 287.534179688 l 1
 315.4453125 254.302734375 l 1
 390.232421875 216.05078125 l 1
 419.279296875 136.780273438 l 1
 364.805664062 42.0771484375 l 1
 249.34765625 14.708984375 l 1
 122.560546875 53.259765625 l 1
 97.046875 111.134765625 l 1
EndSplineSet
EndChar

StartChar: t
Encoding: 116 116 86
Width: 322
GlyphClass: 2
Flags: HMW
HStem: -10 80 451 69<20 94 20 94 184 273> 680 20G<94 184 184 184>
VStem: 94.0967 90
LayerCount: 2
Fore
SplineSet
245.165039062 26.6845703125 m 1
 225.40625 21.0634765625 l 1
 150.7734375 54.646484375 l 1
 136 152 l 1
 136.619140625 483.674804688 l 1
 136.619140625 483.674804688 l 1
 55.751953125 485.5 l 1
 136.619140625 487.326171875 l 1
 136.619140625 487.326171875 l 1
 139 664.248046875 l 1
 141.379882812 487.326171875 l 1
 141.379882812 487.326171875 l 1
 237.044921875 485.5 l 1
 141.379882812 483.674804688 l 1
 141.379882812 483.674804688 l 1
 141.999023438 152 l 1
 155.5078125 58.3310546875 l 1
 226.712890625 26.9189453125 l 1
 245.165039062 26.6845703125 l 1
EndSplineSet
EndChar

StartChar: u
Encoding: 117 117 87
Width: 555
GlyphClass: 2
Flags: HMW
HStem: -15 76 0 61 500 20G<62 152 152 152 401.477 491.477 491.477 491.477>
VStem: 62.0586 90 397.059 90
LayerCount: 2
Fore
SplineSet
450.9765625 35.955078125 m 1
 447.9765625 75 l 1
 448.09765625 153.544921875 l 1
 350.333984375 50.6142578125 l 1
 250.869140625 15.498046875 l 1
 133.712890625 67.62109375 l 1
 104.000976562 202.314453125 l 1
 107.000976562 484.418945312 l 1
 110.000976562 202.3359375 l 1
 138.702148438 70.955078125 l 1
 252.26171875 21.3349609375 l 1
 351.0078125 56.537109375 l 1
 408.447265625 111.797851562 l 1
 448.228515625 238.088867188 l 1
 446.477539062 484.419921875 l 1
 454.228515625 238.088867188 l 1
 453.9765625 75 l 1
 450.9765625 35.955078125 l 1
EndSplineSet
EndChar

StartChar: v
Encoding: 118 118 88
Width: 495
GlyphClass: 2
Flags: HMW
HStem: 0 21G<207 289 207 207> 500 20G
LayerCount: 2
Fore
SplineSet
70.263671875 480.369140625 m 1
 228.077148438 54.7998046875 l 1
 266.876953125 54.7822265625 l 1
 425.575195312 480.147460938 l 1
 269.123046875 49.2177734375 l 1
 246.94140625 36.0166015625 l 1
 225.922851562 49.2001953125 l 1
 70.263671875 480.369140625 l 1
EndSplineSet
EndChar

StartChar: w
Encoding: 119 119 89
Width: 731
GlyphClass: 2
Flags: HMW
HStem: 0 21G<167 260 167 167 468 468 468 559> 500 20G<321 412 412 412>
LayerCount: 2
Fore
SplineSet
67.3671875 481.581054688 m 1
 191.697265625 56.7509765625 l 1
 235.82421875 56.759765625 l 1
 343.4140625 462.295898438 l 1
 367.21875 484.405273438 l 1
 391.025390625 462.319335938 l 1
 493.641601562 62.2744140625 l 1
 537.001953125 62.3291015625 l 1
 667.045898438 481.7109375 l 1
 538.998046875 56.669921875 l 1
 515.177734375 35.7236328125 l 1
 491.358398438 56.724609375 l 1
 388.974609375 456.6796875 l 1
 345.5859375 456.703125 l 1
 238.17578125 51.2392578125 l 1
 213.739257812 35.8837890625 l 1
 189.302734375 51.2490234375 l 1
 67.3671875 481.581054688 l 1
EndSplineSet
EndChar

StartChar: x
Encoding: 120 120 90
Width: 517
GlyphClass: 2
Flags: HMW
HStem: 0 21G 500 20G
LayerCount: 2
Fore
SplineSet
104.061523438 45.96875 m 1
 255.537109375 267.486328125 l 1
 255.537109375 267.486328125 l 1
 116.4453125 474.318359375 l 1
 258.603515625 270.57421875 l 1
 258.603515625 270.57421875 l 1
 401.23828125 474.485351562 l 1
 261.53515625 267.575195312 l 1
 261.534179688 267.663085938 l 1
 411.677734375 46.080078125 l 1
 258.467773438 264.575195312 l 1
 258.467773438 264.575195312 l 1
 104.061523438 45.96875 l 1
EndSplineSet
EndChar

StartChar: y
Encoding: 121 121 91
Width: 500
GlyphClass: 2
Flags: HMW
HStem: -210 79 500 20G
LayerCount: 2
Fore
SplineSet
72.3388671875 479.421875 m 1
 234.15625 62.8310546875 l 1
 274.598632812 61.1533203125 l 1
 431.075195312 479.313476562 l 1
 257.697265625 3.359375 l 1
 236.362304688 -54.7021484375 l 1
 186.84765625 -141.764648438 l 1
 111.989257812 -171.000976562 l 1
 182.306640625 -137.842773438 l 1
 230.377929688 -54.265625 l 1
 251.69921875 3.4765625 l 1
 72.3388671875 479.421875 l 1
EndSplineSet
EndChar

StartChar: z
Encoding: 122 122 92
Width: 499
GlyphClass: 2
Flags: HMW
HStem: 0 75<141 459 40 40> 445 75<59 347 59 453 59 453>
LayerCount: 2
Fore
SplineSet
422.99609375 37.5 m 1
 88.091796875 35.7109375 l 1
 87.5 75 l 1
 397 445 l 1
 397.55078125 480.766601562 l 1
 95.142578125 482.5 l 1
 402.44921875 484.233398438 l 1
 403 445 l 1
 93.5 75 l 1
 92.908203125 39.2890625 l 1
 422.99609375 37.5 l 1
EndSplineSet
EndChar

StartChar: braceleft
Encoding: 123 123 93
Width: 319
GlyphClass: 2
Flags: HMW
HStem: -110 69 755 69
VStem: 20 160 90 90 90 189
LayerCount: 2
Fore
SplineSet
276.014648438 792.063476562 m 1
 226.62890625 782.809570312 l 1
 160.5390625 742.349609375 l 1
 145.893554688 623.487304688 l 1
 145.168945312 463.509765625 l 1
 120.663085938 392.655273438 l 1
 75.8408203125 356.888671875 l 1
 122.331054688 318.8046875 l 1
 145.505859375 247.255859375 l 1
 146.228515625 56.5869140625 l 1
 160.494140625 -28.7021484375 l 1
 245.494140625 -77.849609375 l 1
 275.49609375 -79.15625 l 1
 237.514648438 -81.58203125 l 1
 150.2265625 -41.615234375 l 1
 125.748046875 65.6279296875 l 1
 125.110351562 240.013671875 l 1
 102.892578125 310.318359375 l 1
 80.2958984375 331.522460938 l 1
 53.4267578125 356.974609375 l 1
 80.2958984375 382.419921875 l 1
 102.336914062 402.797851562 l 1
 125.389648438 476.712890625 l 1
 126.204101562 642.184570312 l 1
 150.614257812 755.782226562 l 1
 240.072265625 797.048828125 l 1
 276.014648438 792.063476562 l 1
EndSplineSet
EndChar

StartChar: bar
Encoding: 124 124 94
Width: 255
GlyphClass: 2
Flags: HMW
HStem: -100 21G<80 175 80 80> 800 20G<80 175 175 175>
VStem: 80 95<-100 820>
LayerCount: 2
Fore
SplineSet
127.5 784.419921875 m 1
 130.5 360 l 1
 127.5 -64.115234375 l 1
 124.5 360 l 1
 127.5 784.419921875 l 1
EndSplineSet
EndChar

StartChar: braceright
Encoding: 125 125 95
Width: 319
GlyphClass: 2
Flags: HMW
HStem: -110 69 755 69
VStem: 40 189 139 90 139 160
LayerCount: 2
Fore
SplineSet
45.0927734375 792.689453125 m 1
 81.0361328125 797.67578125 l 1
 170.493164062 756.408203125 l 1
 194.903320312 642.810546875 l 1
 195.717773438 477.33984375 l 1
 218.771484375 403.423828125 l 1
 240.811523438 383.045898438 l 1
 267.680664062 357.600585938 l 1
 240.811523438 332.149414062 l 1
 218.21484375 310.944335938 l 1
 195.998046875 240.639648438 l 1
 195.360351562 66.25390625 l 1
 170.880859375 -40.9892578125 l 1
 83.5927734375 -80.955078125 l 1
 45.611328125 -78.5302734375 l 1
 75.6142578125 -77.2236328125 l 1
 160.614257812 -28.076171875 l 1
 174.87890625 57.2138671875 l 1
 175.600585938 247.881835938 l 1
 198.77734375 319.430664062 l 1
 245.266601562 357.514648438 l 1
 200.4453125 393.282226562 l 1
 175.939453125 464.135742188 l 1
 175.213867188 624.11328125 l 1
 160.568359375 742.9765625 l 1
 94.478515625 783.436523438 l 1
 45.0927734375 792.689453125 l 1
EndSplineSet
EndChar

StartChar: asciitilde
Encoding: 126 126 96
Width: 526
GlyphClass: 2
Flags: MW
HStem: 270 90 360 90
LayerCount: 2
Fore
SplineSet
25.33984375 391.565429688 m 1x00
 90.328125 437.491210938 l 1
 163.034179688 452.799804688 l 1
 270.568359375 406.874023438 l 1
 362.983398438 360.947265625 l 1
 439.484375 381.359375 l 1
 458.83984375 395.680664062 l 1
 500.677734375 330.415039062 l 1
 435.626953125 284.48828125 l 1
 362.983398438 269.1796875 l 1
 255.482421875 315.063476562 l 1
 163.034179688 360.947265625 l 1
 86.533203125 340.578125 l 1
 66.1396484375 325.299804688 l 1
 25.33984375 391.565429688 l 1x00
EndSplineSet
EndChar

StartChar: exclamdown
Encoding: 161 161 98
Width: 239
GlyphClass: 2
Flags: HMW
HStem: -200 21G 420 100
VStem: 80 78
LayerCount: 2
Fore
SplineSet
108.39453125 500.173828125 m 1
 131.509765625 500.173828125 l 1
 148.08984375 481.94921875 l 1
 148.048828125 456.5234375 l 1
 131.78515625 438.724609375 l 1
 108.669921875 438.724609375 l 1
 92.244140625 456.59765625 l 1
 92.25390625 481.998046875 l 1
 108.39453125 500.173828125 l 1
118.990234375 309.616210938 m 1
 143.21484375 -187.625 l 1
 95.466796875 -187.625 l 1
 118.990234375 309.616210938 l 1
EndSplineSet
EndChar

StartChar: cent
Encoding: 162 162 99
Width: 524
GlyphClass: 2
Flags: MW
HStem: -115 21G<236 311 236 236> 615 20G<236 311 311 311>
VStem: 35.1016 90 236.102 75
LayerCount: 2
Fore
SplineSet
236 -22.9423828125 m 1
 83.4501953125 63.5390625 l 1
 26.9326171875 260.036132812 l 1
 83.515625 456.142578125 l 1
 236 543.013671875 l 1
 236 635 l 1
 311 635 l 1
 311 544 l 1
 432.291992188 486.973632812 l 1
 490 384 l 1
 408.630859375 345.310546875 l 1
 370.739257812 425.278320312 l 1
 311 462 l 1
 311 57 l 1
 373.040039062 96.7734375 l 1
 408.630859375 173.633789062 l 1
 490 135 l 1
 432.291992188 32.1357421875 l 1
 311 -23.5595703125 l 1
 311 -115 l 1
 236 -115 l 1
 236 -22.9423828125 l 1
236 56.087890625 m 1
 236 462.856445312 l 1
 153.641601562 401.577148438 l 1
 120.53515625 259.94921875 l 1
 153.674804688 117.844726562 l 1
 236 56.087890625 l 1
EndSplineSet
EndChar

StartChar: currency
Encoding: 164 164 100
Width: 556
GlyphClass: 2
Flags: HMW
HStem: 137 21G 175 75 470 75 564 20G
VStem: 103 77 378 77
LayerCount: 2
Fore
SplineSet
103.791015625 185.225585938 m 1
 167.00390625 253.721679688 l 1
 165.752929688 267.912109375 l 1
 139.10546875 362.626953125 l 1
 166.50390625 452.264648438 l 1
 166.471679688 468.9609375 l 1
 103.911132812 535.618164062 l 1
 170.51171875 473.397460938 l 1
 192.487304688 480.797851562 l 1
 280.319335938 510.323242188 l 1
 366.384765625 480.810546875 l 1
 386.110351562 470.10546875 l 1
 454.5859375 536.18359375 l 1
 390.109375 465.6328125 l 1
 391.900390625 452.27734375 l 1
 419.149414062 358.14453125 l 1
 392.423828125 267.907226562 l 1
 393.030273438 253.690429688 l 1
 454.170898438 185.303710938 l 1
 388.983398438 249.260742188 l 1
 366.352539062 239.374023438 l 1
 277.767578125 209.844726562 l 1
 191.224609375 239.377929688 l 1
 171 249.24609375 l 1
 103.791015625 185.225585938 l 1
EndSplineSet
EndChar

StartChar: yen
Encoding: 165 165 101
Width: 675
GlyphClass: 2
Flags: HMW
HStem: 0 21G<290 385 290 290> 700 20G
VStem: 290 95<0 108 183 238>
LayerCount: 2
Fore
SplineSet
337.5 35.580078125 m 1
 334.5 140.208984375 l 1
 290 142.5 l 1
 176.329101562 145.5 l 1
 290 148.5 l 1
 334.5 150.041992188 l 1
 334.5 270.208984375 l 1
 286.779296875 272.512695312 l 1
 176.329101562 275.5 l 1
 286.220703125 278.487304688 l 1
 334 313 l 1
 310.567382812 345.706054688 l 1
 99.216796875 672.064453125 l 1
 314.432617188 350.293945312 l 1
 364.780273438 350.458007812 l 1
 578.23828125 671.787109375 l 1
 368.219726562 345.541992188 l 1
 340 313 l 1
 388.239257812 278.490234375 l 1
 499.044921875 275.5 l 1
 387.760742188 272.509765625 l 1
 340.5 270.208984375 l 1
 340.5 150.041992188 l 1
 385 148.5 l 1
 499.044921875 145.5 l 1
 385 142.5 l 1
 340.5 140.208984375 l 1
 337.5 35.580078125 l 1
EndSplineSet
EndChar

StartChar: brokenbar
Encoding: 166 166 102
Width: 255
GlyphClass: 2
Flags: HMW
HStem: -100 21G<80 175 80 80> 800 20G<80 175 175 175>
VStem: 80 95<-100 325 410 820>
LayerCount: 2
Fore
SplineSet
127.5 783.983398438 m 1
 130.5 615 l 1
 127.5 446.016601562 l 1
 124.5 615 l 1
 127.5 783.983398438 l 1
127.5 289.044921875 m 1
 130.5 112.5 l 1
 127.5 -64.044921875 l 1
 124.5 148.455078125 l 1
 127.5 289.044921875 l 1
EndSplineSet
EndChar

StartChar: section
Encoding: 167 167 103
Width: 493
GlyphClass: 2
Flags: HMW
HStem: -15 75 660 75
VStem: 40 86 368 90
LayerCount: 2
Fore
SplineSet
100.899414062 111.92578125 m 1
 129.1640625 61.56640625 l 1
 249.66015625 25.4208984375 l 1
 358.03515625 49.68359375 l 1
 410.028320312 137.576171875 l 1
 403.838867188 167.288085938 l 1
 378.841796875 207.375976562 l 1
 317.037109375 235.442382812 l 1
 179.958984375 272.462890625 l 1
 112.697265625 309.05859375 l 1
 82.986328125 380.984375 l 1
 99.1201171875 430.625 l 1
 165.265625 483.133789062 l 1
 142.428710938 504.807617188 l 1
 98.400390625 534.999023438 l 1
 79.9228515625 585.61328125 l 1
 125.236328125 672.216796875 l 1
 239.948242188 700.477539062 l 1
 352.453125 667.568359375 l 1
 371.875 623.469726562 l 1
 347.87890625 663.685546875 l 1
 239.788085938 694.479492188 l 1
 129.340820312 667.840820312 l 1
 85.9033203125 585.956054688 l 1
 103.989257812 537.180664062 l 1
 147.448242188 508.095703125 l 1
 253.66796875 470.952148438 l 1
 359.275390625 430.341796875 l 1
 386.984375 413.977539062 l 1
 413.133789062 338.458984375 l 1
 401.001953125 292.265625 l 1
 358.280273438 245.301757812 l 1
 382.482421875 212.146484375 l 1
 408.171875 171.438476562 l 1
 416.008789062 137.907226562 l 1
 362.610351562 45.8017578125 l 1
 249.420898438 19.42578125 l 1
 125.005859375 57.2412109375 l 1
 100.899414062 111.92578125 l 1
EndSplineSet
EndChar

StartChar: copyright
Encoding: 169 169 104
Width: 590
GlyphClass: 2
Flags: MW
HStem: -15 70 107 66 346 66 465 70
VStem: 35 76 162 66 479 76
LayerCount: 2
Fore
SplineSet
294.899414062 535 m 1
 481.892578125 458.255859375 l 1
 554.881835938 260.008789062 l 1
 481.892578125 61.76171875 l 1
 294.899414062 -14.982421875 l 1
 107.979492188 61.76171875 l 1
 35 260.008789062 l 1
 107.916992188 458.255859375 l 1
 294.899414062 535 l 1
294.899414062 54.974609375 m 1
 431.561523438 115.1171875 l 1
 478.921875 259.92578125 l 1
 431.561523438 404.80859375 l 1
 294.899414062 464.959960938 l 1
 158.26953125 404.80859375 l 1
 110.876953125 259.92578125 l 1
 158.299804688 115.1171875 l 1
 294.899414062 54.974609375 l 1
294.899414062 172.958984375 m 1
 335.229492188 188.150390625 l 1
 355.850585938 223.98828125 l 1
 411 194 l 1
 377.655273438 133.060546875 l 1
 294.732421875 106.920898438 l 1
 196.030273438 153.064453125 l 1
 161.739257812 259.92578125 l 1
 195.967773438 366.319335938 l 1
 294.732421875 411.9296875 l 1
 377.592773438 385.922851562 l 1
 410 328 l 1
 355.850585938 295.946289062 l 1
 332.235351562 332.725585938 l 1
 294.899414062 345.974609375 l 1
 245.24609375 321.7109375 l 1
 228.266601562 258.465820312 l 1
 245.30859375 197.33984375 l 1
 294.899414062 172.958984375 l 1
EndSplineSet
EndChar

StartChar: guillemotleft
Encoding: 171 171 105
Width: 411
GlyphClass: 2
Flags: HMW
HStem: 94 21G<231 231 371 371> 412 20G<231 231 371 371>
LayerCount: 2
Fore
SplineSet
185.159179688 418.311523438 m 1
 91.5 263 l 1
 186.609375 107.217773438 l 1
 85.5 263 l 1
 185.159179688 418.311523438 l 1
325.600585938 418.33203125 m 1
 231.5 263 l 1
 325.646484375 107.384765625 l 1
 225.5 263 l 1
 325.600585938 418.33203125 l 1
EndSplineSet
EndChar

StartChar: registered
Encoding: 174 174 106
Width: 590
GlyphClass: 2
Flags: MW
HStem: -15 70 123 160 357 54 465 70
VStem: 35 76 192 63 335 64 479 76
LayerCount: 2
Fore
SplineSet
294.982421875 535 m 1
 481.944335938 458.255859375 l 1
 554.96484375 260.008789062 l 1
 481.944335938 61.76171875 l 1
 294.982421875 -14.982421875 l 1
 107.990234375 61.76171875 l 1
 35 260.008789062 l 1
 107.990234375 458.255859375 l 1
 294.982421875 535 l 1
294.982421875 54.974609375 m 1
 431.61328125 115.1171875 l 1
 479.004882812 259.92578125 l 1
 431.612304688 404.80859375 l 1
 294.982421875 464.959960938 l 1
 158.321289062 404.80859375 l 1
 110.959960938 259.92578125 l 1
 158.352539062 115.1171875 l 1
 294.982421875 54.974609375 l 1
261.879882812 228.991210938 m 1
 254.875976562 228.991210938 l 1
 254.875976562 123.013671875 l 1
 191.83984375 123.013671875 l 1
 192.006835938 411.01171875 l 1
 287.978515625 411.01171875 l 1
 365.168945312 393.760742188 l 1
 398.958984375 327.046875 l 1
 380.208984375 274.55078125 l 1
 333.004882812 249.001953125 l 1
 369.233398438 225.864257812 l 1
 391.955078125 189.96875 l 1
 412 152 l 1
 355.850585938 122.9296875 l 1
 333.004882812 170.958007812 l 1
 303.852539062 215.358398438 l 1
 261.879882812 228.991210938 l 1
255.04296875 283.021484375 m 1
 287.061523438 283.021484375 l 1
 324.198242188 293.528320312 l 1
 335.005859375 322.043945312 l 1
 320.998046875 350.060546875 l 1
 285.977539062 357.064453125 l 1
 255.04296875 357.064453125 l 1
 255.04296875 283.021484375 l 1
EndSplineSet
EndChar

StartChar: degree
Encoding: 176 176 107
Width: 360
GlyphClass: 2
Flags: HMW
HStem: 475 62 672 63
VStem: 50 62 247 63
LayerCount: 2
Fore
SplineSet
81.1005859375 604.966796875 m 1
 110.415039062 674.469726562 l 1
 180.158203125 703.482421875 l 1
 249.96875 674.469726562 l 1
 278.630859375 604.966796875 l 1
 250 534.876953125 l 1
 180.158203125 505.994140625 l 1
 110.3515625 534.876953125 l 1
 81.1005859375 604.966796875 l 1
EndSplineSet
EndChar

StartChar: plusminus
Encoding: 177 177 108
Width: 556
GlyphClass: 2
Flags: MW
HStem: 115 75<50 506 50 506> 415 75<50 240 50 240 315 506> 660 20G<240 315 315 315>
VStem: 240 75<254 415 254 415 490 680>
LayerCount: 2
Fore
SplineSet
315 415 m 1
 315 254 l 1
 240 254 l 1
 240 415 l 1
 50 415 l 1
 50 490 l 1
 240 490 l 1
 240 680 l 1
 315 680 l 1
 315 490 l 1
 506 490 l 1
 506 415 l 1
 315 415 l 1
506 115 m 1
 50 115 l 1
 50 190 l 1
 506 190 l 1
 506 115 l 1
EndSplineSet
EndChar

StartChar: paragraph
Encoding: 182 182 110
Width: 556
GlyphClass: 2
Flags: HMW
HStem: -100 21G 735 85
VStem: 211 80 380 83
LayerCount: 2
Fore
SplineSet
251.01171875 -64.0322265625 m 1
 248.51171875 415.934570312 l 1
 239.037109375 443.408203125 l 1
 95.947265625 499.821289062 l 1
 53.2216796875 613.139648438 l 1
 86.4970703125 692.26171875 l 1
 106.829101562 741.421875 l 1
 270.749023438 780.017578125 l 1
 380.043945312 780.017578125 l 1
 463.008789062 779.975585938 l 1
 508.099609375 777.475585938 l 1
 463.008789062 774.975585938 l 1
 424.026367188 772.068359375 l 1
 421.526367188 -64.0732421875 l 1
 419.026367188 772.071289062 l 1
 380.043945312 775.017578125 l 1
 271.828125 775.26171875 l 1
 251.010742188 735.034179688 l 1
 253.51171875 415.934570312 l 1
 251.01171875 -64.0322265625 l 1
EndSplineSet
EndChar

StartChar: periodcentered
Encoding: 183 183 111
Width: 231
GlyphClass: 2
Flags: HMW
HStem: 212 100
VStem: 70 91
LayerCount: 2
Fore
SplineSet
77.7314453125 262.131835938 m 1
 95.958984375 293.559570312 l 1
 132.288085938 293.485351562 l 1
 150.388671875 261.98828125 l 1
 132.161132812 230.565429688 l 1
 95.8330078125 230.634765625 l 1
 77.7314453125 262.131835938 l 1
EndSplineSet
EndChar

StartChar: guillemotright
Encoding: 187 187 112
Width: 411
GlyphClass: 2
Flags: HMW
HStem: 94 21G<40 40 180 180> 412 20G<40 40 180 180>
LayerCount: 2
Fore
SplineSet
225.840820312 418.311523438 m 1
 325.5 263 l 1
 224.390625 107.217773438 l 1
 319.5 263 l 1
 225.840820312 418.311523438 l 1
85.3994140625 418.33203125 m 1
 185.5 263 l 1
 85.353515625 107.384765625 l 1
 179.5 263 l 1
 85.3994140625 418.33203125 l 1
EndSplineSet
EndChar

StartChar: questiondown
Encoding: 191 191 113
Width: 556
GlyphClass: 2
Flags: HMW
HStem: -215 80 420 100
VStem: 49 95 225 95
LayerCount: 2
Fore
SplineSet
277.69140625 -186.657226562 m 1
 142.259765625 -142.811523438 l 1
 89.005859375 -15.5771484375 l 1
 122.693359375 87.0068359375 l 1
 196.953125 159.553710938 l 1
 256.552734375 228.903320312 l 1
 276.59765625 309.60546875 l 1
 262.037109375 226.467773438 l 1
 201.1953125 155.309570312 l 1
 128.313476562 84.9052734375 l 1
 94.994140625 -15.2001953125 l 1
 147.060546875 -139.215820312 l 1
 277.62890625 -180.657226562 l 1
 397.525390625 -135.651367188 l 1
 437.724609375 -49.5654296875 l 1
 401.8828125 -139.776367188 l 1
 277.69140625 -186.657226562 l 1
261.1953125 438.538085938 m 1
 243.291015625 456.411132812 l 1
 243.16796875 481.813476562 l 1
 260.89453125 499.862304688 l 1
 286.091796875 499.987304688 l 1
 303.99609375 482.114257812 l 1
 304.119140625 456.713867188 l 1
 286.390625 438.663085938 l 1
 261.1953125 438.538085938 l 1
EndSplineSet
EndChar

StartChar: Aring
Encoding: 197 197 118
Width: 675
GlyphClass: 2
Flags: MW
HStem: 0 21G 700 20G<290 387 387 387> 775 62 972 63
VStem: 208 62 405 63
LayerCount: 2
Fore
SplineSet
167 159 m 1
 104 -8 l 1
 19 24 l 1
 290 720 l 1
 387 720 l 1
 656 23.8330078125 l 1
 565 -8 l 1
 504 156 l 1
 497 175 l 1
 173 175 l 1
 167 159 l 1
466 260 m 1
 338 611 l 1
 205 260 l 1
 466 260 l 1
337.158203125 1035 m 1
 429.106445312 996.611328125 l 1
 467.149414062 905.008789062 l 1
 429.168945312 813.03125 l 1
 337.158203125 775.017578125 l 1
 245.408203125 813.03125 l 1
 207 905.008789062 l 1
 245.533203125 996.611328125 l 1
 337.158203125 1035 l 1
337.158203125 836.969726562 m 1
 384.831054688 856.72265625 l 1
 404.11328125 904.92578125 l 1
 384.831054688 952.327148438 l 1
 337.158203125 971.963867188 l 1
 289.296875 952.327148438 l 1
 269.202148438 904.92578125 l 1
 289.296875 856.72265625 l 1
 337.158203125 836.969726562 l 1
EndSplineSet
EndChar

StartChar: AE
Encoding: 198 198 119
Width: 1064
GlyphClass: 2
Flags: HMW
HStem: 0 85<582 994 582 994> 172 85<286 487 286 487 233 487> 325 85<582 934 582 934> 635 85<582 984 582 582>
VStem: 487 95<85 172 172 172 257 325 410 580 580 580>
LayerCount: 2
Fore
SplineSet
96.5380859375 37.7080078125 m 1
 177.530273438 172 l 1
 502.759765625 680.70703125 l 1
 582 680.5 l 1
 948.248046875 677.5 l 1
 537.056640625 674.5 l 1
 534.5 607.5 l 1
 534.5 410 l 1
 535.18359375 370.5 l 1
 898.044921875 367.5 l 1
 535.18359375 364.5 l 1
 534.5 325 l 1
 537.5 172 l 1
 536.736328125 44.5 l 1
 958.044921875 42.5 l 1
 532.263671875 40.5 l 1
 531.5 172 l 1
 532.55078125 214.5 l 1
 213.418945312 214.5 l 1
 183.530273438 172 l 1
 96.5380859375 37.7080078125 l 1
EndSplineSet
EndChar

StartChar: Ccedilla
Encoding: 199 199 120
Width: 734
GlyphClass: 2
Flags: HMW
HStem: -242 50 -92 48 -15 80 655 80
VStem: 50 100 419 48
LayerCount: 2
Fore
SplineSet
615.435546875 544.03125 m 1
 553.931640625 645.767578125 l 1
 383.26171875 700.946289062 l 1
 170.594726562 602.862304688 l 1
 97.6064453125 362.219726562 l 1
 163.575195312 128.108398438 l 1
 363.267578125 24.7001953125 l 1
 383.262695312 23.537109375 l 1
 550.1484375 78.642578125 l 1
 613.275390625 177.795898438 l 1
 554.583007812 74.6015625 l 1
 383.262695312 17.537109375 l 1
 363.33203125 -18.943359375 l 1
 352.993164062 -44.220703125 l 1
 381.172851562 -71.271484375 l 1
 428.719726562 -91.24609375 l 1
 447.327148438 -149.774414062 l 1
 428.649414062 -208.83984375 l 1
 381.09765625 -229.275390625 l 1
 343.34765625 -216.944335938 l 1
 345.14453125 -214.541992188 l 1
 346.942382812 -212.139648438 l 1
 381.087890625 -223.275390625 l 1
 424.326171875 -204.680664062 l 1
 441.327148438 -149.774414062 l 1
 424.340820312 -95.34765625 l 1
 381.18359375 -77.271484375 l 1
 338.932617188 -97.82421875 l 1
 336.126953125 -96.763671875 l 1
 333.3203125 -95.7041015625 l 1
 347.380859375 -42.1005859375 l 1
 357.349609375 -18.484375 l 1
 360.391601562 19.43359375 l 1
 158.208007812 125.424804688 l 1
 91.6064453125 362.219726562 l 1
 165.731445312 606.374023438 l 1
 383.26171875 706.946289062 l 1
 558.102539062 650.081054688 l 1
 615.435546875 544.03125 l 1
EndSplineSet
EndChar

StartChar: Eth
Encoding: 208 208 128
Width: 799
GlyphClass: 2
Flags: MW
HStem: 0 84 325 75 635 85<170.003 392>
VStem: 170 95 651 98
LayerCount: 2
Fore
SplineSet
170.002929688 0.0029296875 m 1
 170.002929688 325.0234375 l 1
 20 325.0234375 l 1
 20 399.982421875 l 1
 170.002929688 399.982421875 l 1
 170.002929688 720 l 1
 392 720 l 1
 659.330078125 633.16015625 l 1
 749.168945312 361.885742188 l 1
 664.943359375 91.162109375 l 1
 405.137695312 -0.1552734375 l 1
 170.002929688 -0.1552734375 l 1
 170.002929688 0.0029296875 l 1
264.973632812 83.9677734375 m 1
 406 84 l 1
 588.303710938 149.327148438 l 1
 651.515625 363.122070312 l 1
 579.883789062 579.876953125 l 1
 392 635 l 1
 265.140625 635.092773438 l 1
 265.140625 400.125 l 1
 436.239257812 400.125 l 1
 436.239257812 325.165039062 l 1
 265.140625 325.165039062 l 1
 264.973632812 84.109375 l 1
 264.973632812 83.9677734375 l 1
EndSplineSet
EndChar

StartChar: multiply
Encoding: 215 215 135
Width: 556
GlyphClass: 2
Flags: HMW
HStem: 199 21G<148 148 408 408> 546 20G<148 148 408 408>
LayerCount: 2
Fore
SplineSet
146.870117188 513.934570312 m 1
 278 385.5 l 1
 278 385.5 l 1
 409.31640625 514.123046875 l 1
 281 382.5 l 1
 281 382.5 l 1
 409.141601562 250.858398438 l 1
 278 379.5 l 1
 278 379.5 l 1
 146.967773438 250.967773438 l 1
 275 382.5 l 1
 275 382.5 l 1
 146.870117188 513.934570312 l 1
EndSplineSet
EndChar

StartChar: Oslash
Encoding: 216 216 136
Width: 785
GlyphClass: 2
Flags: MW
HStem: -15 80 655 80
VStem: 50 100 635 100
LayerCount: 2
Fore
SplineSet
654.013671875 614.014648438 m 1
 720.860351562 500.896484375 l 1
 741.911132812 358.950195312 l 1
 651.184570312 88.5625 l 1
 392.956054688 -23.513671875 l 1
 273.537109375 -5.279296875 l 1
 181.9921875 51.94140625 l 1
 124.875976562 -16.013671875 l 1
 67.009765625 32.013671875 l 1
 128.87890625 105.97265625 l 1
 63.5087890625 217.717773438 l 1
 43.1494140625 358.950195312 l 1
 133.950195312 629.415039062 l 1
 392.956054688 741.5 l 1
 509.600585938 723.393554688 l 1
 599.899414062 667.044921875 l 1
 655.931640625 734 l 1
 713.880859375 685.97265625 l 1
 654.013671875 614.014648438 l 1
190.998046875 180.015625 m 1
 541.94921875 598.004882812 l 1
 476.611328125 645.09765625 l 1
 393.040039062 659.853515625 l 1
 211.673828125 573.282226562 l 1
 145.122070312 358.950195312 l 1
 155.6484375 260.421875 l 1
 190.998046875 180.015625 l 1
589.9765625 538.971679688 m 1
 237.94140625 118.98046875 l 1
 304.356445312 72.71875 l 1
 392.870117188 58.046875 l 1
 573.237304688 144.619140625 l 1
 639.681640625 358.950195312 l 1
 627.935546875 457.68359375 l 1
 589.9765625 538.971679688 l 1
EndSplineSet
EndChar

StartChar: Thorn
Encoding: 222 222 142
Width: 657
GlyphClass: 2
Flags: MW
HStem: 0 21G 150 85 495 85 700 20G<80 174.972 174.972 174.972>
VStem: 80 95 509 98
LayerCount: 2
Fore
SplineSet
80 0.0029296875 m 1
 80 720 l 1
 174.971679688 720 l 1
 174.971679688 580.002929688 l 1
 329.9765625 580.002929688 l 1
 522.571289062 539.690429688 l 1
 608.364257812 369.014648438 l 1
 539.61328125 201.841796875 l 1
 337.814453125 150.005859375 l 1
 174.8046875 150.005859375 l 1
 174.8046875 0.0029296875 l 1
 80 0.0029296875 l 1
174.971679688 234.971679688 m 1
 339.982421875 234.971679688 l 1
 465.4609375 265.798828125 l 1
 508.431640625 365.8671875 l 1
 457.572265625 472.952148438 l 1
 337.8984375 494.954101562 l 1
 174.887695312 494.954101562 l 1
 174.971679688 234.971679688 l 1
EndSplineSet
EndChar

StartChar: germandbls
Encoding: 223 223 143
Width: 623
GlyphClass: 2
Flags: MW
HStem: -15 75 0 21G 643 78
VStem: 88 87 230 86 384 85 498 90
LayerCount: 2
Fore
SplineSet
304 184 m 1x3e
 339.932617188 85.5615234375 l 1
 412.649414062 54.09375 l 1
 472.662109375 73.9873046875 l 1
 501.35546875 130.552734375 l 1
 485.791992188 184.993164062 l 1
 428.893554688 217.301757812 l 1
 360.4296875 231.590820312 l 1
 267.375 279.387695312 l 1
 227.838867188 381.532226562 l 1
 265 472 l 1
 346 528 l 1
 384.923828125 588.625976562 l 1
 362.087890625 627.91796875 l 1
 287.96875 648.83984375 l 1
 201.165039062 615.807617188 l 1
 175.70703125 528.249023438 l 1
 175.70703125 -0.0556640625 l 1
 88 -0.0556640625 l 1
 88 514.123046875 l 1
 142.907226562 674.7890625 l 1
 286.947265625 728.361328125 l 1
 428.192382812 686.772460938 l 1
 471.588867188 588.540039062 l 1
 471.588867188 588.540039062 l 1
 399 478 l 1
 335 430 l 1
 315.5234375 381.446289062 l 1
 336.318359375 340.155273438 l 1
 380.841796875 320.295898438 l 1
 462.403320312 301.92578125 l 1
 552.9375 251.705078125 l 1
 592.954101562 138.716796875 l 1
 537.12890625 17.9814453125 l 1
 409.41796875 -22.451171875 l 1
 274.392578125 21.51953125 l 1
 222.735351562 145.861328125 l 1
 304 184 l 1x3e
EndSplineSet
EndChar

StartChar: aring
Encoding: 229 229 148
Width: 545
GlyphClass: 2
Flags: MW
HStem: -15 72 0 21G<388 472 388 388> 463 72 605 62 667 135 802 63
VStem: 36 94 190 135 382 90
LayerCount: 2
Fore
SplineSet
269.2421875 860.483398438 m 1x00
 361.190429688 822.094726562 l 1
 399.233398438 730.4921875 l 1
 361.252929688 638.514648438 l 1
 269.2421875 600.500976562 l 1
 177.4921875 638.514648438 l 1
 139.083984375 730.4921875 l 1
 177.6171875 822.094726562 l 1
 269.2421875 860.483398438 l 1x00
269.2421875 662.453125 m 1
 316.915039062 682.206054688 l 1
 336.197265625 730.409179688 l 1
 316.915039062 777.810546875 l 1
 269.2421875 797.447265625 l 1
 221.380859375 777.810546875 l 1
 201.286132812 730.409179688 l 1
 221.380859375 682.206054688 l 1
 269.2421875 662.453125 l 1
382.41015625 348.740234375 m 1x6280
 347.499023438 441.418945312 l 1
 259.971679688 467.018554688 l 1
 178.3046875 439.981445312 l 1
 132.484375 360.962890625 l 1
 61.1103515625 404.840820312 l 1
 129.157226562 506.319335938 l 1
 269.158203125 540.500976562 l 1
 424.775390625 488.110351562 l 1
 472.125 335.448242188 l 1
 472 0 l 1
 388 0 l 1
 388.391601562 60.14453125 l 1
 303.06640625 -2.4677734375 l 1
 209.958984375 -20.56640625 l 1
 83.0498046875 16.38671875 l 1
 29.490234375 134.477539062 l 1
 89.1630859375 258.784179688 l 1
 382.41015625 348.740234375 l 1x6280
382.41015625 269.180664062 m 1
 165.568359375 209.150390625 l 1
 125.424804688 138.475585938 l 1
 156.57421875 70.3935546875 l 1
 224.336914062 52.830078125 l 1
 318.719726562 81.7890625 l 1
 382.357421875 137.5390625 l 1
 382.41015625 269.180664062 l 1
EndSplineSet
EndChar

StartChar: ae
Encoding: 230 230 149
Width: 890
GlyphClass: 2
Flags: HMW
HStem: -15 75 237 72 463 72
VStem: 35 94 371 90 749 96
LayerCount: 2
Fore
SplineSet
112.625 413.090820312 m 1
 149.297851562 476.561523438 l 1
 262.301757812 507.73828125 l 1
 355.87109375 484.692382812 l 1
 402.099609375 411.51171875 l 1
 417.5546875 287.872070312 l 1
 476.182617188 445.783203125 l 1
 612.20703125 503.271484375 l 1
 753.399414062 442.896484375 l 1
 803.325195312 291.118164062 l 1
 799.91796875 274.278320312 l 1
 462.778320312 274.27734375 l 1
 414.8671875 283.541015625 l 1
 418.576171875 193.836914062 l 1
 457.553710938 110.043945312 l 1
 565.607421875 30.451171875 l 1
 615.037109375 21.7001953125 l 1
 730.368164062 57.5185546875 l 1
 775.3671875 123.158203125 l 1
 734.427734375 53.1005859375 l 1
 614.651367188 15.7119140625 l 1
 560.268554688 27.7119140625 l 1
 451.596679688 110.55078125 l 1
 412.852539062 90.6142578125 l 1
 334.224609375 35.9072265625 l 1
 239.907226562 17.1748046875 l 1
 124.065429688 43.2841796875 l 1
 74.78515625 137.518554688 l 1
 124.670898438 235.028320312 l 1
 369.521484375 299.240234375 l 1
 412.8046875 288.719726562 l 1
 399.11328125 406.30859375 l 1
 353.744140625 479.081054688 l 1
 261.565429688 501.783203125 l 1
 152.869140625 471.741210938 l 1
 112.625 413.090820312 l 1
EndSplineSet
EndChar

StartChar: ccedilla
Encoding: 231 231 150
Width: 524
GlyphClass: 2
Flags: HMW
HStem: -200 41 -75 40 -15 75 460 75
VStem: 35 90 293 40
LayerCount: 2
Fore
SplineSet
424.973632812 397.583984375 m 1
 383.092773438 464.534179688 l 1
 273.189453125 501.119140625 l 1
 134.563476562 441.317382812 l 1
 79.3427734375 261.858398438 l 1
 128.38671875 89.912109375 l 1
 251.83203125 24.2138671875 l 1
 273.189453125 22.681640625 l 1
 383.06640625 58.912109375 l 1
 424.923828125 125.388671875 l 1
 387.372070312 54.734375 l 1
 276.165039062 16.3046875 l 1
 246.014648438 -16.92578125 l 1
 238.896484375 -34.556640625 l 1
 247.329101562 -62.4970703125 l 1
 261.83203125 -58.234375 l 1
 301.334960938 -73.259765625 l 1
 316.841796875 -122.581054688 l 1
 301.283203125 -172.178710938 l 1
 261.791992188 -189.328125 l 1
 229.602539062 -178.921875 l 1
 231.408203125 -176.526367188 l 1
 233.211914062 -174.129882812 l 1
 261.791992188 -183.328125 l 1
 296.931640625 -168.047851562 l 1
 310.841796875 -122.586914062 l 1
 296.954101562 -77.359375 l 1
 261.84375 -64.1513671875 l 1
 226.920898438 -79.4755859375 l 1
 224.1171875 -78.41015625 l 1
 221.313476562 -77.34375 l 1
 233.288085938 -32.4248046875 l 1
 240.063476562 -16.171875 l 1
 248.620117188 19.146484375 l 1
 122.818359375 87.6806640625 l 1
 73.34375 261.858398438 l 1
 129.655273438 444.766601562 l 1
 273.189453125 507.119140625 l 1
 387.41015625 468.701171875 l 1
 424.973632812 397.583984375 l 1
EndSplineSet
EndChar

StartChar: icircumflex
Encoding: 238 238 157
Width: 220
GlyphClass: 2
Flags: HMW
HStem: 0 21G<65 155 65 65> 500 20G<65 155 155 155> 740 20G<73 150 150 150>
VStem: 65 90<0 520>
LayerCount: 2
Fore
SplineSet
90.375 733.021484375 m 1
 132.154296875 733.002929688 l 1
 187.322265625 650.381835938 l 1
 128.845703125 727.999023438 l 1
 93.625 727.979492188 l 1
 35.494140625 649.459960938 l 1
 90.375 733.021484375 l 1
110 484.045898438 m 1
 113 260.000976562 l 1
 110 35.8623046875 l 1
 107 260.000976562 l 1
 110 484.045898438 l 1
EndSplineSet
EndChar

StartChar: eth
Encoding: 240 240 158
Width: 553
GlyphClass: 2
Flags: MW
HStem: -15 75 440 75 758 20G<315.917 315.917>
VStem: 36 90 432 85
LayerCount: 2
Fore
SplineSet
346.934570312 686.90625 m 1
 484.071289062 519.528320312 l 1
 521.758789062 278.286132812 l 1
 450.59375 58.21484375 l 1
 273.926757812 -22.615234375 l 1
 106.635742188 46.732421875 l 1
 31.1962890625 247.668945312 l 1
 95.951171875 448.571289062 l 1
 254.534179688 517.954101562 l 1
 354.72265625 494.107421875 l 1
 418.934570312 443.536132812 l 1
 384.01171875 541.725585938 l 1
 307.078125 617.950195312 l 1
 264.970703125 544.908203125 l 1
 201.934570312 580.928710938 l 1
 242.958007812 651.969726562 l 1
 191.482421875 671.169921875 l 1
 139 670 l 1
 138.8984375 744.981445312 l 1
 213.668945312 746.012695312 l 1
 281.897460938 719.966796875 l 1
 315.916992188 778 l 1
 378.953125 741.979492188 l 1
 346.934570312 686.90625 l 1
274.946289062 53.8427734375 m 1
 384.458007812 96.443359375 l 1
 435.09375 247.668945312 l 1
 386.701171875 398.8515625 l 1
 283.196289062 441.41015625 l 1
 170.262695312 398.8515625 l 1
 122.96484375 247.668945312 l 1
 175.610351562 96.443359375 l 1
 274.946289062 53.8427734375 l 1
EndSplineSet
EndChar

StartChar: divide
Encoding: 247 247 165
Width: 556
GlyphClass: 2
Flags: HMW
HStem: 145 100 325 75<70 486 70 486> 480 100
VStem: 232 91
CounterMasks: 1 e0
LayerCount: 2
Fore
SplineSet
106.329101562 362.5 m 1
 278 365.5 l 1
 449.983398438 362.5 l 1
 278 359.5 l 1
 106.329101562 362.5 l 1
266.1640625 560.924804688 m 1
 289.279296875 560.924804688 l 1
 305.859375 542.700195312 l 1
 305.819335938 517.275390625 l 1
 289.5546875 499.474609375 l 1
 266.439453125 499.475585938 l 1
 250.012695312 517.34765625 l 1
 250.024414062 542.75 l 1
 266.1640625 560.924804688 l 1
266.143554688 225.673828125 m 1
 289.258789062 225.673828125 l 1
 305.838867188 207.44921875 l 1
 305.798828125 182.024414062 l 1
 289.53515625 164.223632812 l 1
 266.418945312 164.224609375 l 1
 249.993164062 182.096679688 l 1
 250.00390625 207.499023438 l 1
 266.143554688 225.673828125 l 1
EndSplineSet
EndChar

StartChar: oslash
Encoding: 248 248 166
Width: 556
GlyphClass: 2
Flags: MW
HStem: -15 75 460 75
VStem: 35 90 431 90
LayerCount: 2
Fore
SplineSet
473.001953125 436.026367188 m 1
 513.217773438 359.728515625 l 1
 525.8046875 260.008789062 l 1
 456.936523438 53.9697265625 l 1
 277.97265625 -20.482421875 l 1
 197.14453125 -8.6181640625 l 1
 133.056640625 30.04296875 l 1
 94.951171875 -14.982421875 l 1
 37.91796875 33.9619140625 l 1
 81.0263671875 84.9912109375 l 1
 42.1640625 160.798828125 l 1
 30.140625 260.008789062 l 1
 99.0087890625 466.047851562 l 1
 277.97265625 540.5 l 1
 357.05859375 528.762695312 l 1
 420.971679688 490.974609375 l 1
 457.993164062 535 l 1
 515.025390625 485.971679688 l 1
 473.001953125 436.026367188 l 1
140.977539062 158.033203125 m 1
 368.024414062 428.021484375 l 1
 326.1953125 456.131835938 l 1
 277.97265625 464.041015625 l 1
 169.73828125 416.336914062 l 1
 121.908203125 260.008789062 l 1
 126.24609375 202.609375 l 1
 140.977539062 158.033203125 l 1
412.966796875 364.944335938 m 1
 185.002929688 92.99609375 l 1
 227.87890625 64.013671875 l 1
 277.97265625 55.9345703125 l 1
 386.208007812 103.594726562 l 1
 434.038085938 259.880859375 l 1
 429.0625 318.887695312 l 1
 412.966796875 364.944335938 l 1
EndSplineSet
EndChar

StartChar: thorn
Encoding: 254 254 172
Width: 550
GlyphClass: 2
Flags: MW
HStem: -200 21G<65 65 65 155> -15 75 460 60 460 75
VStem: 65 79 425 90
LayerCount: 2
Fore
SplineSet
65 -200 m 1xdc
 65 520 l 1
 145 520 l 1
 145 449 l 1
 206.607421875 518.111328125 l 1
 294.734375 542.349609375 l 1
 463.715820312 464.071289062 l 1
 522.41015625 261.859375 l 1
 463.715820312 59.6474609375 l 1
 294.734375 -18.6318359375 l 1
 211.407226562 2.1455078125 l 1
 155 55 l 1
 155 -200 l 1
 65 -200 l 1xdc
289.631835938 57.8271484375 m 1
 390.244140625 109.315429688 l 1
 430.387695312 261.774414062 l 1
 390.244140625 414.275390625 l 1
 289.631835938 465.806640625 l 1
 190.327148438 414.275390625 l 1
 143.772460938 261.774414062 l 1
 186.499023438 109.315429688 l 1
 289.631835938 57.8271484375 l 1
EndSplineSet
EndChar

StartChar: Abreve
Encoding: 258 258 174
Width: 675
GlyphClass: 2
Flags: MW
HStem: 0 21G 175 85<205 466 205 497 173 466> 700 20G<290 387 387 387> 753 81 753 167
LayerCount: 2
Fore
SplineSet
510.280273438 895.149414062 m 1xe0
 476.583007812 803.994140625 l 1
 340.918945312 751.348632812 l 1
 207.37109375 804.376953125 l 1
 175.719726562 895.149414062 l 1
 236.904296875 921.701171875 l 1
 264.842773438 858.680664062 l 1
 343.196289062 834.62890625 l 1
 419.163085938 858.680664062 l 1
 449.100585938 921.701171875 l 1
 510.280273438 895.149414062 l 1xe0
167 159 m 1
 104 -8 l 1
 19 24 l 1
 290 720 l 1
 387 720 l 1
 656 23.8330078125 l 1
 565 -8 l 1
 504 156 l 1
 497 175 l 1
 173 175 l 1
 167 159 l 1
466 260 m 1
 338 611 l 1
 205 260 l 1
 466 260 l 1
EndSplineSet
EndChar

StartChar: abreve
Encoding: 259 259 175
Width: 545
GlyphClass: 2
Flags: MW
HStem: -15 72 0 21G<388 472 388 388> 463 72 573 71 573 147
VStem: 35 94 381 50 381 90
LayerCount: 2
Fore
SplineSet
423.700195312 698.009765625 m 1x24
 397.780273438 613.965820312 l 1
 285.111328125 571.526367188 l 1
 174.452148438 614.381835938 l 1
 148.299804688 698.009765625 l 1
 201.509765625 721.466796875 l 1
 226.94921875 663.548828125 l 1
 286.73828125 644.430664062 l 1
 345.401367188 663.548828125 l 1
 372.711914062 721.466796875 l 1
 423.700195312 698.009765625 l 1x24
83.0498046875 16.38671875 m 1
 29.490234375 134.477539062 l 1
 89.1630859375 258.784179688 l 1
 382.41015625 348.740234375 l 1
 382.41015625 348.740234375 l 1
 347.499023438 441.418945312 l 1
 259.971679688 467.018554688 l 1
 178.3046875 439.981445312 l 1
 132.484375 360.962890625 l 1
 61.1103515625 404.840820312 l 1
 129.157226562 506.319335938 l 1
 269.158203125 540.500976562 l 1
 424.775390625 488.110351562 l 1
 472.125 335.448242188 l 1
 472 0 l 1
 388 0 l 1x64
 388.391601562 60.14453125 l 1
 303.06640625 -2.4677734375 l 1
 209.958984375 -20.56640625 l 1
 83.0498046875 16.38671875 l 1
382.41015625 269.180664062 m 1
 165.568359375 209.150390625 l 1
 125.424804688 138.475585938 l 1
 156.57421875 70.3935546875 l 1
 224.336914062 52.830078125 l 1
 318.719726562 81.7890625 l 1
 382.357421875 137.5390625 l 1
 382.41015625 269.180664062 l 1
EndSplineSet
EndChar

StartChar: Aogonek
Encoding: 260 260 176
Width: 675
GlyphClass: 2
Flags: MW
HStem: -204 65 0 21G 175 85 700 20G
VStem: 490 66
LayerCount: 2
Fore
SplineSet
386.994140625 719.997070312 m 1
 662 7 l 1
 580.643554688 -20.3173828125 l 1
 555.521484375 -74.205078125 l 1
 574.158203125 -122.350585938 l 1
 615.99609375 -138.927734375 l 1
 662.924804688 -116.874023438 l 1
 678 -97 l 1
 720.102539062 -136.078125 l 1
 681.0390625 -183.016601562 l 1
 606.346679688 -205.078125 l 1
 525.796875 -177.037109375 l 1
 488.163085938 -88.578125 l 1
 510.998046875 -22.8779296875 l 1
 558.009765625 10.005859375 l 1
 497.057617188 175.017578125 l 1
 173.038085938 175.017578125 l 1
 104 -8 l 1
 19 24.181640625 l 1
 289.938476562 719.997070312 l 1
 386.994140625 719.997070312 l 1
204.973632812 259.982421875 m 1
 466.040039062 259.982421875 l 1
 338.049804688 611.017578125 l 1
 204.973632812 259.982421875 l 1
EndSplineSet
EndChar

StartChar: aogonek
Encoding: 261 261 177
Width: 544
GlyphClass: 2
Flags: MW
HStem: -204 65 -15 72 0 57 463 72
VStem: 35 94 320 66 381 90
LayerCount: 2
Fore
SplineSet
83.8349609375 18.25 m 1x98
 30.2431640625 136.340820312 l 1
 89.958984375 260.647460938 l 1
 241.916015625 308.19921875 l 1
 359.09375 328.823242188 l 1
 383.110351562 344.455078125 l 1
 365.477539062 400.0859375 l 1
 348.326171875 443.282226562 l 1
 260.725585938 468.881835938 l 1
 179.08984375 441.844726562 l 1
 133.237304688 362.826171875 l 1
 63 406 l 1
 129.920898438 508.182617188 l 1
 269.911132812 542.36328125 l 1
 425.603515625 489.973632812 l 1
 470.989257812 332.140625 l 1
 471.573242188 100.607421875 l 1
 484.012695312 34.4609375 l 1
 503.534179688 -3.3095703125 l 1
 453.708007812 -9.603515625 l 1
 413.3828125 -22.8203125 l 1
 388.29296875 -79.7685546875 l 1
 404.728515625 -126.970703125 l 1
 448.331054688 -144.626953125 l 1
 487.379882812 -132.336914062 l 1
 502 -107 l 1
 550.112304688 -136.078125 l 1
 514.326171875 -188.418945312 l 1
 441.278320312 -211.423828125 l 1
 358.557617188 -182.6015625 l 1
 320.934570312 -94.142578125 l 1
 345.088867188 -23.6025390625 l 1
 403.686523438 13.955078125 l 1
 389.3984375 61.837890625 l 1
 302.078125 -0.9453125 l 1
 210.713867188 -18.703125 l 1
 83.8349609375 18.25 l 1x98
383.196289062 264.848632812 m 1
 166.396484375 211.012695312 l 1
 126.263671875 140.337890625 l 1
 157.370117188 72.255859375 l 1
 226.84765625 55.2294921875 l 1
 320.8984375 84.861328125 l 1
 383.196289062 139.40234375 l 1
 383.196289062 264.848632812 l 1
EndSplineSet
EndChar

StartChar: Cdotaccent
Encoding: 266 266 181
Width: 734
GlyphClass: 2
Flags: MW
HStem: -15 80 655 80 813.949 100
VStem: 50 100 337.485 91
LayerCount: 2
Fore
SplineSet
406.625976562 802.499023438 m 1
 360.395507812 802.5 l 1
 327.54296875 838.245117188 l 1
 327.565429688 889.048828125 l 1
 359.844726562 925.399414062 l 1
 406.075195312 925.3984375 l 1
 439.235351562 888.94921875 l 1
 439.155273438 838.099609375 l 1
 406.625976562 802.499023438 l 1
383.485351562 59.046875 m 1
 517.767578125 106.080078125 l 1
 591.513671875 230.420898438 l 1
 674.16015625 184.560546875 l 1
 587.443359375 42.625 l 1
 383.485351562 -22.513671875 l 1
 129.475585938 89.5546875 l 1
 43.7998046875 359.950195312 l 1
 129.475585938 630.415039062 l 1
 383.485351562 742.5 l 1
 587.889648438 678.381835938 l 1
 676.200195312 531.360351562 l 1
 591.513671875 488.543945312 l 1
 524.592773438 613.012695312 l 1
 383.485351562 660.9375 l 1
 207.25390625 574.3671875 l 1
 145.7734375 360.03515625 l 1
 203.39453125 145.627929688 l 1
 383.485351562 59.046875 l 1
EndSplineSet
EndChar

StartChar: cdotaccent
Encoding: 267 267 182
Width: 524
GlyphClass: 2
Flags: MW
HStem: -15 75 460 75 611.949 100
VStem: 35 90 227.385 91
LayerCount: 2
Fore
SplineSet
296.525390625 600.499023438 m 1
 250.294921875 600.5 l 1
 217.442382812 636.245117188 l 1
 217.46484375 687.048828125 l 1
 249.744140625 723.399414062 l 1
 295.974609375 723.3984375 l 1
 329.134765625 686.94921875 l 1
 329.0546875 636.099609375 l 1
 296.525390625 600.499023438 l 1
273.384765625 55.9765625 m 1
 355.116210938 84.2548828125 l 1
 404.955078125 175.299804688 l 1
 481.41015625 134.540039062 l 1
 415.639648438 25.5205078125 l 1
 273.384765625 -20.482421875 l 1
 96.833984375 53.9697265625 l 1
 30.5703125 260.008789062 l 1
 96.8974609375 466.047851562 l 1
 273.384765625 540.5 l 1
 415.639648438 493.944335938 l 1
 482.4296875 382.399414062 l 1
 404.955078125 343.612304688 l 1
 355.1796875 435.591796875 l 1
 273.384765625 464.041015625 l 1
 167.66796875 416.336914062 l 1
 122.422851562 260.008789062 l 1
 167.66796875 103.680664062 l 1
 273.384765625 55.9765625 l 1
EndSplineSet
EndChar

StartChar: dcaron
Encoding: 271 271 186
Width: 550
GlyphClass: 2
Flags: MW
HStem: -15 75 460 75 700 20G<395 485 485 485>
VStem: 35 90 406 79 550 100 601 49
LayerCount: 2
Fore
SplineSet
485 720 m 1x3c
 485 0 l 1
 405 0 l 1
 405 71 l 1
 343.4765625 1.533203125 l 1
 255.264648438 -22.705078125 l 1
 86.3994140625 55.5732421875 l 1
 27.7587890625 257.78515625 l 1
 86.3994140625 459.998046875 l 1
 255.264648438 538.27734375 l 1
 338.625 517.46484375 l 1
 395 465.920898438 l 1
 395 720 l 1
 485 720 l 1x3c
260.452148438 461.818359375 m 1
 159.796875 410.287109375 l 1
 119.611328125 257.78515625 l 1
 159.796875 105.327148438 l 1
 260.452148438 53.8388671875 l 1
 359.7578125 105.327148438 l 1
 406.311523438 257.78515625 l 1
 363.584960938 410.287109375 l 1
 260.452148438 461.818359375 l 1
578.3046875 721.97265625 m 1xe0
 619.724609375 721.974609375 l 1
 649 692.6953125 l 1
 649 651.27734375 l 1
 649 622 l 1
 628.625 533.365234375 l 1
 572 484 l 1
 543.10546875 518.0234375 l 1
 584.755859375 551.626953125 l 1
 600.138671875 621.998046875 l 1
 600.138671875 621.998046875 l 1
 578.30078125 621.998046875 l 1
 549.025390625 651.28125 l 1
 549.025390625 692.69921875 l 1
 578.3046875 721.97265625 l 1xe0
EndSplineSet
EndChar

StartChar: dcroat
Encoding: 273 273 188
Width: 550
GlyphClass: 2
Flags: MW
HStem: -15 75 0 60 460 75 577 66<320 395 320 395 485 550> 700 20G<395 485 485 485>
VStem: 35 90 406 79
LayerCount: 2
Fore
SplineSet
260.452148438 461.818359375 m 1x3e
 159.796875 410.287109375 l 1
 119.611328125 257.78515625 l 1
 159.796875 105.327148438 l 1
 260.452148438 53.8388671875 l 1
 359.7578125 105.327148438 l 1
 406.311523438 257.78515625 l 1
 363.584960938 410.287109375 l 1
 260.452148438 461.818359375 l 1x3e
485 577 m 1
 485 0 l 1
 405 0 l 1x7e
 405 71 l 1
 343.4765625 1.533203125 l 1
 255.264648438 -22.705078125 l 1
 86.3994140625 55.5732421875 l 1
 27.7587890625 257.78515625 l 1
 86.3994140625 459.998046875 l 1
 255.264648438 538.27734375 l 1
 338.625 517.46484375 l 1
 395 465.920898438 l 1
 395 577 l 1
 320 577 l 1
 320 643 l 1
 395 643 l 1
 395 720 l 1
 485 720 l 1
 485 643 l 1
 550 643 l 1
 550 577 l 1
 485 577 l 1
EndSplineSet
EndChar

StartChar: Eogonek
Encoding: 280 280 189
Width: 657
GlyphClass: 2
Flags: MW
HStem: -204 65 0 85 325 85 635 85
VStem: 80 95 410 66
LayerCount: 2
Fore
SplineSet
80.0419921875 -0.1240234375 m 1
 80.0419921875 720.03125 l 1
 576.994140625 720.03125 l 1
 576.994140625 634.982421875 l 1
 175.096679688 634.982421875 l 1
 175.096679688 410.01953125 l 1
 527.131835938 410.01953125 l 1
 527.131835938 324.970703125 l 1
 175.096679688 324.970703125 l 1
 175.096679688 85 l 1
 587 85 l 1
 587 -0.048828125 l 1
 534.568359375 -6.26953125 l 1
 497.0390625 -23.287109375 l 1
 476.006835938 -76.4677734375 l 1
 493.771484375 -122.462890625 l 1
 537.807617188 -138.596679688 l 1
 607.424804688 -105.91796875 l 1
 639.947265625 -136.119140625 l 1
 600.974609375 -183.14453125 l 1
 526.26953125 -205.317382812 l 1
 445.556640625 -177.216796875 l 1
 407.921875 -88.7578125 l 1
 424.88671875 -33.0595703125 l 1
 463.845703125 -0.1240234375 l 1
 80.0419921875 -0.1240234375 l 1
EndSplineSet
EndChar

StartChar: eogonek
Encoding: 281 281 190
Width: 544
GlyphClass: 2
Flags: MW
HStem: -204 65 -15 75 237 72 460 75
VStem: 35 90 270 66 413 96
LayerCount: 2
Fore
SplineSet
124.944335938 237.383789062 m 1
 174.487304688 100.733398438 l 1
 278.06640625 58.2607421875 l 1
 365.379882812 87.5947265625 l 1
 419.841796875 176.563476562 l 1
 495.377929688 136.427734375 l 1
 460.479492188 67.4296875 l 1
 350.681640625 -28.01953125 l 1
 336.946289062 -80.4248046875 l 1
 354.817382812 -127.573242188 l 1
 397.536132812 -144.862304688 l 1
 436.168945312 -133.78515625 l 1
 462.1640625 -102.927734375 l 1
 507.068359375 -142.28515625 l 1
 465.020507812 -189.50390625 l 1
 390.4765625 -212.987304688 l 1
 306.1015625 -183.587890625 l 1
 267.724609375 -93.359375 l 1
 279.071289062 -45.3515625 l 1
 302.73046875 -16.3271484375 l 1
 258.286132812 -12.330078125 l 1
 96.625 55.8623046875 l 1
 30.4033203125 261.901367188 l 1
 96.6884765625 467.940429688 l 1
 273.133789062 542.392578125 l 1
 453.532226562 465.006835938 l 1
 513.805664062 270.3125 l 1
 508 237 l 1
 124.9453125 237.833984375 l 1
 124.944335938 237.383789062 l 1
127.946289062 309.42578125 m 1
 412.943359375 309.42578125 l 1
 374.947265625 422.958984375 l 1
 272.962890625 466.325195312 l 1
 181.375976562 429.848632812 l 1
 127.946289062 309.42578125 l 1
EndSplineSet
EndChar

StartChar: Lcaron
Encoding: 317 317 195
Width: 608
GlyphClass: 2
Flags: MW
HStem: 0 85<175 578 175 578> 700 20G<80 175 175 175> 950 20G
VStem: 80 95<85 720 85 720 85 720>
LayerCount: 2
Fore
SplineSet
325.173828125 640.5234375 m 1
 302.8984375 640.5234375 l 1
 273.038085938 670.392578125 l 1
 273.038085938 712.638671875 l 1
 302.903320312 742.5 l 1
 345.151367188 742.5 l 1
 375.01171875 712.634765625 l 1
 375.01171875 670.388671875 l 1
 375.01171875 640.525390625 l 1
 354.229492188 550.118164062 l 1
 294.05859375 498.078125 l 1
 267 534.469726562 l 1
 309.483398438 568.745117188 l 1
 325.173828125 640.5234375 l 1
578 0 m 1
 80 0 l 1
 80 720 l 1
 175 720 l 1
 175 85 l 1
 578 85 l 1
 578 0 l 1
EndSplineSet
EndChar

StartChar: lcaron
Encoding: 318 318 196
Width: 320
GlyphClass: 2
Flags: MW
HStem: 0 21G<65 155 65 65> 700 20G
VStem: 65 90<0 735> 220 100 271 49
LayerCount: 2
Fore
SplineSet
249.3046875 720.27734375 m 1xe0
 290.724609375 720.279296875 l 1
 320 691 l 1
 320 649.58203125 l 1
 320 620.3046875 l 1
 299.625 531.669921875 l 1
 241 481 l 1
 214.10546875 516.328125 l 1
 255.755859375 549.931640625 l 1
 271.138671875 620.302734375 l 1
 271.138671875 620.302734375 l 1
 249.30078125 620.302734375 l 1
 220.025390625 649.5859375 l 1
 220.025390625 691.00390625 l 1
 249.3046875 720.27734375 l 1xe0
155 0 m 1xe8
 65 0 l 1
 65 735 l 1
 155 735 l 1
 155 0 l 1xe8
EndSplineSet
EndChar

StartChar: Lslash
Encoding: 321 321 197
Width: 668
GlyphClass: 2
Flags: MW
HStem: 0 85<235 638 235 638> 700 20G<140 235 235 235>
VStem: 140 95<85 333 333 333 480 720>
LayerCount: 2
Fore
SplineSet
638 0 m 1
 140 0 l 1
 140 333 l 1
 58 282 l 1
 20 347 l 1
 140 421 l 1
 140 720 l 1
 235 720 l 1
 235 480 l 1
 322 535 l 1
 360 470 l 1
 235 392 l 1
 235 85 l 1
 638 85 l 1
 638 0 l 1
EndSplineSet
EndChar

StartChar: lslash
Encoding: 322 322 198
Width: 380
GlyphClass: 2
Flags: MW
HStem: 0 21G<147 237 147 147> 715 20G<147 237 237 237>
VStem: 147 90<0 337 337 337 482 735>
LayerCount: 2
Fore
SplineSet
237 0 m 1
 147 0 l 1
 147 337 l 1
 58 282 l 1
 20 347 l 1
 147 426 l 1
 147 735 l 1
 237 735 l 1
 237 482 l 1
 322 535 l 1
 360 470 l 1
 237 393 l 1
 237 0 l 1
EndSplineSet
EndChar

StartChar: Ohungarumlaut
Encoding: 336 336 203
Width: 785
GlyphClass: 2
Flags: MW
HStem: -15 80 655 80 970 20G
VStem: 50 100 635 100
LayerCount: 2
Fore
SplineSet
499 927.5 m 1
 442 790 l 1
 492 762 l 1
 573 884 l 1
 499 927.5 l 1
285 927.5 m 1
 228 790 l 1
 278 762 l 1
 359 884 l 1
 285 927.5 l 1
392.956054688 742.5 m 1
 651.184570312 630.415039062 l 1
 741.911132812 359.950195312 l 1
 651.184570312 89.5625 l 1
 392.956054688 -22.513671875 l 1
 133.885742188 89.5625 l 1
 43.1494140625 359.950195312 l 1
 133.916992188 630.415039062 l 1
 392.956054688 742.5 l 1
392.956054688 59.1328125 m 1
 573.322265625 145.703125 l 1
 639.766601562 360.03515625 l 1
 573.322265625 574.3671875 l 1
 392.956054688 660.9375 l 1
 211.588867188 574.3671875 l 1
 145.038085938 360.03515625 l 1
 207.793945312 145.703125 l 1
 392.956054688 59.1328125 l 1
EndSplineSet
EndChar

StartChar: ohungarumlaut
Encoding: 337 337 204
Width: 556
GlyphClass: 2
Flags: MW
HStem: -15 75 460 75 603 187
VStem: 35 90 431 90
LayerCount: 2
Fore
SplineSet
277.971679688 540.5 m 1
 457.07421875 466.047851562 l 1
 525.889648438 260.008789062 l 1
 457.010742188 54.00390625 l 1
 277.971679688 -20.482421875 l 1
 98.9765625 53.9697265625 l 1
 30.1396484375 260.008789062 l 1
 98.9443359375 466.047851562 l 1
 277.971679688 540.5 l 1
277.971679688 55.9765625 m 1
 386.282226562 103.637695312 l 1
 434.12109375 259.923828125 l 1
 386.282226562 416.251953125 l 1
 277.971679688 463.956054688 l 1
 169.780273438 416.251953125 l 1
 121.9921875 259.923828125 l 1
 169.747070312 103.637695312 l 1
 277.971679688 55.9765625 l 1
408.209960938 829.103515625 m 1
 319.349609375 615.931640625 l 1
 369.349609375 587.931640625 l 1
 497.969726562 782.090820312 l 1
 408.209960938 829.103515625 l 1
223.209960938 829.103515625 m 1
 134.349609375 615.931640625 l 1
 184.349609375 587.931640625 l 1
 312.969726562 782.090820312 l 1
 223.209960938 829.103515625 l 1
EndSplineSet
EndChar

StartChar: OE
Encoding: 338 338 205
Width: 1031
GlyphClass: 2
Flags: HMW
HStem: 0 85 325 85 635 85
VStem: 50 98 484 95
LayerCount: 2
Fore
SplineSet
99.0703125 362.502929688 m 1
 179.41796875 601.736328125 l 1
 406.038085938 677.475585938 l 1
 579.052734375 680.475585938 l 1
 915.436523438 677.475585938 l 1
 531.913085938 674.475585938 l 1
 531.568359375 634.951171875 l 1
 531.568359375 409.98828125 l 1
 531.86328125 370.463867188 l 1
 865.408203125 367.463867188 l 1
 531.86328125 364.463867188 l 1
 531.568359375 324.939453125 l 1
 531.568359375 84.4677734375 l 1
 531.913085938 45.4443359375 l 1
 925.271484375 42.4443359375 l 1
 579.052734375 39.4443359375 l 1
 484.083007812 41.943359375 l 1
 399.076171875 41.943359375 l 1
 172.576171875 124.983398438 l 1
 99.0703125 362.502929688 l 1
EndSplineSet
EndChar

StartChar: oe
Encoding: 339 339 206
Width: 940
GlyphClass: 2
Flags: HMW
HStem: -15 75 237 72 460 75
VStem: 35 90 431 90 809 96
LayerCount: 2
Fore
SplineSet
72.1865234375 259.924804688 m 1
 130.53515625 441.129882812 l 1
 274.133789062 502.228515625 l 1
 420.2734375 442.799804688 l 1
 452.654296875 338.509765625 l 1
 476.848632812 269.600585938 l 1
 545.366210938 452.967773438 l 1
 672.97265625 502.271484375 l 1
 814.20703125 441.896484375 l 1
 864.448242188 292.009765625 l 1
 860.703125 273.278320312 l 1
 523.498046875 273.278320312 l 1
 479.819335938 267.026367188 l 1
 499.482421875 172.51953125 l 1
 525.3046875 98.7265625 l 1
 566.25390625 56.4931640625 l 1
 675.630859375 20.7001953125 l 1
 791.334960938 56.5341796875 l 1
 836.522460938 123.077148438 l 1
 795.364257812 52.087890625 l 1
 675.239257812 14.712890625 l 1
 565.127929688 50.5986328125 l 1
 521.689453125 100.778320312 l 1
 497.5 166.856445312 l 1
 476.848632812 263.600585938 l 1
 427.629882812 103.006835938 l 1
 416.161132812 76.779296875 l 1
 274.133789062 17.7060546875 l 1
 130.502929688 78.76171875 l 1
 72.1865234375 259.924804688 l 1
EndSplineSet
EndChar

StartChar: Tcommaaccent
Encoding: 354 354 215
Width: 619
GlyphClass: 2
Flags: MW
HStem: -342 21G -100 100 635 85<20 262 20 599 357 357 357 599>
VStem: 262 95<0 635> 311 46
LayerCount: 2
Fore
SplineSet
288.891601562 -100.134765625 m 1xe0
 331.139648438 -100.134765625 l 1
 361 -130 l 1
 361 -202.109375 l 1
 340.217773438 -292.516601562 l 1
 280 -345 l 1
 252.98828125 -308.165039062 l 1
 295.471679688 -273.889648438 l 1
 311.162109375 -202.111328125 l 1
 288.88671875 -202.111328125 l 1
 259.026367188 -172.2421875 l 1
 259.026367188 -129.99609375 l 1
 288.891601562 -100.134765625 l 1xe0
357 0 m 1xf0
 262 0 l 1
 262 635 l 1
 20 635 l 1
 20 720 l 1
 599 720 l 1
 599 635 l 1
 357 635 l 1
 357 0 l 1xf0
EndSplineSet
EndChar

StartChar: tcommaaccent
Encoding: 355 355 216
Width: 322
GlyphClass: 2
Flags: MW
HStem: -342 21G -100 90 -10 80 451 69<20 94 20 94 184 273> 680 20G<94 184 184 184>
VStem: 2.97363 100 53.9736 49
LayerCount: 2
Fore
SplineSet
217.001953125 -16.5859375 m 1x98
 114.528320312 26.4404296875 l 1
 94 152 l 1
 94 451 l 1
 20 451 l 1
 20 520 l 1
 94 520 l 1
 94 700 l 1
 184 700 l 1
 184 520 l 1
 273 520 l 1
 273 451 l 1
 184 451 l 1
 184 152 l 1
 191.75390625 86.5361328125 l 1
 235.118164062 64.5673828125 l 1
 275.420898438 70.60546875 l 1
 285.801757812 -6.9580078125 l 1
 217.001953125 -16.5859375 l 1x98
158.865234375 -100.134765625 m 1
 201.11328125 -100.134765625 l 1
 230.973632812 -130 l 1
 230.973632812 -202.109375 l 1
 210.19140625 -292.516601562 l 1
 150 -345 l 1
 122.961914062 -308.165039062 l 1
 165.4453125 -273.889648438 l 1
 181.135742188 -202.111328125 l 1
 158.860351562 -202.111328125 l 1
 129 -172.2421875 l 1
 129 -129.99609375 l 1
 158.865234375 -100.134765625 l 1
EndSplineSet
EndChar

StartChar: tcaron
Encoding: 357 357 218
Width: 322
GlyphClass: 2
Flags: MW
HStem: -10 80 451 69<20 94 20 94 184 273> 700 20G
VStem: 94 90<152 451 152 451 520 700> 320 100 371 49
LayerCount: 2
Fore
SplineSet
371.173828125 618.0234375 m 1x00
 348.8984375 618.0234375 l 1
 319.038085938 647.892578125 l 1
 319.038085938 690.138671875 l 1
 348.903320312 720 l 1
 391.151367188 720 l 1
 421.01171875 690.134765625 l 1
 421.01171875 647.888671875 l 1
 421.01171875 618.025390625 l 1
 400.229492188 527.618164062 l 1
 340.05859375 475.578125 l 1
 313 511.969726562 l 1
 355.483398438 546.245117188 l 1
 371.173828125 618.0234375 l 1x00
285.784179688 -6.974609375 m 1xc0
 217.001953125 -16.5859375 l 1
 114.528320312 26.4404296875 l 1
 94 152 l 1
 94 451 l 1
 20 451 l 1
 20 520 l 1
 94 520 l 1
 94 700 l 1
 184 700 l 1
 184 520 l 1
 273 520 l 1
 273 451 l 1
 184 451 l 1
 184 152 l 1
 191.75390625 86.5361328125 l 1
 235.118164062 64.5673828125 l 1
 275.420898438 70.60546875 l 1
 285.801757812 -6.9580078125 l 1
 285.784179688 -6.974609375 l 1xc0
EndSplineSet
EndChar

StartChar: Uring
Encoding: 366 366 219
Width: 723
GlyphClass: 2
Flags: MW
HStem: -15 85 700 20G 775 62 837 135 972 63
VStem: 80 95 293 135 548 95
LayerCount: 2
Fore
SplineSet
361.122070312 1038.08203125 m 1x00
 454.909179688 998.92578125 l 1
 493.713867188 905.491210938 l 1
 454.973632812 811.673828125 l 1
 361.122070312 772.900390625 l 1
 267.537109375 811.673828125 l 1
 228.361328125 905.491210938 l 1
 267.665039062 998.92578125 l 1
 361.122070312 1038.08203125 l 1x00
361.122070312 836.090820312 m 1
 409.749023438 856.239257812 l 1
 429.416992188 905.40625 l 1
 409.749023438 953.755859375 l 1
 361.122070312 973.78515625 l 1
 312.303710938 953.755859375 l 1
 291.807617188 905.40625 l 1
 312.303710938 856.239257812 l 1
 361.122070312 836.090820312 l 1
642.704101562 720.349609375 m 1xc5
 642.704101562 301 l 1
 580.728515625 68.5537109375 l 1
 362.08984375 -22.35546875 l 1
 143.630859375 68.5537109375 l 1
 79.369140625 302.888671875 l 1
 79.369140625 720.349609375 l 1
 175.325195312 720.349609375 l 1
 175.325195312 295.897460938 l 1
 216.34765625 127.322265625 l 1
 363.110351562 64.3095703125 l 1
 508.405273438 127.288085938 l 1
 548.833007812 297.78515625 l 1
 548.662109375 720.349609375 l 1
 642.704101562 720.349609375 l 1xc5
EndSplineSet
EndChar

StartChar: uring
Encoding: 367 367 220
Width: 555
GlyphClass: 2
Flags: MW
HStem: -15 76 0 61 500 20G<62 152 152 152 401.477 491.477 491.477 491.477> 605 62 667 135 802 63
VStem: 65 90 211 135 400 90
LayerCount: 2
Fore
SplineSet
278.823242188 867.08203125 m 1x00
 372.610351562 827.92578125 l 1
 411.4140625 734.491210938 l 1
 372.674804688 640.673828125 l 1
 278.823242188 601.900390625 l 1
 185.23828125 640.673828125 l 1
 146.0625 734.491210938 l 1
 185.366210938 827.92578125 l 1
 278.823242188 867.08203125 l 1x00
278.823242188 665.090820312 m 1
 327.450195312 685.239257812 l 1
 347.1171875 734.40625 l 1
 327.450195312 782.755859375 l 1
 278.823242188 802.78515625 l 1
 230.004882812 782.755859375 l 1
 209.5078125 734.40625 l 1
 230.004882812 685.239257812 l 1
 278.823242188 665.090820312 l 1
491.4765625 520 m 1x20
 491.4765625 0 l 1
 410.4765625 0 l 1
 410.4765625 75 l 1
 339.522460938 3.7451171875 l 1
 242.323242188 -20.3232421875 l 1
 95.9541015625 42.3916015625 l 1
 62 202 l 1
 62 520 l 1
 152 520 l 1
 152 202.673828125 l 1
 176.458984375 96.1845703125 l 1
 260.806640625 57.15625 l 1
 362.4921875 103.329101562 l 1
 401.4765625 238.088867188 l 1
 401.4765625 520 l 1
 491.4765625 520 l 1x20
EndSplineSet
EndChar

StartChar: Uhungarumlaut
Encoding: 368 368 221
Width: 723
GlyphClass: 2
Flags: MW
HStem: -15 85 700 20G 970 20G
VStem: 80 95 548 95
LayerCount: 2
Fore
SplineSet
499 927.5 m 1
 442 790 l 1
 492 762 l 1
 573 884 l 1
 499 927.5 l 1
285 927.5 m 1
 228 790 l 1
 278 762 l 1
 359 884 l 1
 285 927.5 l 1
548.663085938 720.349609375 m 1
 642.704101562 720.349609375 l 1
 642.704101562 301 l 1
 580.728515625 68.5537109375 l 1
 362.08984375 -22.35546875 l 1
 143.630859375 68.5537109375 l 1
 79.369140625 302.888671875 l 1
 79.369140625 720.349609375 l 1
 175.325195312 720.349609375 l 1
 175.325195312 295.897460938 l 1
 216.34765625 127.322265625 l 1
 363.110351562 64.3095703125 l 1
 508.405273438 127.288085938 l 1
 548.833007812 297.78515625 l 1
 548.662109375 720.349609375 l 1
 548.663085938 720.349609375 l 1
EndSplineSet
EndChar

StartChar: uhungarumlaut
Encoding: 369 369 222
Width: 555
GlyphClass: 2
Flags: MW
HStem: -15 76 0 61 500 20G<62 152 152 152 401.477 491.477 491.477 491.477> 603 187
VStem: 65 90 400 90
LayerCount: 2
Fore
SplineSet
491.4765625 520 m 1x38
 491.4765625 0 l 1
 410.4765625 0 l 1
 410.4765625 75 l 1
 339.522460938 3.7451171875 l 1
 242.323242188 -20.3232421875 l 1
 95.9541015625 42.3916015625 l 1
 62 202 l 1
 62 520 l 1
 152 520 l 1
 152 202.673828125 l 1
 176.458984375 96.1845703125 l 1
 260.806640625 57.15625 l 1
 362.4921875 103.329101562 l 1
 401.4765625 238.088867188 l 1
 401.4765625 520 l 1
 491.4765625 520 l 1x38
408.209960938 829.103515625 m 1
 319.349609375 615.931640625 l 1
 369.349609375 587.931640625 l 1
 497.969726562 782.090820312 l 1
 408.209960938 829.103515625 l 1
223.209960938 829.103515625 m 1
 134.349609375 615.931640625 l 1
 184.349609375 587.931640625 l 1
 312.969726562 782.090820312 l 1
 223.209960938 829.103515625 l 1
EndSplineSet
EndChar

StartChar: Zdotaccent
Encoding: 379 379 226
Width: 672
GlyphClass: 2
Flags: MW
HStem: 0 85<169 612 60 60> 635 85<80 488 80 602 80 602> 800 100
VStem: 293 91
LayerCount: 2
Fore
SplineSet
364.236328125 802.5 m 1
 318.005859375 802.500976562 l 1
 285.153320312 838.24609375 l 1
 285.17578125 889.049804688 l 1
 317.455078125 925.400390625 l 1
 363.685546875 925.399414062 l 1
 396.845703125 888.950195312 l 1
 396.765625 838.100585938 l 1
 364.236328125 802.5 l 1
612 0 m 1
 60 0 l 1
 60 85 l 1
 488 635 l 1
 80 635 l 1
 80 720 l 1
 602 720 l 1
 602 635 l 1
 169 85 l 1
 612 85 l 1
 612 0 l 1
EndSplineSet
EndChar

StartChar: zdotaccent
Encoding: 380 380 227
Width: 499
GlyphClass: 2
Flags: MW
HStem: 0 75<141 459 40 40> 445 75<59 347 59 453 59 453> 619 101
VStem: 204 90
LayerCount: 2
Fore
SplineSet
279.236328125 600.5 m 1
 233.005859375 600.500976562 l 1
 200.153320312 636.24609375 l 1
 200.17578125 687.049804688 l 1
 232.455078125 723.400390625 l 1
 278.685546875 723.399414062 l 1
 311.845703125 686.950195312 l 1
 311.765625 636.100585938 l 1
 279.236328125 600.5 l 1
459 0 m 1
 40 0 l 1
 40 75 l 1
 347 445 l 1
 59 445 l 1
 59 520 l 1
 453 520 l 1
 453 445 l 1
 141 75 l 1
 459 75 l 1
 459 0 l 1
EndSplineSet
EndChar

StartChar: Scommaaccent
Encoding: 536 536 230
Width: 665
GlyphClass: 2
Flags: MW
HStem: -342 21G -100 85 -15 80 655 80
VStem: 50 94 77 92 300 100 351 49 513 102
LayerCount: 2
Fore
SplineSet
354.40234375 -184.40625 m 1x00
 332.126953125 -184.40625 l 1
 302.266601562 -154.537109375 l 1
 302.266601562 -112.291015625 l 1
 332.131835938 -82.4296875 l 1
 374.379882812 -82.4296875 l 1
 404.240234375 -112.294921875 l 1
 404.240234375 -154.541015625 l 1
 404.240234375 -184.404296875 l 1
 383.458007812 -274.811523438 l 1
 323.287109375 -326.8515625 l 1
 296.228515625 -290.459960938 l 1
 338.711914062 -256.184570312 l 1
 354.40234375 -184.40625 l 1x00
139.908203125 235.608398438 m 1x3880
 202.823242188 103.391601562 l 1
 345.982421875 59.1318359375 l 1
 470.9609375 95.4814453125 l 1
 516.334960938 190.702148438 l 1
 495.990234375 255.067382812 l 1
 432.200195312 299.87109375 l 1
 222.576171875 359.014648438 l 1
 97.8408203125 436.791015625 l 1
 71.7841796875 534.469726562 l 1
 151.463867188 690.8828125 l 1
 323.698242188 742.499023438 l 1
 518.237304688 687.18359375 l 1
 584.828125 542.579101562 l 1
 500.345703125 509.9765625 l 1
 451.623046875 620.666992188 l 1
 327.952148438 660.9375 l 1
 218.228515625 632.879882812 l 1
 165.848632812 540.592773438 l 1
 182.791992188 488.73046875 l 1
 233.49609375 454.141601562 l 1
 440.130859375 392.608398438 l 1
 570.595703125 324.82421875 l 1
 620.689453125 195.805664062 l 1
 534.099609375 30.4619140625 l 1
 350.234375 -22.4296875 l 1
 132.232421875 40.1572265625 l 1
 56.46875 199.859375 l 1
 139.908203125 235.608398438 l 1x3880
EndSplineSet
EndChar

StartChar: scommaaccent
Encoding: 537 537 231
Width: 493
GlyphClass: 2
Flags: MW
HStem: -342 21G -100 85 460 75
VStem: 40 86 202 100 253 49 368 90
LayerCount: 2
Fore
SplineSet
252.104492188 -182.627929688 m 1x00
 229.829101562 -182.627929688 l 1
 199.96875 -152.758789062 l 1
 199.96875 -110.512695312 l 1
 229.833984375 -80.6513671875 l 1
 272.08203125 -80.6513671875 l 1
 301.942382812 -110.516601562 l 1
 301.942382812 -152.762695312 l 1
 301.942382812 -182.625976562 l 1
 281.16015625 -273.033203125 l 1
 220.989257812 -325.073242188 l 1
 193.930664062 -288.681640625 l 1
 236.4140625 -254.40625 l 1
 252.104492188 -182.627929688 l 1x00
119.426757812 161.098632812 m 1x32
 155.391601562 87.53125 l 1
 250.997070312 56.0634765625 l 1
 330.146484375 72.12890625 l 1
 370.321289062 132.522460938 l 1
 354.36328125 180.668945312 l 1
 294 211 l 1
 165.859375 244.896484375 l 1
 75.626953125 287.94140625 l 1
 35.6533203125 383.416992188 l 1
 97.2607421875 503.674804688 l 1
 240.706054688 540.501953125 l 1
 385.502929688 498.061523438 l 1
 429.541015625 410.961914062 l 1
 353.822265625 375.251953125 l 1
 318.791992188 441.419921875 l 1
 237.283203125 463.650390625 l 1
 152.447265625 444.821289062 l 1
 123.508789062 393.537109375 l 1
 145.602539062 352 l 1
 213 325 l 1
 334.2265625 292.227539062 l 1
 421.828125 247.21875 l 1
 462.258789062 140.516601562 l 1
 394.931640625 15.9541015625 l 1
 247.936523438 -20.6513671875 l 1
 93.8798828125 23.3193359375 l 1
 42.9609375 125.361328125 l 1
 119.426757812 161.098632812 l 1x32
EndSplineSet
EndChar

StartChar: afii10051
Encoding: 1026 1026 233
Width: 757
GlyphClass: 2
Flags: MW
HStem: -15 79 0 21G<262 357.222 262 262> 389 76 635 85
VStem: 262 95 602 90
LayerCount: 2
Fore
SplineSet
551.009765625 68.1552734375 m 1x7c
 593.227539062 94.0185546875 l 1
 603.178710938 210.654296875 l 1
 596.366210938 275.079101562 l 1
 578.440429688 353.22265625 l 1
 494.061523438 392.250976562 l 1
 393.885742188 348.247070312 l 1
 357.221679688 218.966796875 l 1
 357.221679688 0 l 1
 262 0 l 1
 262 635.03125 l 1
 20.111328125 635.03125 l 1
 20.111328125 720.080078125 l 1
 599.110351562 720.080078125 l 1
 599.110351562 635.03125 l 1
 357.221679688 635.03125 l 1
 357.221679688 379.05078125 l 1
 418.561523438 448.290039062 l 1
 512.602539062 469.900390625 l 1
 658.940429688 407.142578125 l 1
 695.1171875 245.473632812 l 1
 692.922851562 156.01953125 l 1
 665.56640625 32.5712890625 l 1
 550.282226562 -19.7255859375 l 1
 485.298828125 -4.919921875 l 1
 502.975585938 70.0400390625 l 1
 551.009765625 68.1552734375 l 1x7c
EndSplineSet
EndChar

StartChar: afii10053
Encoding: 1028 1028 235
Width: 734
GlyphClass: 2
Flags: MW
HStem: -15 80 325 85 655 80
VStem: 50 101
LayerCount: 2
Fore
SplineSet
459.037109375 324.897460938 m 1
 151.110351562 324.897460938 l 1
 211.544921875 134.23046875 l 1
 383.397460938 59.0126953125 l 1
 517.7109375 106.045898438 l 1
 591.426757812 230.38671875 l 1
 672 181 l 1
 587.35546875 42.5908203125 l 1
 383.397460938 -22.5478515625 l 1
 129.431640625 89.5205078125 l 1
 43.796875 359.916015625 l 1
 129.431640625 630.380859375 l 1
 383.397460938 742.465820312 l 1
 587.801757812 678.34765625 l 1
 674 536 l 1
 591.426757812 488.509765625 l 1
 524.50390625 612.978515625 l 1
 383.397460938 660.904296875 l 1
 219.69921875 590.279296875 l 1
 152.02734375 410.029296875 l 1
 459.037109375 410.029296875 l 1
 459.037109375 324.897460938 l 1
EndSplineSet
EndChar

StartChar: afii10058
Encoding: 1033 1033 240
Width: 1072
GlyphClass: 2
Flags: MW
HStem: -15 100 0 85 345 85 635 85
VStem: 16 230 151 95 515 95 924 98
LayerCount: 2
Fore
SplineSet
19 0 m 1x73
 39 84 l 1
 65.4521484375 75.037109375 l 1
 119.75 105.365234375 l 1
 144.673828125 184.572265625 l 1
 151.111328125 290.80859375 l 1
 150.874023438 719.997070312 l 1
 609.887695312 719.997070312 l 1
 609.887695312 429.997070312 l 1
 752.885742188 429.997070312 l 1
 954.6953125 378.169921875 l 1
 1023.52148438 211.07421875 l 1
 937.685546875 40.3291015625 l 1
 745.048828125 0 l 1
 515 0 l 1
 515 635.03125 l 1
 245.928710938 635.03125 l 1
 247.137695312 294.694335938 l 1
 238.069335938 141.9453125 l 1
 191.770507812 27.4365234375 l 1
 87.9892578125 -16.900390625 l 1
 19 0 l 1x73
609.887695312 84.9658203125 m 1
 752.885742188 84.9658203125 l 1
 872.55859375 106.96484375 l 1
 923.418945312 214.049804688 l 1
 880.447265625 314.119140625 l 1
 754.970703125 344.948242188 l 1
 610.053710938 344.948242188 l 1
 609.887695312 84.9658203125 l 1
EndSplineSet
EndChar

StartChar: afii10059
Encoding: 1034 1034 241
Width: 1064
GlyphClass: 2
Flags: MW
HStem: 0 85 325 85 345 85 700 20G
VStem: 80 95 507 95 916 98
LayerCount: 2
Fore
SplineSet
601.828125 430.004882812 m 1x9e
 746.987304688 433.041015625 l 1
 948.015625 378.06640625 l 1
 1016.79882812 210.970703125 l 1
 930.99609375 40.2265625 l 1
 729.454101562 -4.287109375 l 1
 507.0234375 0 l 1
 507.0234375 325.01953125 l 1
 175 325.01953125 l 1
 175 0 l 1
 79.9453125 0 l 1
 79.9453125 719.99609375 l 1
 174.916992188 719.99609375 l 1
 174.916992188 409.985351562 l 1
 506.940429688 409.985351562 l 1
 506.940429688 719.99609375 l 1
 601.828125 719.99609375 l 1
 601.828125 430.004882812 l 1x9e
601.828125 84.9736328125 m 1
 747.06640625 83.3212890625 l 1
 865.921875 106.870117188 l 1
 916.782226562 213.956054688 l 1
 873.842773438 314.024414062 l 1
 739.66015625 347.567382812 l 1
 601.912109375 344.956054688 l 1
 601.828125 84.9736328125 l 1
EndSplineSet
EndChar

StartChar: afii10060
Encoding: 1035 1035 242
Width: 757
GlyphClass: 2
Flags: MW
HStem: 0 21G 389 76 635 85
VStem: 262 95 602 90
LayerCount: 2
Fore
SplineSet
261.973632812 635 m 1
 20.0009765625 635 l 1
 20.0009765625 720.048828125 l 1
 599 720.048828125 l 1
 599 635 l 1
 357.028320312 635 l 1
 357.028320312 379.01953125 l 1
 418.795898438 444.641601562 l 1
 512.76171875 466.260742188 l 1
 659.130859375 403.502929688 l 1
 691.970703125 245.092773438 l 1
 691.970703125 0.0517578125 l 1
 602.001953125 0.0517578125 l 1
 601.584960938 246.943359375 l 1
 578.721679688 349.666992188 l 1
 494.965820312 389.025390625 l 1
 394.14453125 344.692382812 l 1
 357.052734375 219.043945312 l 1
 357.052734375 0.0517578125 l 1
 261.998046875 0.0517578125 l 1
 261.973632812 635 l 1
EndSplineSet
EndChar

StartChar: afii10062
Encoding: 1038 1038 245
Width: 675
GlyphClass: 2
Flags: MW
HStem: -15 84 700 20G 753 81 753 167
LayerCount: 2
Fore
SplineSet
29 685 m 1xc0
 107 728 l 1
 343.966796875 295.005859375 l 1
 544.830078125 728 l 1
 624 686 l 1
 368.575195312 153.032226562 l 1
 303.7265625 34.5185546875 l 1
 183.264648438 -16.33203125 l 1
 116.465820312 3.3828125 l 1
 86.708984375 28.0107421875 l 1
 119.754882812 97.0166015625 l 1
 170.557617188 72.53515625 l 1
 226.903320312 83.9072265625 l 1
 256.861328125 118.921875 l 1
 297.7734375 195.990234375 l 1
 29 685 l 1xc0
501.280273438 895.149414062 m 1
 467.583007812 803.994140625 l 1
 331.918945312 751.348632812 l 1
 198.37109375 804.376953125 l 1
 166.719726562 895.149414062 l 1
 227.904296875 921.701171875 l 1
 255.842773438 858.680664062 l 1
 334.196289062 834.62890625 l 1
 410.163085938 858.680664062 l 1
 440.100585938 921.701171875 l 1
 501.280273438 895.149414062 l 1
EndSplineSet
EndChar

StartChar: afii10145
Encoding: 1039 1039 246
Width: 712
GlyphClass: 2
Flags: MW
HStem: -199 21G<309 404 309 309> 0 85<175 309 404 537 175 632 404 404> 700 20G<80 175 175 175 537 632 632 632>
VStem: 80 95<85 720 85 720 85 720> 309 95<-199 0 -199 0> 537 95<85 720 0 720>
LayerCount: 2
Fore
SplineSet
537 720 m 1
 632 720 l 1
 632 0 l 1
 404 0 l 1
 404 -199 l 1
 309 -199 l 1
 309 0 l 1
 80 0 l 1
 80 720 l 1
 175 720 l 1
 175 85 l 1
 537 85 l 1
 537 720 l 1
EndSplineSet
EndChar

StartChar: afii10018
Encoding: 1041 1041 248
Width: 657
GlyphClass: 2
Flags: MW
HStem: 0 85 345 85 635 85
VStem: 80 95 509 98
LayerCount: 2
Fore
SplineSet
562.860351562 719.99609375 m 1
 562.860351562 635.314453125 l 1
 174.887695312 635.314453125 l 1
 174.887695312 430.36328125 l 1
 336.877929688 430.387695312 l 1
 540.833984375 377.622070312 l 1
 609.66015625 210.526367188 l 1
 523.823242188 39.783203125 l 1
 328.192382812 0 l 1
 80 0 l 1
 80 719.99609375 l 1
 562.860351562 719.99609375 l 1
174.720703125 85.33203125 m 1
 341.149414062 86.166015625 l 1
 458.602539062 106.9375 l 1
 509.471679688 214.022460938 l 1
 466.490234375 314.08984375 l 1
 335.2578125 344.633789062 l 1
 174.720703125 345.456054688 l 1
 174.720703125 85.33203125 l 1
EndSplineSet
EndChar

StartChar: afii10020
Encoding: 1043 1043 250
Width: 553
GlyphClass: 2
Flags: MW
HStem: 0 21G<80 80 80 175> 635 85<175 533 175 175>
VStem: 80 95<0 635 0 720 0 720>
LayerCount: 2
Fore
SplineSet
80 0 m 1
 80 720 l 1
 533 720 l 1
 533 635 l 1
 175 635 l 1
 175 0 l 1
 80 0 l 1
EndSplineSet
EndChar

StartChar: afii10021
Encoding: 1044 1044 251
Width: 742
GlyphClass: 2
Flags: MW
HStem: -199 21G<105 105 607.039 607.039> 0 84 635 85
VStem: 10 95 162 95 531 95 607 95
LayerCount: 2
Fore
SplineSet
531.047851562 82.6953125 m 1xf8
 531.043945312 633.678710938 l 1
 257.158203125 633.686523438 l 1
 257.141601562 271.770507812 l 1
 159.133789062 82.7119140625 l 1
 531.047851562 82.6953125 l 1xf8
161.8671875 294.850585938 m 1
 162.034179688 719.986328125 l 1
 626.21875 719.986328125 l 1
 626.219726562 83.9462890625 l 1
 701.791015625 82.4453125 l 1
 701.7109375 -200.500976562 l 1
 607.0390625 -199 l 1
 607.04296875 0.0224609375 l 1
 105.004882812 0.0224609375 l 1
 105 -199 l 1
 9.951171875 -199.0078125 l 1
 9.9482421875 82.6787109375 l 1
 51.7958984375 82.6787109375 l 1
 161.8671875 294.850585938 l 1
EndSplineSet
EndChar

StartChar: afii10024
Encoding: 1046 1046 253
Width: 1025
GlyphClass: 2
Flags: MW
HStem: 0 21G<465.028 465.028> 325 85<402 404> 633 87
VStem: 465 95
LayerCount: 2
Fore
SplineSet
693.831054688 460.53125 m 1
 836.345703125 695.766601562 l 1
 894 719 l 1
 950 720 l 1
 962.03515625 632.963867188 l 1
 900.274414062 625.125976562 l 1
 868.454101562 593.2578125 l 1
 763.844726562 412.6875 l 1
 702.333007812 368 l 1
 794 332 l 1
 964 39 l 1
 872 -8 l 1
 712 296 l 1
 622 325 l 1
 559.666015625 324.8203125 l 1
 560 0.05859375 l 1
 465.028320312 0 l 1
 465.028320312 325.020507812 l 1
 404 325 l 1
 314 296 l 1
 154 -8 l 1
 62 39 l 1
 232 332 l 1
 323.666992188 368 l 1
 262.155273438 412.6875 l 1
 157.545898438 593.2578125 l 1
 125.725585938 625.125976562 l 1
 63.96484375 632.963867188 l 1
 76 720 l 1
 132 719 l 1
 189.654296875 695.766601562 l 1
 332.168945312 460.53125 l 1
 402 410 l 1
 464.862304688 410.002929688 l 1
 464.862304688 720.013671875 l 1
 559.833007812 720.013671875 l 1
 559.833007812 410.002929688 l 1
 624 410 l 1
 693.831054688 460.53125 l 1
EndSplineSet
EndChar

StartChar: afii10025
Encoding: 1047 1047 254
Width: 630
GlyphClass: 2
Flags: MW
HStem: -15 80 325 85 655 80
VStem: 453 94 483 97
LayerCount: 2
Fore
SplineSet
254.833007812 409.791015625 m 1xe0
 331.603515625 410.624023438 l 1
 421.463867188 446.041015625 l 1
 454.749023438 532.331054688 l 1
 407.17578125 628.317382812 l 1
 306.849609375 660.83984375 l 1
 194.797851562 619.38671875 l 1
 148.938476562 506.938476562 l 1
 68 540 l 1
 135.487304688 683.768554688 l 1
 308.0390625 742.401367188 l 1
 477.9140625 690.275390625 l 1
 550.76953125 536.413085938 l 1
 521.311523438 436.055664062 l 1
 443.692382812 376.266601562 l 1
 548.483398438 313.890625 l 1
 584.448242188 201.831054688 l 1
 501.005859375 31.1298828125 l 1
 315.18359375 -22.52734375 l 1
 132.690429688 29.6416015625 l 1
 48 187 l 1
 126.842773438 226.026367188 l 1
 187.28125 101.083007812 l 1
 315.18359375 59.119140625 l 1
 429.373046875 88.5458984375 l 1
 485.452148438 202.9375 l 1
 432.275390625 302.622070312 l 1
 324.498046875 325 l 1
 255 325 l 1
 254.833007812 409.791015625 l 1xe0
EndSplineSet
EndChar

StartChar: afii10026
Encoding: 1048 1048 255
Width: 724
GlyphClass: 2
Flags: MW
HStem: 0 21G<80 185 80 80 547 547 547 642> 700 20G<80 175 175 175 537 642 642 642>
VStem: 80 95<145 720 145 720 145 720> 547 95<0 580 580 580>
LayerCount: 2
Fore
SplineSet
185 0 m 1
 80 0 l 1
 80 720 l 1
 175 720 l 1
 175 145 l 1
 537 720 l 1
 642 720 l 1
 642 0 l 1
 547 0 l 1
 547 580 l 1
 185 0 l 1
EndSplineSet
EndChar

StartChar: afii10027
Encoding: 1049 1049 256
Width: 722
GlyphClass: 2
Flags: MW
HStem: 0 21G<80 185 80 80 547 547 547 642> 700 20G<80 175 175 175 537 642 642 642> 753 81 753 167
VStem: 80 95<145 720 145 720 145 720> 547 95<0 580 580 580>
LayerCount: 2
Fore
SplineSet
530.280273438 895.149414062 m 1xcc
 496.583007812 803.994140625 l 1
 360.918945312 751.348632812 l 1
 227.37109375 804.376953125 l 1
 195.719726562 895.149414062 l 1
 256.904296875 921.701171875 l 1
 284.842773438 858.680664062 l 1
 363.196289062 834.62890625 l 1
 439.163085938 858.680664062 l 1
 469.100585938 921.701171875 l 1
 530.280273438 895.149414062 l 1xcc
185 0 m 1
 80 0 l 1
 80 720 l 1
 175 720 l 1
 175 145 l 1
 537 720 l 1
 642 720 l 1
 642 0 l 1
 547 0 l 1
 547 580 l 1
 185 0 l 1
EndSplineSet
EndChar

StartChar: afii10029
Encoding: 1051 1051 258
Width: 1072
GlyphClass: 2
Flags: MW
HStem: -15 90 0 21G<14.5 14.5 540.945 540.945 540.945 636> 635 85
VStem: 12 230 147 95 541 95
LayerCount: 2
Fore
SplineSet
241.428710938 635.03125 m 1x64
 242.637695312 294.694335938 l 1
 233.569335938 141.9453125 l 1
 187.270507812 27.4365234375 l 1
 83.4892578125 -16.900390625 l 1
 14.5 0 l 1
 34.5 84 l 1
 60.9521484375 75.037109375 l 1
 115.25 105.365234375 l 1
 140.173828125 184.572265625 l 1
 146.611328125 290.80859375 l 1
 146.374023438 719.997070312 l 1
 636 719.997070312 l 1
 636 0 l 1
 540.9453125 0 l 1
 540.9453125 635.03125 l 1
 241.428710938 635.03125 l 1x64
EndSplineSet
EndChar

StartChar: afii10033
Encoding: 1055 1055 262
Width: 712
GlyphClass: 2
Flags: MW
HStem: 0 21G<80 175 80 80 537 537 537 632> 635 85<175 537 175 175>
VStem: 80 95<0 635> 537 95<0 635 635 635>
LayerCount: 2
Fore
SplineSet
175 0 m 1
 80 0 l 1
 80 720 l 1
 632 720 l 1
 632 0 l 1
 537 0 l 1
 537 635 l 1
 175 635 l 1
 175 0 l 1
EndSplineSet
EndChar

StartChar: afii10037
Encoding: 1059 1059 266
Width: 675
GlyphClass: 2
Flags: MW
HStem: -15 84 700 20G
LayerCount: 2
Fore
SplineSet
107.5 728.090820312 m 1
 343.966796875 295.006835938 l 1
 544.75 728.090820312 l 1
 625.75 690 l 1
 369.043945312 153.8671875 l 1
 303.569335938 33.943359375 l 1
 183.213867188 -16.9072265625 l 1
 130.288085938 -6.47265625 l 1
 85.7353515625 25.9765625 l 1
 133 90 l 1
 165.048828125 73.3115234375 l 1
 200.072265625 74.4169921875 l 1
 236.979492188 89.267578125 l 1
 289.625976562 177.15625 l 1
 291.244140625 207.880859375 l 1
 29.25 685 l 1
 107.5 728.090820312 l 1
EndSplineSet
EndChar

StartChar: afii10038
Encoding: 1060 1060 267
Width: 821
GlyphClass: 2
Flags: MW
HStem: -15 21G<362.945 362.945 362.945 458> 85 80 555 80 715 20G
VStem: 40 100 363 95 681 100
CounterMasks: 1 0e
LayerCount: 2
Fore
SplineSet
362.9453125 -15 m 1
 362.9453125 84.9736328125 l 1
 126.484375 146.279296875 l 1
 32.515625 359.971679688 l 1
 126.484375 572.934570312 l 1
 362.9453125 634.95703125 l 1
 362.9453125 734.930664062 l 1
 458 734.930664062 l 1
 458 634.95703125 l 1
 694.494140625 572.901367188 l 1
 788.430664062 359.971679688 l 1
 688.924804688 150.461914062 l 1
 458 84.9736328125 l 1
 458 -15 l 1
 362.9453125 -15 l 1
362.9453125 165.01953125 m 1
 362.9453125 554.994140625 l 1
 206.940429688 516.810546875 l 1
 134.489257812 359.971679688 l 1
 203.846679688 202.79296875 l 1
 362.9453125 165.01953125 l 1
457.916992188 554.994140625 m 1
 457.916992188 165.01953125 l 1
 613.580078125 202.79296875 l 1
 686.456054688 359.971679688 l 1
 616.993164062 516.810546875 l 1
 457.916992188 554.994140625 l 1
EndSplineSet
EndChar

StartChar: afii10040
Encoding: 1062 1062 269
Width: 738
GlyphClass: 2
Flags: MW
HStem: -199 21G<603 698 603 603> 0 85<175 527 175 603> 700 20G<80 175 175 175 527 622 622 622>
VStem: 80 95<85 720 85 720 85 720> 527 95<85 720 84 720> 603 95<-199 0 0 0>
LayerCount: 2
Fore
SplineSet
527 720 m 1xf8
 622 720 l 1
 622 84 l 1
 698 84 l 1
 698 -199 l 1
 603 -199 l 1
 603 0 l 1
 80 0 l 1xf8
 80 720 l 1
 175 720 l 1
 175 85 l 1
 527 85 l 1xf4
 527 720 l 1xf8
EndSplineSet
EndChar

StartChar: afii10041
Encoding: 1063 1063 270
Width: 656
GlyphClass: 2
Flags: MW
HStem: 0 21G<480.861 480.861 480.861 575.996> 251 82 700 20G
VStem: 40 95 481 95
LayerCount: 2
Fore
SplineSet
480.861328125 0 m 1
 480.861328125 299.004882812 l 1
 374.833984375 257.661132812 l 1
 277.385742188 248.7734375 l 1
 87.3251953125 327.12109375 l 1
 36.3486328125 539.581054688 l 1
 39.8583984375 719.997070312 l 1
 134.99609375 719.997070312 l 1
 134.036132812 543.33203125 l 1
 161.696289062 389.971679688 l 1
 292.51171875 331.678710938 l 1
 394.333984375 343.296875 l 1
 480.858398438 377.967773438 l 1
 480.858398438 719.997070312 l 1
 575.99609375 719.997070312 l 1
 575.99609375 0 l 1
 480.861328125 0 l 1
EndSplineSet
EndChar

StartChar: afii10042
Encoding: 1064 1064 271
Width: 929
GlyphClass: 2
Flags: MW
HStem: 0 85<175 417 512 754> 700 20G<80 175 175 175 417 512 512 512 754 849 849 849>
VStem: 80 95<85 720 85 720 85 720> 417 95<85 720 85 720> 754 95<85 720 0 720>
CounterMasks: 1 38
LayerCount: 2
Fore
SplineSet
754 720 m 1
 849 720 l 1
 849 0 l 1
 80 0 l 1
 80 720 l 1
 175 720 l 1
 175 85 l 1
 417 85 l 1
 417 720 l 1
 512 720 l 1
 512 85 l 1
 754 85 l 1
 754 720 l 1
EndSplineSet
EndChar

StartChar: afii10043
Encoding: 1065 1065 272
Width: 965
GlyphClass: 2
Flags: MW
HStem: -199 21G<830 925 830 830> 0 85<175 417 512 754> 700 20G<80 175 175 175 417 512 512 512 754 849 849 849>
VStem: 80 95<85 720 85 720 85 720> 417 95<85 720 85 720> 754 95<85 720 84 720> 830 95<-199 0 0 0>
LayerCount: 2
Fore
SplineSet
849 720 m 1xfa
 849 84 l 1
 925 84 l 1
 925 -199 l 1
 830 -199 l 1
 830 0 l 1
 80 0 l 1
 80 720 l 1
 175 720 l 1
 175 85 l 1
 417 85 l 1
 417 720 l 1
 512 720 l 1xfc
 512 85 l 1
 754 85 l 1
 754 720 l 1
 849 720 l 1xfa
EndSplineSet
EndChar

StartChar: afii10044
Encoding: 1066 1066 273
Width: 747
GlyphClass: 2
Flags: MW
HStem: 0 85 345 85 635 85
VStem: 180 95 599 98
LayerCount: 2
Fore
SplineSet
429.724609375 429.440429688 m 1
 629.658203125 378.137695312 l 1
 698.451171875 211.04296875 l 1
 612.647460938 40.2978515625 l 1
 418.002929688 -0.03125 l 1
 180.008789062 -0.03125 l 1
 180.008789062 635 l 1
 20 635 l 1
 20 720.048828125 l 1
 274.979492188 720.048828125 l 1
 274.813476562 429.965820312 l 1
 429.724609375 429.440429688 l 1
274.813476562 85.2421875 m 1
 431.6953125 86.076171875 l 1
 547.563476562 107.31640625 l 1
 598.434570312 214.401367188 l 1
 555.462890625 314.469726562 l 1
 426.032226562 345.291992188 l 1
 274.979492188 345.291992188 l 1
 274.813476562 85.3095703125 l 1
 274.813476562 85.2421875 l 1
EndSplineSet
EndChar

StartChar: afii10045
Encoding: 1067 1067 274
Width: 885
GlyphClass: 2
Flags: MW
HStem: 0 85 345 85 700 20G
VStem: 45.9336 95 474.934 98 675.934 95
LayerCount: 2
Fore
SplineSet
174.887695312 430.2890625 m 1
 339.869140625 429.455078125 l 1
 539.666015625 378.169921875 l 1
 608.44921875 211.07421875 l 1
 522.64453125 40.330078125 l 1
 327.93359375 0 l 1
 80 0 l 1
 80 719.997070312 l 1
 174.887695312 719.997070312 l 1
 174.887695312 430.2890625 l 1
174.887695312 85.2578125 m 1
 341.907226562 86.091796875 l 1
 457.571289062 107.305664062 l 1
 508.430664062 214.390625 l 1
 465.459960938 314.458984375 l 1
 335.895507812 345.282226562 l 1
 174.971679688 345.282226562 l 1
 174.887695312 85.2998046875 l 1
 174.887695312 85.2578125 l 1
709.9453125 0.2919921875 m 1
 709.9453125 720.2890625 l 1
 804.916015625 720.2890625 l 1
 804.916015625 0.2919921875 l 1
 709.9453125 0.2919921875 l 1
EndSplineSet
EndChar

StartChar: afii10046
Encoding: 1068 1068 275
Width: 657
GlyphClass: 2
Flags: MW
HStem: 0 85 345 85 700 20G
VStem: 79 95 508 98
LayerCount: 2
Fore
SplineSet
174.887695312 719.99609375 m 1
 174.887695312 430.36328125 l 1
 339.619140625 429.529296875 l 1
 539.706054688 378.168945312 l 1
 608.532226562 211.073242188 l 1
 522.728515625 40.3291015625 l 1
 328.275390625 0 l 1
 80 0 l 1
 80 719.99609375 l 1
 174.887695312 719.99609375 l 1
174.887695312 85.33203125 m 1
 341.399414062 86.166015625 l 1
 457.64453125 107.484375 l 1
 508.514648438 214.569335938 l 1
 465.51171875 314.63671875 l 1
 338.28125 345.456054688 l 1
 175.0546875 345.456054688 l 1
 174.887695312 85.4736328125 l 1
 174.887695312 85.33203125 l 1
EndSplineSet
EndChar

StartChar: afii10047
Encoding: 1069 1069 276
Width: 734
GlyphClass: 2
Flags: MW
HStem: -15 80 325 85 655 80
VStem: 583 101
LayerCount: 2
Fore
SplineSet
274.759765625 324.897460938 m 1
 274.759765625 410.029296875 l 1
 581.76953125 410.029296875 l 1
 514.09765625 590.279296875 l 1
 350.399414062 660.904296875 l 1
 209.29296875 612.978515625 l 1
 142.370117188 488.509765625 l 1
 59.796875 536 l 1
 145.995117188 678.34765625 l 1
 350.399414062 742.465820312 l 1
 604.365234375 630.380859375 l 1
 690 359.916015625 l 1
 604.365234375 89.5205078125 l 1
 350.399414062 -22.5478515625 l 1
 146.44140625 42.5908203125 l 1
 61.796875 181 l 1
 142.370117188 230.38671875 l 1
 216.0859375 106.045898438 l 1
 350.399414062 59.0126953125 l 1
 522.251953125 134.23046875 l 1
 582.686523438 324.897460938 l 1
 274.759765625 324.897460938 l 1
EndSplineSet
EndChar

StartChar: afii10048
Encoding: 1070 1070 277
Width: 1025
GlyphClass: 2
Flags: MW
HStem: -15 80 0 21G<175 175> 325 85 655 80 700 20G
VStem: 80 95 321 99 875 100
LayerCount: 2
Fore
SplineSet
79.9453125 0.083984375 m 1x67
 79.9453125 720.081054688 l 1
 175 720.081054688 l 1
 175 410.069335938 l 1
 322.083984375 410.069335938 l 1
 414.00390625 646.791992188 l 1
 647.080078125 742.505859375 l 1
 893.817382812 630.420898438 l 1
 980.641601562 359.956054688 l 1
 893.817382812 89.568359375 l 1
 647.080078125 -22.5078125 l 1
 409.559570312 77.8408203125 l 1
 321 325.020507812 l 1
 175 325.020507812 l 1
 175 0 l 1
 79.9453125 0.083984375 l 1x67
646.995117188 59.2236328125 m 1
 815.997070312 145.794921875 l 1
 878.66796875 360.126953125 l 1
 815.997070312 574.458007812 l 1
 646.995117188 661.029296875 l 1
 477.2265625 574.458007812 l 1
 414.556640625 360.126953125 l 1
 473.400390625 145.794921875 l 1
 646.995117188 59.2236328125 l 1
EndSplineSet
EndChar

StartChar: afii10049
Encoding: 1071 1071 278
Width: 683
GlyphClass: 2
Flags: MW
HStem: 0 21G<510 605 605 605> 290 85 635 85
VStem: 80 98 512 95
LayerCount: 2
Fore
SplineSet
510 375.352539062 m 1
 341.6875 375.352539062 l 1
 212.349609375 408.896484375 l 1
 169.377929688 508.96484375 l 1
 220.23828125 613.049804688 l 1
 344 641 l 1
 510 641 l 1
 510 375.352539062 l 1
605 0 m 1
 605 720 l 1
 351 720 l 1
 155.25 682.685546875 l 1
 69.4462890625 511.94140625 l 1
 138.197265625 344.811523438 l 1
 206 327 l 1
 40 38 l 1
 128 -8 l 1
 302 302 l 1
 349 290 l 1
 510 290 l 1
 510 0 l 1
 605 0 l 1
EndSplineSet
EndChar

StartChar: afii10066
Encoding: 1073 1073 280
Width: 558
GlyphClass: 2
Flags: MW
HStem: -15 75 445 75 520 91 710 20G
VStem: 35 92 433 90
LayerCount: 2
Fore
SplineSet
490.131835938 646.576171875 m 1x9c
 418.690429688 626.20703125 l 1
 288.140625 616.000976562 l 1
 206.25 592.254882812 l 1
 154.912109375 544.602539062 l 1
 115.83203125 427.27734375 l 1
 197.467773438 502.724609375 l 1
 300.473632812 523.126953125 l 1
 465.446289062 452.12109375 l 1
 527.979492188 254.883789062 l 1
 457.962890625 51.140625 l 1
 280.145507812 -22.5458984375 l 1
 102.426757812 50.1201171875 l 1
 30.2724609375 298.76953125 l 1
 69.5341796875 547.766601562 l 1
 143.833984375 651.78125 l 1
 276.999023438 702.750976562 l 1
 428.982421875 716.018554688 l 1
 467 727 l 1
 490.131835938 646.576171875 l 1x9c
280.061523438 53.9560546875 m 1
 387.532226562 98.0458984375 l 1
 436.125976562 250.758789062 l 1
 387.532226562 403.004882812 l 1
 280.061523438 446.625976562 l 1
 176.38671875 403.004882812 l 1
 123.99609375 250.758789062 l 1
 172.559570312 98.0458984375 l 1
 280.061523438 53.9560546875 l 1
EndSplineSet
EndChar

StartChar: afii10067
Encoding: 1074 1074 281
Width: 520
GlyphClass: 2
Flags: MW
HStem: 0 75 225 75 445 75
VStem: 65 90 369 92 392 92
LayerCount: 2
Fore
SplineSet
65.0546875 519.71484375 m 1xf0
 268.39453125 519.71484375 l 1
 396.302734375 498.19921875 l 1
 462.247070312 383.33203125 l 1
 444.307617188 316.627929688 l 1
 380.930664062 270.131835938 l 1
 462.301757812 220.548828125 l 1
 485.635742188 142.643554688 l 1
 425.251953125 27.3935546875 l 1
 288.764648438 0 l 1
 65.0546875 0 l 1
 65.0546875 519.71484375 l 1xf0
266.69921875 300.588867188 m 1
 323.36328125 311.354492188 l 1
 368.353515625 374.9375 l 1
 327.508789062 438.009765625 l 1
 233.059570312 444.696289062 l 1
 155.106445312 444.696289062 l 1
 155.106445312 299.780273438 l 1
 266.69921875 300.588867188 l 1
155.106445312 74.708984375 m 1
 267.720703125 75.54296875 l 1
 349.452148438 81.2548828125 l 1
 391.828125 146.572265625 l 1
 353.587890625 212.876953125 l 1
 266.567382812 224.895507812 l 1
 155.2734375 224.895507812 l 1
 155.106445312 74.8095703125 l 1
 155.106445312 74.708984375 l 1
EndSplineSet
EndChar

StartChar: afii10068
Encoding: 1075 1075 282
Width: 421
GlyphClass: 2
Flags: MW
HStem: 0 21G<65 65 65 153> 445 75<153 401 153 153>
VStem: 65 88<0 445 0 520 0 520>
LayerCount: 2
Fore
SplineSet
65 0 m 1
 65 520 l 1
 401 520 l 1
 401 445 l 1
 153 445 l 1
 153 0 l 1
 65 0 l 1
EndSplineSet
EndChar

StartChar: afii10069
Encoding: 1076 1076 283
Width: 583
GlyphClass: 2
Flags: MW
HStem: -147 222 0 75 445 75
VStem: 15 85 133 90 409 90 483 85
LayerCount: 2
Fore
SplineSet
133.193359375 520.048828125 m 1xb8
 499.146484375 520.048828125 l 1
 499.146484375 75.044921875 l 1
 568.185546875 75.044921875 l 1
 568.185546875 -147 l 1
 483.135742188 -147 l 1
 483.135742188 0.001953125 l 1
 100 0.001953125 l 1
 100 -147 l 1
 14.951171875 -147 l 1
 14.951171875 75.044921875 l 1
 48.876953125 75.044921875 l 1
 133.193359375 224.408203125 l 1
 133.193359375 520.048828125 l 1xb8
223.24609375 445.09375 m 1
 223.236328125 200.728515625 l 1
 152.2890625 75.048828125 l 1
 409.094726562 75.048828125 l 1
 409.094726562 445.09375 l 1
 223.24609375 445.09375 l 1
EndSplineSet
EndChar

StartChar: afii10072
Encoding: 1078 1078 285
Width: 722
GlyphClass: 2
Flags: MW
HStem: 0 21G 225 75<268 268> 437 83
VStem: 316 90
LayerCount: 2
Fore
SplineSet
405.833007812 225.155273438 m 1
 406.083984375 0.109375 l 1
 316.365234375 0.076171875 l 1
 316.365234375 225.122070312 l 1
 268 225 l 1
 228 193 l 1
 121.171875 -7.923828125 l 1
 40 36 l 1
 148 225 l 1
 214.139648438 262.059570312 l 1
 160.127929688 314.131835938 l 1
 111.497070312 417.282226562 l 1
 82.2314453125 430.58984375 l 1
 41.271484375 437.09375 l 1
 53.271484375 520.057617188 l 1
 128.1484375 512.63671875 l 1
 177.991210938 469.1953125 l 1
 234.244140625 346.75 l 1
 268 300 l 1
 316.032226562 300.040039062 l 1
 316.032226562 520 l 1
 406 520 l 1
 406 300.040039062 l 1
 454 300 l 1
 487.755859375 346.75 l 1
 544.008789062 469.1953125 l 1
 593.8515625 512.63671875 l 1
 668.728515625 520.057617188 l 1
 680.728515625 437.09375 l 1
 639.768554688 430.58984375 l 1
 610.502929688 417.282226562 l 1
 561.872070312 314.131835938 l 1
 507.860351562 262.059570312 l 1
 574 225 l 1
 682 36 l 1
 600.828125 -7.923828125 l 1
 494 193 l 1
 454 225 l 1
 405.833007812 225.155273438 l 1
EndSplineSet
EndChar

StartChar: afii10073
Encoding: 1079 1079 286
Width: 479
GlyphClass: 2
Flags: MW
HStem: -15 72 463 72
VStem: 192 232 334 90 356 88
LayerCount: 2
Fore
SplineSet
191.833984375 303.0390625 m 1xe0
 264 303 l 1
 314.825195312 330.426757812 l 1
 335.408203125 382.399414062 l 1
 309.041992188 443.431640625 l 1
 237.515625 467.0234375 l 1
 162.790039062 438.328125 l 1
 128.963867188 360.989257812 l 1
 54 394 l 1
 110.984375 500.618164062 l 1
 238.366210938 540.505859375 l 1
 372.9140625 500.711914062 l 1
 427.08984375 384.440429688 l 1
 408.634765625 318.400390625 l 1
 352.671875 275.323242188 l 1
 421.104492188 228.51171875 l 1
 443.895507812 145.032226562 l 1
 385.575195312 19.828125 l 1
 245.510742188 -20.4765625 l 1
 100.03515625 21.4521484375 l 1
 44 128 l 1
 117.874023438 164.04296875 l 1
 157.091796875 83.4873046875 l 1
 246.616210938 53.005859375 l 1
 327.083007812 78.0009765625 l 1
 357.860351562 145.793945312 l 1
 314.272460938 222.26171875 l 1
 264 235 l 1
 192 235 l 1
 191.833984375 303.0390625 l 1xe0
EndSplineSet
EndChar

StartChar: afii10074
Encoding: 1080 1080 287
Width: 560
GlyphClass: 2
Flags: MW
HStem: 0 21G<65 65 65 162 405 405 405 495> 500 20G<65 155 155 155 398 495 495 495>
VStem: 65 90<123 520 123 520 123 520> 405 90<0 394 394 394>
LayerCount: 2
Fore
SplineSet
65 0 m 1
 65 520 l 1
 155 520 l 1
 155 123 l 1
 398 520 l 1
 495 520 l 1
 495 0 l 1
 405 0 l 1
 405 394 l 1
 162 0 l 1
 65 0 l 1
EndSplineSet
EndChar

StartChar: afii10075
Encoding: 1081 1081 288
Width: 560
GlyphClass: 2
Flags: MW
HStem: 0 21G<65.0029 162.059 65.0029 65.0029 405.031 495 405.031 405.031> 500 20G 573 71 573 147
VStem: 69 90 409 90
LayerCount: 2
Fore
SplineSet
65.0029296875 519.965820312 m 1xcc
 155.0546875 519.965820312 l 1
 155.0546875 122.987304688 l 1
 398.02734375 519.965820312 l 1
 495 519.965820312 l 1
 495 0 l 1
 405.03125 0 l 1
 405.03125 394.059570312 l 1
 162.05859375 0 l 1
 65.0029296875 0 l 1
 65.0029296875 519.965820312 l 1xcc
423.700195312 698.009765625 m 1
 397.780273438 613.965820312 l 1
 285.111328125 571.526367188 l 1
 174.452148438 614.381835938 l 1
 148.299804688 698.009765625 l 1
 201.509765625 721.466796875 l 1
 226.94921875 663.548828125 l 1
 286.73828125 644.430664062 l 1
 345.401367188 663.548828125 l 1
 372.711914062 721.466796875 l 1
 423.700195312 698.009765625 l 1
EndSplineSet
EndChar

StartChar: afii10076
Encoding: 1082 1082 289
Width: 506
GlyphClass: 2
Flags: MW
HStem: 0 21G<65 154.758 65 65> 225 75<154.843 249 154.843 249 154.758 249> 442 83 500 20G<65.084 65.084>
VStem: 65 90
LayerCount: 2
Fore
SplineSet
249 300 m 1xd8
 282.755859375 346.75 l 1
 339.008789062 469.1953125 l 1
 388.8515625 512.63671875 l 1
 463.728515625 520.057617188 l 1
 475.728515625 437.09375 l 1
 434.768554688 430.58984375 l 1
 405.502929688 417.282226562 l 1
 356.872070312 314.131835938 l 1
 302.860351562 262.059570312 l 1
 369 225 l 1
 477 36 l 1
 395.828125 -7.923828125 l 1
 289 193 l 1
 249 225 l 1
 154.7578125 225 l 1
 154.7578125 0 l 1
 65 0 l 1
 65.083984375 520 l 1
 108.958984375 520.04296875 l 1
 154.842773438 520.04296875 l 1
 154.842773438 300 l 1
 249 300 l 1xd8
EndSplineSet
EndChar

StartChar: afii10077
Encoding: 1083 1083 290
Width: 570
GlyphClass: 2
Flags: MW
HStem: -15 83 0 21G<415.032 505 415.032 415.032> 445 75
VStem: 25 194 129 90 415 90
LayerCount: 2
Fore
SplineSet
128.896484375 520.006835938 m 1x64
 505 519.96484375 l 1
 505 0 l 1
 415.032226562 0 l 1
 415.032226562 445.005859375 l 1
 219.002929688 445.005859375 l 1
 219.0859375 184.97265625 l 1
 205.926757812 87.6220703125 l 1
 165.60546875 12.8046875 l 1
 84.8505859375 -16.681640625 l 1
 24.951171875 0.0419921875 l 1
 43 74 l 1
 62.568359375 67.984375 l 1
 102.592773438 92.1806640625 l 1
 122.071289062 153.926757812 l 1
 128.98046875 230.306640625 l 1
 128.896484375 520.006835938 l 1x64
EndSplineSet
EndChar

StartChar: afii10078
Encoding: 1084 1084 291
Width: 687
GlyphClass: 2
Flags: MW
HStem: 0 21G<65 65 65 155 302 302 302 381 532 532 532 622> 500 20G<65 206 206 206 494 622 622 622>
VStem: 65 90<0 438 0 520 0 520> 532 90<0 418 418 418>
LayerCount: 2
Fore
SplineSet
65 0 m 1
 65 520 l 1
 206 520 l 1
 343 104 l 1
 494 520 l 1
 622 520 l 1
 622 0 l 1
 532 0 l 1
 532 418 l 1
 381 0 l 1
 302 0 l 1
 155 438 l 1
 155 0 l 1
 65 0 l 1
EndSplineSet
EndChar

StartChar: afii10079
Encoding: 1085 1085 292
Width: 555
GlyphClass: 2
Flags: MW
HStem: 0 21G<65 65 65 155 400 400 400 490> 225 75<155 400 155 400> 500 20G<65 155 155 155 400 490 490 490>
VStem: 65 90<0 225 300 520> 400 90<0 225 225 225 300 520 0 520>
LayerCount: 2
Fore
SplineSet
65 0 m 1
 65 520 l 1
 155 520 l 1
 155 300 l 1
 400 300 l 1
 400 520 l 1
 490 520 l 1
 490 0 l 1
 400 0 l 1
 400 225 l 1
 155 225 l 1
 155 0 l 1
 65 0 l 1
EndSplineSet
EndChar

StartChar: afii10081
Encoding: 1087 1087 294
Width: 550
GlyphClass: 2
Flags: MW
HStem: 0 21G<65 65 65 155 395 395 395 485> 445 75<155 395 155 155>
VStem: 65 90<0 445 0 520 0 520> 395 90<0 445 445 445>
LayerCount: 2
Fore
SplineSet
65 0 m 1
 65 520 l 1
 485 520 l 1
 485 0 l 1
 395 0 l 1
 395 445 l 1
 155 445 l 1
 155 0 l 1
 65 0 l 1
EndSplineSet
EndChar

StartChar: afii10084
Encoding: 1090 1090 297
Width: 464
GlyphClass: 2
Flags: MW
HStem: -1 21G<187 277 187 187> 445 75<20 444 20 187 277 277 277 444>
VStem: 187 90<-1 445 -1 445>
LayerCount: 2
Fore
SplineSet
20 445 m 1
 20 520 l 1
 444 520 l 1
 444 445 l 1
 277 445 l 1
 277 -1 l 1
 187 -1 l 1
 187 445 l 1
 20 445 l 1
EndSplineSet
EndChar

StartChar: afii10086
Encoding: 1092 1092 299
Width: 820
GlyphClass: 2
Flags: MW
HStem: -200 21G<365.031 365.031 365.031 455> -15 75 460 75 715 20G
VStem: 35 90 365 90 695 90
CounterMasks: 1 0e
LayerCount: 2
Fore
SplineSet
365.03125 -200 m 1
 365.03125 54.98046875 l 1
 312.368164062 1.1689453125 l 1
 232.4765625 -20.4765625 l 1
 76.826171875 61.6298828125 l 1
 27.5087890625 260.014648438 l 1
 75.943359375 458.399414062 l 1
 234.602539062 540.505859375 l 1
 321.9765625 512.116210938 l 1
 365.03125 458.961914062 l 1
 365.03125 728.014648438 l 1
 455 727.954101562 l 1
 455 458.961914062 l 1
 501.940429688 514.694335938 l 1
 585.34375 540.505859375 l 1
 744.044921875 458.399414062 l 1
 792.522460938 260.014648438 l 1
 743.163085938 61.6298828125 l 1
 587.470703125 -20.4765625 l 1
 503.526367188 3.5322265625 l 1
 455 54.98046875 l 1
 455 -200 l 1
 365.03125 -200 l 1
244.723632812 464.046875 m 1
 152.87109375 412.515625 l 1
 119.717773438 257.625 l 1
 152.807617188 107.556640625 l 1
 244.723632812 56.0673828125 l 1
 333.950195312 107.556640625 l 1
 372.521484375 262.396484375 l 1
 330.123046875 412.515625 l 1
 244.723632812 464.046875 l 1
575.22265625 56.0673828125 m 1
 666.969726562 107.556640625 l 1
 700.143554688 262.404296875 l 1
 667.034179688 412.515625 l 1
 575.22265625 464.046875 l 1
 489.758789062 412.515625 l 1
 447.368164062 257.616210938 l 1
 485.96484375 107.556640625 l 1
 575.22265625 56.0673828125 l 1
EndSplineSet
EndChar

StartChar: afii10088
Encoding: 1094 1094 301
Width: 569
GlyphClass: 2
Flags: MW
HStem: -147 222<485 554 155 554 155 469> 0 75<155 395 155 469> 500 20G<65 155 155 155 395 485 485 485>
VStem: 65 90<75 520 75 520 75 520> 395 90<75 520 75 520> 469 85<-147 0 0 0>
LayerCount: 2
Fore
SplineSet
65 0 m 1xb4
 65 520 l 1
 155 520 l 1
 155 75 l 1x78
 395 75 l 1
 395 520 l 1
 485 520 l 1xb8
 485 75 l 1
 554 75 l 1
 554 -147 l 1
 469 -147 l 1
 469 0 l 1
 65 0 l 1xb4
EndSplineSet
EndChar

StartChar: afii10089
Encoding: 1095 1095 302
Width: 510
GlyphClass: 2
Flags: MW
HStem: 0 21G<355.032 445 355.032 355.032> 174 73 500 20G
VStem: 40 90 355 90
LayerCount: 2
Fore
SplineSet
129.95703125 519.96484375 m 1
 130.624023438 406.083007812 l 1
 148.46484375 292.915039062 l 1
 247.068359375 247.252929688 l 1
 301.270507812 256.6171875 l 1
 355.032226562 283.99609375 l 1
 355.032226562 519.96484375 l 1
 445 519.96484375 l 1
 445 0 l 1
 355.032226562 0 l 1
 355.032226562 218.958984375 l 1
 291.50390625 182.513671875 l 1
 221.322265625 173.243164062 l 1
 80.7880859375 228.330078125 l 1
 39.9345703125 374.28125 l 1
 39.9345703125 519.96484375 l 1
 129.95703125 519.96484375 l 1
EndSplineSet
EndChar

StartChar: afii10090
Encoding: 1096 1096 303
Width: 766
GlyphClass: 2
Flags: MW
HStem: 0 75<155 338 428 611> 500 20G<65 155 155 155 338 428 428 428 611 701 701 701>
VStem: 65 90<75 520 75 520 75 520> 338 90<75 520 75 520> 611 90<75 520 0 520>
CounterMasks: 1 38
LayerCount: 2
Fore
SplineSet
65 0 m 1
 65 520 l 1
 155 520 l 1
 155 75 l 1
 338 75 l 1
 338 520 l 1
 428 520 l 1
 428 75 l 1
 611 75 l 1
 611 520 l 1
 701 520 l 1
 701 0 l 1
 65 0 l 1
EndSplineSet
EndChar

StartChar: afii10091
Encoding: 1097 1097 304
Width: 785
GlyphClass: 2
Flags: MW
HStem: -147 222<701 770> 0 75<155 338 428 611> 500 20G<65 155 155 155 338 428 428 428 611 701 701 701>
VStem: 65 90<75 520 75 520 75 520> 338 90<75 520 75 520> 611 90<75 520 75 520> 685 85<-147 0 0 0>
LayerCount: 2
Fore
SplineSet
701 520 m 1x7a
 701 75 l 1
 770 75 l 1
 770 -147 l 1
 685 -147 l 1
 685 0 l 1
 65 0 l 1
 65 520 l 1
 155 520 l 1
 155 75 l 1
 338 75 l 1
 338 520 l 1xbc
 428 520 l 1
 428 75 l 1xba
 611 75 l 1
 611 520 l 1
 701 520 l 1x7a
EndSplineSet
EndChar

StartChar: afii10092
Encoding: 1098 1098 305
Width: 578
GlyphClass: 2
Flags: MW
HStem: 0 72 243 72 447 73
VStem: 20 214 144 90 456 92
LayerCount: 2
Fore
SplineSet
20 520 m 1xf4
 233.873046875 520 l 1
 233.873046875 315.048828125 l 1
 338.831054688 314.21484375 l 1
 483.5546875 285.9296875 l 1
 549.212890625 156.775390625 l 1
 489.284179688 32.72265625 l 1
 364.383789062 -0.181640625 l 1
 143.904296875 -0.181640625 l 1
 143.904296875 446.82421875 l 1
 20 446.82421875 l 1
 20 520 l 1xf4
233.873046875 71.9931640625 m 1
 339.743164062 72.826171875 l 1
 422.458007812 90.087890625 l 1
 455.234375 157.19140625 l 1
 424.03125 224.805664062 l 1
 342.97265625 243.283203125 l 1
 233.873046875 243.283203125 l 1
 233.873046875 71.9931640625 l 1
EndSplineSet
EndChar

StartChar: afii10093
Encoding: 1099 1099 306
Width: 695
GlyphClass: 2
Flags: MW
HStem: 0 72 243 72 500 20G
VStem: 65 90 377 92 540 90
LayerCount: 2
Fore
SplineSet
65.0546875 520.240234375 m 1
 155.106445312 520.240234375 l 1
 155.106445312 315.206054688 l 1
 260.169921875 314.372070312 l 1
 404.788085938 286.111328125 l 1
 470.446289062 156.95703125 l 1
 410.5078125 32.904296875 l 1
 285.479492188 0 l 1
 65.0546875 0 l 1
 65.0546875 520.240234375 l 1
155.106445312 72.2333984375 m 1
 260.998046875 73.06640625 l 1
 343.680664062 90.26171875 l 1
 376.467773438 157.322265625 l 1
 345.265625 224.936523438 l 1
 264.098632812 243.415039062 l 1
 155.106445312 243.415039062 l 1
 155.106445312 72.2333984375 l 1
540.161132812 520.240234375 m 1
 630.12890625 520.240234375 l 1
 630.12890625 0.19140625 l 1
 540.161132812 0.19140625 l 1
 540.161132812 520.240234375 l 1
EndSplineSet
EndChar

StartChar: afii10094
Encoding: 1100 1100 307
Width: 499
GlyphClass: 2
Flags: MW
HStem: 0 72 243 72 500 20G
VStem: 65 90 377 92
LayerCount: 2
Fore
SplineSet
65.0546875 520.33203125 m 1
 155.106445312 520.33203125 l 1
 155.106445312 315.297851562 l 1
 259.658203125 314.463867188 l 1
 404.705078125 286.112304688 l 1
 470.36328125 156.95703125 l 1
 410.424804688 32.904296875 l 1
 285.614257812 0 l 1
 65.0546875 0 l 1
 65.0546875 520.33203125 l 1
155.106445312 72.3251953125 m 1
 260.487304688 73.158203125 l 1
 343.59765625 90.45703125 l 1
 376.383789062 157.517578125 l 1
 345.181640625 225.131835938 l 1
 264.453125 243.606445312 l 1
 155.106445312 243.606445312 l 1
 155.106445312 72.3251953125 l 1
EndSplineSet
EndChar

StartChar: afii10095
Encoding: 1101 1101 308
Width: 524
GlyphClass: 2
Flags: MW
HStem: -15 75 225 75 460 75
LayerCount: 2
Fore
SplineSet
205.083984375 300.04296875 m 1
 397.110351562 300.04296875 l 1
 348.762695312 425.662109375 l 1
 260.333984375 464.052734375 l 1
 173.977539062 435.603515625 l 1
 127.122070312 341.984375 l 1
 50 380 l 1
 113.581054688 493.956054688 l 1
 260.333984375 540.51171875 l 1
 431.6640625 466.059570312 l 1
 492.772460938 260.020507812 l 1
 426.455078125 53.9814453125 l 1
 250.041992188 -20.470703125 l 1
 107.723632812 25.5322265625 l 1
 46 138 l 1
 122.036132812 176.97265625 l 1
 168.151367188 84.2666015625 l 1
 250.041992188 55.98828125 l 1
 348.200195312 95.400390625 l 1
 397.02734375 225 l 1
 205 225 l 1
 205.083984375 300.04296875 l 1
EndSplineSet
EndChar

StartChar: afii10096
Encoding: 1102 1102 309
Width: 761
GlyphClass: 2
Flags: MW
HStem: -15 75 0 21G<64.9482 155 64.9482 64.9482> 225 75 460 75 500 20G
VStem: 65 90 261 89 636 90
LayerCount: 2
Fore
SplineSet
64.9482421875 520.1328125 m 1x67
 155 520.1328125 l 1
 155 300.088867188 l 1
 260.977539062 300.088867188 l 1
 330.608398438 477.33203125 l 1
 492.041015625 540.557617188 l 1
 663.361328125 466.10546875 l 1
 729.752929688 260.06640625 l 1
 663.361328125 54.02734375 l 1
 492.041015625 -20.4248046875 l 1
 329.427734375 44.2041015625 l 1
 260.977539062 225.045898438 l 1
 155 225.045898438 l 1
 155 0 l 1
 64.9482421875 0 l 1
 64.9482421875 520.1328125 l 1x67
492.125976562 56.119140625 m 1
 593.844726562 103.780273438 l 1
 638.155273438 260.06640625 l 1
 593.908203125 416.39453125 l 1
 492.125976562 464.098632812 l 1
 390.588867188 416.39453125 l 1
 346.267578125 260.06640625 l 1
 390.555664062 103.780273438 l 1
 492.125976562 56.119140625 l 1
EndSplineSet
EndChar

StartChar: afii10097
Encoding: 1103 1103 310
Width: 534
GlyphClass: 2
Flags: MW
HStem: 0 21G<379.031 469 379.031 379.031> 201 73 445 75
VStem: 59 94 379 90
LayerCount: 2
Fore
SplineSet
244 201 m 1
 124 -8 l 1
 43 38 l 1
 154 228 l 1
 94.822265625 260.206054688 l 1
 57.65625 364.8671875 l 1
 112.342773438 484.071289062 l 1
 249.4140625 520.015625 l 1
 469 520.015625 l 1
 469 0 l 1
 379.03125 0 l 1
 379.03125 201.032226562 l 1
 244 201 l 1
379.03125 445.005859375 m 1
 264.71875 445.005859375 l 1
 179.48828125 423.984375 l 1
 153.67578125 362.1875 l 1
 196.211914062 288.196289062 l 1
 298 274.333007812 l 1
 379.198242188 274.333007812 l 1
 379.03125 445.005859375 l 1
EndSplineSet
EndChar

StartChar: afii10099
Encoding: 1106 1106 313
Width: 584
GlyphClass: 2
Flags: MW
HStem: -15 79 0 21G<94.0322 184 94.0322 94.0322> 389 76 520 69 715 20G
VStem: 94 90 429 90
LayerCount: 2
Fore
SplineSet
493.856445312 36.3466796875 m 1x7e
 376.975585938 -19.724609375 l 1
 314.827148438 -5.9189453125 l 1
 329.836914062 70.041015625 l 1
 329.833007812 69.69921875 l 1
 378.754882812 59.28125 l 1
 418.092773438 94.0185546875 l 1
 431.173828125 247.438476562 l 1
 405.357421875 353.22265625 l 1
 321.009765625 392.250976562 l 1
 220.811523438 348.247070312 l 1
 184 219.159179688 l 1
 184 0 l 1
 94.0322265625 0 l 1
 94.0322265625 520.048828125 l 1
 19.9892578125 520.048828125 l 1
 19.9892578125 589.004882812 l 1
 94.0322265625 589.004882812 l 1
 94.0322265625 727.981445312 l 1
 184 728.005859375 l 1
 184 589.004882812 l 1
 272.967773438 589.004882812 l 1
 272.967773438 520.048828125 l 1
 183.833007812 520.048828125 l 1
 183.833007812 379.051757812 l 1
 243.25390625 447.831054688 l 1
 339.209960938 469.900390625 l 1
 485.622070312 407.143554688 l 1
 521.810546875 247.702148438 l 1
 493.856445312 36.3466796875 l 1x7e
EndSplineSet
EndChar

StartChar: afii10101
Encoding: 1108 1108 315
Width: 524
GlyphClass: 2
Flags: MW
HStem: -15 75 225 75 460 75
LayerCount: 2
Fore
SplineSet
319.688476562 300.04296875 m 1
 319.772460938 225 l 1
 127.745117188 225 l 1
 176.572265625 95.400390625 l 1
 274.73046875 55.98828125 l 1
 356.62109375 84.2666015625 l 1
 402.736328125 176.97265625 l 1
 478.772460938 138 l 1
 417.048828125 25.5322265625 l 1
 274.73046875 -20.470703125 l 1
 98.3173828125 53.9814453125 l 1
 32 260.020507812 l 1
 93.1083984375 466.059570312 l 1
 264.438476562 540.51171875 l 1
 411.19140625 493.956054688 l 1
 474.772460938 380 l 1
 397.650390625 341.984375 l 1
 350.794921875 435.603515625 l 1
 264.438476562 464.052734375 l 1
 176.009765625 425.662109375 l 1
 127.662109375 300.04296875 l 1
 319.688476562 300.04296875 l 1
EndSplineSet
EndChar

StartChar: afii10106
Encoding: 1113 1113 320
Width: 809
GlyphClass: 2
Flags: MW
HStem: -15 87 0 72 243 72 445 75
VStem: 25 194 129 90 395 90 697 92
LayerCount: 2
Fore
SplineSet
485.051757812 520.048828125 m 1x73
 485.051757812 315.014648438 l 1
 582.579101562 313.846679688 l 1
 724.727539062 286.112304688 l 1
 790.385742188 156.95703125 l 1
 730.447265625 32.904296875 l 1
 605.08984375 0 l 1
 395 0 l 1
 395 445.005859375 l 1
 219.002929688 445.005859375 l 1
 219.0859375 184.97265625 l 1
 205.926757812 87.6220703125 l 1
 165.60546875 12.8046875 l 1
 84.8505859375 -16.681640625 l 1
 24.951171875 0.0419921875 l 1
 43 74 l 1
 62.568359375 67.984375 l 1
 102.592773438 92.1806640625 l 1
 122.071289062 153.926757812 l 1
 126.48046875 230.306640625 l 1
 128.896484375 520.006835938 l 1
 485.051757812 520.048828125 l 1x73
583.487304688 73.2919921875 m 1
 663.705078125 89.9384765625 l 1
 696.4921875 157 l 1
 665.278320312 224.61328125 l 1
 581.513671875 243.09765625 l 1
 485.051757812 243.09765625 l 1
 485.051757812 72.0830078125 l 1
 583.487304688 73.2919921875 l 1
EndSplineSet
EndChar

StartChar: afii10107
Encoding: 1114 1114 321
Width: 804
GlyphClass: 2
Flags: MW
HStem: 0 72 225 75 243 72 500 20G
VStem: 68 90 383 90 685 92
LayerCount: 2
Fore
SplineSet
155 520.032226562 m 1x9e
 155 299.989257812 l 1
 380.045898438 299.989257812 l 1
 380.045898438 520.032226562 l 1
 470.014648438 520.032226562 l 1
 470.014648438 314.998046875 l 1
 567.2265625 313.9140625 l 1
 709.6171875 286.112304688 l 1
 775.263671875 156.95703125 l 1
 715.420898438 32.904296875 l 1
 590.326171875 0 l 1
 380.045898438 0 l 1
 380.045898438 225.045898438 l 1
 155 225.045898438 l 1
 155 0 l 1
 65.115234375 0 l 1
 65.115234375 520.048828125 l 1
 155 520.032226562 l 1x9e
568.21875 73.1923828125 m 1
 648.678710938 89.904296875 l 1
 681.454101562 156.965820312 l 1
 650.209960938 224.580078125 l 1
 568.555664062 243.064453125 l 1
 470.014648438 243.064453125 l 1
 470.014648438 72.0498046875 l 1
 568.21875 73.1923828125 l 1
EndSplineSet
EndChar

StartChar: afii10108
Encoding: 1115 1115 322
Width: 584
GlyphClass: 2
Flags: MW
HStem: 0 21G<184 184 428.993 518.878 428.993 428.993> 389 76 520 69 715 20G
VStem: 94 90 429 90
LayerCount: 2
Fore
SplineSet
93.9677734375 519.96484375 m 1
 19.9248046875 519.96484375 l 1
 19.9248046875 588.920898438 l 1
 93.9677734375 588.920898438 l 1
 93.9677734375 727.897460938 l 1
 183.935546875 727.921875 l 1
 183.935546875 588.920898438 l 1
 272.986328125 588.920898438 l 1
 272.986328125 519.96484375 l 1
 183.935546875 519.96484375 l 1
 183.935546875 378.967773438 l 1
 243.681640625 444.138671875 l 1
 339.669921875 466.208007812 l 1
 486.006835938 403.451171875 l 1
 518.877929688 247.200195312 l 1
 518.877929688 0 l 1
 428.993164062 0 l 1
 428.576171875 246.708007812 l 1
 405.711914062 349.615234375 l 1
 321.364257812 388.64453125 l 1
 221.134765625 344.640625 l 1
 184 219.18359375 l 1
 184 0 l 1
 93.9482421875 -0.083984375 l 1
 93.9677734375 519.96484375 l 1
EndSplineSet
EndChar

StartChar: afii10110
Encoding: 1118 1118 325
Width: 500
GlyphClass: 2
Flags: MW
HStem: -210 79 500 20G 573 71 573 147
LayerCount: 2
Fore
SplineSet
106 -132 m 1xc0
 152.963867188 -112.497070312 l 1
 191.5 -51.4365234375 l 1
 212.116210938 5.037109375 l 1
 19 498 l 1
 100 528 l 1
 254.056640625 115.017578125 l 1
 405 528 l 1
 482 498 l 1
 275.240234375 -57.53125 l 1
 216.19140625 -167.111328125 l 1
 117.978515625 -210.002929688 l 1
 60.9462890625 -200.080078125 l 1
 77 -127 l 1
 106 -132 l 1xc0
EndSplineSet
EndChar

StartChar: afii10193
Encoding: 1119 1119 326
Width: 550
GlyphClass: 2
Flags: MW
HStem: -147 222<238 323 238 238> 0 75<155 238 323 395 155 485 323 323> 500 20G<65 155 155 155 395 485 485 485>
VStem: 65 90<75 520 75 520 75 520> 238 85<-147 0 -147 0> 395 90<75 520 0 520>
LayerCount: 2
Fore
SplineSet
485 520 m 1xbc
 485 0 l 1
 323 0 l 1
 323 -147 l 1
 238 -147 l 1
 238 0 l 1
 65 0 l 1
 65 520 l 1x7c
 155 520 l 1
 155 75 l 1xbc
 395 75 l 1
 395 520 l 1x7c
 485 520 l 1xbc
EndSplineSet
EndChar

StartChar: afii10050
Encoding: 1168 1168 327
Width: 553
GlyphClass: 2
Flags: MW
HStem: 0 21G<80 80 80 175> 635 85<175 438 80 533 175 175> 635 215<438 533 438 533>
VStem: 80 95<0 635 0 720 0 720> 438 95<720 850 635 850>
LayerCount: 2
Fore
SplineSet
80 0 m 1xd8
 80 720 l 1
 438 720 l 1
 438 850 l 1
 533 850 l 1
 533 635 l 1xd8
 175 635 l 1
 175 0 l 1xb8
 80 0 l 1xd8
EndSplineSet
EndChar

StartChar: afii10098
Encoding: 1169 1169 328
Width: 421
GlyphClass: 2
Flags: MW
HStem: 0 21G<65 65 65 153> 445 75<153 323 65 401 153 153> 445 185<323 401 323 401 153 401>
VStem: 65 88<0 445 0 520 0 520> 323 78<520 630 445 630>
LayerCount: 2
Fore
SplineSet
65 0 m 1xd8
 65 520 l 1
 323 520 l 1
 323 630 l 1
 401 630 l 1
 401 445 l 1xd8
 153 445 l 1
 153 0 l 1xb8
 65 0 l 1xd8
EndSplineSet
EndChar

StartChar: endash
Encoding: 8211 8211 329
Width: 500
GlyphClass: 2
Flags: HMW
HStem: 225 75<40 516 40 516>
LayerCount: 2
Fore
SplineSet
83.2548828125 251.96875 m 1
 83.2548828125 268.032226562 l 1
 416.745117188 268.032226562 l 1
 416.745117188 251.96875 l 1
 83.2548828125 251.96875 l 1
EndSplineSet
EndChar

StartChar: emdash
Encoding: 8212 8212 330
Width: 1000
GlyphClass: 2
Flags: HMW
HStem: 225 75<0 700 0 700>
LayerCount: 2
Fore
SplineSet
83.2548828125 251.96875 m 1
 83.2548828125 268.032226562 l 1
 916.745117188 268.032226562 l 1
 916.745117188 251.96875 l 1
 83.2548828125 251.96875 l 1
EndSplineSet
EndChar

StartChar: quotesinglbase
Encoding: 8218 8218 333
Width: 231
GlyphClass: 2
Flags: HMW
HStem: -142 21G 0 21G 80 20G
VStem: 76 100 127 49
LayerCount: 2
Fore
SplineSet
109.869140625 -102.235351562 m 1
 130.908203125 -80.9150390625 l 1
 148.9140625 -0.974609375 l 1
 126.421875 24.51953125 l 1
 115.284179688 24.51953125 l 1
 100.353515625 39.4541015625 l 1
 100.353515625 60.5771484375 l 1
 115.286132812 75.5078125 l 1
 136.41015625 75.5078125 l 1
 151.33984375 60.5751953125 l 1
 154.9140625 -0.974609375 l 1
 136.448242188 -83.2197265625 l 1
 109.869140625 -102.235351562 l 1
EndSplineSet
EndChar

StartChar: quotedblbase
Encoding: 8222 8222 336
Width: 396
GlyphClass: 2
Flags: HMW
HStem: -142 21G 0 100
VStem: 76 100 127 49 226 100 277 49
LayerCount: 2
Fore
SplineSet
265.451171875 76.48046875 m 1
 286.576171875 76.48046875 l 1
 301.505859375 61.546875 l 1
 305.080078125 -0.001953125 l 1
 286.61328125 -82.248046875 l 1
 260.03515625 -101.263671875 l 1
 281.07421875 -79.943359375 l 1
 299.080078125 -0.001953125 l 1
 276.587890625 25.4921875 l 1
 265.44921875 25.4921875 l 1
 250.51953125 40.42578125 l 1
 250.51953125 61.548828125 l 1
 265.451171875 76.48046875 l 1
115.28515625 75.5078125 m 1
 136.41015625 75.5078125 l 1
 151.33984375 60.576171875 l 1
 154.9140625 -0.974609375 l 1
 136.447265625 -83.220703125 l 1
 109.869140625 -102.234375 l 1
 130.908203125 -80.9140625 l 1
 148.9140625 -0.974609375 l 1
 126.421875 24.51953125 l 1
 115.283203125 24.51953125 l 1
 100.353515625 39.455078125 l 1
 100.353515625 60.578125 l 1
 115.28515625 75.5078125 l 1
EndSplineSet
EndChar

StartChar: dagger
Encoding: 8224 8224 337
Width: 364
GlyphClass: 2
Flags: HMW
HStem: 300 21G<137 227 137 137> 535 75<40 137 40 137 227 324> 700 20G<137 227 227 227>
VStem: 137 90<300 535 300 535 610 720>
LayerCount: 2
Fore
SplineSet
182 684.044921875 m 1
 184.3046875 574.420898438 l 1
 184.3046875 574.420898438 l 1
 288.044921875 572.5 l 1
 184.3046875 570.579101562 l 1
 184.3046875 570.579101562 l 1
 182 336.016601562 l 1
 179.6953125 570.579101562 l 1
 179.6953125 570.579101562 l 1
 75.955078125 572.5 l 1
 179.6953125 574.420898438 l 1
 179.6953125 574.420898438 l 1
 182 684.044921875 l 1
EndSplineSet
EndChar

StartChar: daggerdbl
Encoding: 8225 8225 338
Width: 364
GlyphClass: 2
Flags: HMW
HStem: 300 21G<137 227 137 137> 400 75<40 137 40 137 227 324> 545 75<40 137 40 137 227 324> 700 20G<137 227 227 227>
VStem: 137 90<300 400 300 400 475 545 620 720>
LayerCount: 2
Fore
SplineSet
182 335.955078125 m 1
 179.6953125 435.579101562 l 1
 179.6953125 435.579101562 l 1
 75.955078125 437.5 l 1
 179.6953125 439.420898438 l 1
 179.6953125 439.420898438 l 1
 179.6953125 580.579101562 l 1
 179.6953125 580.579101562 l 1
 75.955078125 582.5 l 1
 179.6953125 584.420898438 l 1
 179.6953125 584.420898438 l 1
 182 684.044921875 l 1
 184.3046875 584.420898438 l 1
 184.3046875 584.420898438 l 1
 288.044921875 582.5 l 1
 184.3046875 580.579101562 l 1
 184.3046875 580.579101562 l 1
 184.3046875 439.420898438 l 1
 184.3046875 439.420898438 l 1
 288.044921875 437.5 l 1
 184.3046875 435.579101562 l 1
 184.3046875 435.579101562 l 1
 182 335.955078125 l 1
EndSplineSet
EndChar

StartChar: bullet
Encoding: 8226 8226 339
Width: 388
GlyphClass: 2
Flags: HMW
HStem: 227 247
VStem: 70 248
LayerCount: 2
Fore
SplineSet
136.599609375 408.091796875 m 1
 193.91796875 431.712890625 l 1
 251.1484375 407.829101562 l 1
 275.2265625 351.005859375 l 1
 251.53125 293.39453125 l 1
 193.91796875 269.696289062 l 1
 136.333984375 293.39453125 l 1
 112.6640625 351.005859375 l 1
 136.599609375 408.091796875 l 1
EndSplineSet
EndChar

StartChar: perthousand
Encoding: 8240 8240 341
Width: 1112
GlyphClass: 2
Flags: HMW
HStem: -5 75 0 21G<237.113 237.113> 250 75 395 75 650 75 700 20G
VStem: 40 77 255 77 440 77 655 77 780 77 995 77
LayerCount: 2
Fore
SplineSet
78.564453125 560.03125 m 1
 110.420898438 655.110351562 l 1
 186.083984375 687.5625 l 1
 262.512695312 655.110351562 l 1
 293.603515625 560.03125 l 1
 262.512695312 464.951171875 l 1
 186.083984375 432.499023438 l 1
 109.638671875 464.951171875 l 1
 78.564453125 560.03125 l 1
556.525390625 677.90234375 m 1
 390.909179688 362.83203125 l 1
 220.099609375 50.771484375 l 1
 385.647460938 365.713867188 l 1
 556.525390625 677.90234375 l 1
478.626953125 160.008789062 m 1
 510.484375 255.088867188 l 1
 586.147460938 287.541015625 l 1
 662.576171875 255.088867188 l 1
 693.666992188 160.008789062 l 1
 662.576171875 64.9287109375 l 1
 586.147460938 32.4775390625 l 1
 509.702148438 64.9287109375 l 1
 478.626953125 160.008789062 l 1
818.572265625 160.008789062 m 1
 850.428710938 255.088867188 l 1
 926.091796875 287.541015625 l 1
 1002.51953125 255.088867188 l 1
 1033.61035156 160.008789062 l 1
 1002.51953125 64.9287109375 l 1
 926.091796875 32.4775390625 l 1
 849.647460938 64.9287109375 l 1
 818.572265625 160.008789062 l 1
EndSplineSet
EndChar

StartChar: Euro
Encoding: 8364 8364 344
Width: 556
GlyphClass: 2
Flags: HMW
HStem: -15 78 255 75<0 95 0 100 0 95 194 346 194 194> 395 75<0 95 0 100 195 346> 657 78
VStem: 95.6123 99
LayerCount: 2
Fore
SplineSet
477.383789062 536.728515625 m 1
 434.727539062 644.432617188 l 1
 320.484375 699.739257812 l 1
 198.353515625 636.7421875 l 1
 150.5 470 l 1
 156.08203125 435.49609375 l 1
 309.981445312 432.5 l 1
 155.76171875 429.504882812 l 1
 146 395 l 1
 146 330 l 1
 151.181640625 295.498046875 l 1
 309.981445312 292.5 l 1
 151.421875 289.501953125 l 1
 150 255 l 1
 197.178710938 84.51953125 l 1
 320.484375 20.330078125 l 1
 434.508789062 74.9560546875 l 1
 476.399414062 181.337890625 l 1
 438.670898438 70.6337890625 l 1
 320.490234375 14.3310546875 l 1
 192.647460938 80.5888671875 l 1
 144 255 l 1
 130.283203125 289.506835938 l 1
 35.955078125 292.5 l 1
 129.883789062 295.494140625 l 1
 140 330 l 1
 140 395 l 1
 134.37890625 429.506835938 l 1
 35.955078125 432.5 l 1
 134.778320312 435.494140625 l 1
 144.5 470 l 1
 193.85546875 640.711914062 l 1
 320.491210938 705.739257812 l 1
 438.8984375 648.74609375 l 1
 477.383789062 536.728515625 l 1
EndSplineSet
EndChar

StartChar: arrowleft
Encoding: 8592 8592 347
Width: 969
GlyphClass: 2
Flags: W
LayerCount: 2
Fore
SplineSet
47.974609375 295.553710938 m 1
 47.974609375 233.634765625 l 1
 449.424804688 -8 l 1
 494.224609375 65.509765625 l 1
 216.123046875 224.354492188 l 1
 919.450195312 224.354492188 l 1
 919.450195312 305.00390625 l 1
 216.615234375 305.00390625 l 1
 494.424804688 463.75 l 1
 449.625 537.259765625 l 1
 47.974609375 295.553710938 l 1
EndSplineSet
EndChar

StartChar: arrowup
Encoding: 8593 8593 348
Width: 605
GlyphClass: 2
Flags: MW
HStem: -199.75 21G<262.256 342.905 262.256 262.256> 700 20G<271.706 333.625 333.625 333.625>
VStem: 262.256 80.6494
LayerCount: 2
Fore
SplineSet
271.706054688 720 m 1
 333.625 720 l 1
 575.259765625 318.549804688 l 1
 501.75 273.75 l 1
 342.905273438 551.8515625 l 1
 342.905273438 -199.75 l 1
 262.255859375 -199.75 l 1
 262.255859375 551.359375 l 1
 103.509765625 273.549804688 l 1
 30 318.349609375 l 1
 271.706054688 720 l 1
EndSplineSet
EndChar

StartChar: arrowright
Encoding: 8594 8594 349
Width: 969
GlyphClass: 2
Flags: MW
HStem: -8 21G<518 518> 224.354 80.6494
LayerCount: 2
Fore
SplineSet
919.450195312 295.553710938 m 1
 919.450195312 233.634765625 l 1
 518 -8 l 1
 473.200195312 65.509765625 l 1
 751.301757812 224.354492188 l 1
 47.974609375 224.354492188 l 1
 47.974609375 305.00390625 l 1
 750.809570312 305.00390625 l 1
 473 463.75 l 1
 517.799804688 537.259765625 l 1
 919.450195312 295.553710938 l 1
EndSplineSet
EndChar

StartChar: arrowdown
Encoding: 8595 8595 350
Width: 614
GlyphClass: 2
Flags: MW
HStem: -199.5 21G<271.635 333.554 271.635 271.635> 700 20G<262.354 343.004 343.004 343.004>
VStem: 262.354 80.6494
LayerCount: 2
Fore
SplineSet
333.553710938 -199.5 m 1
 271.634765625 -199.5 l 1
 30 201.950195312 l 1
 103.509765625 246.75 l 1
 262.354492188 -31.3515625 l 1
 262.354492188 720 l 1
 343.00390625 720 l 1
 343.00390625 -30.859375 l 1
 501.75 246.950195312 l 1
 575.259765625 202.150390625 l 1
 333.553710938 -199.5 l 1
EndSplineSet
EndChar

StartChar: arrowboth
Encoding: 8596 8596 351
Width: 1061
GlyphClass: 2
Flags: W
LayerCount: 2
Fore
SplineSet
47.974609375 295.553710938 m 1
 47.974609375 233.634765625 l 1
 449.424804688 -8 l 1
 494.224609375 65.509765625 l 1
 216.123046875 224.354492188 l 1
 838.732421875 224.354492188 l 1
 560.75 65.509765625 l 1
 605.549804688 -8 l 1
 1007.20019531 233.706054688 l 1
 1007.20019531 295.625 l 1
 605.75 537.259765625 l 1
 560.950195312 463.75 l 1
 838.87890625 305.00390625 l 1
 216.615234375 305.00390625 l 1
 494.424804688 463.75 l 1
 449.625 537.259765625 l 1
 47.974609375 295.553710938 l 1
EndSplineSet
EndChar

StartChar: arrowupdn
Encoding: 8597 8597 352
Width: 605
GlyphClass: 2
Flags: W
LayerCount: 2
Fore
SplineSet
333.553710938 829 m 1
 271.634765625 829 l 1
 30 427.55078125 l 1
 103.509765625 382.75 l 1
 262.354492188 660.852539062 l 1
 262.354492188 -31.515625 l 1
 103.509765625 246.466796875 l 1
 30 201.66796875 l 1
 271.706054688 -199.982421875 l 1
 333.625 -199.982421875 l 1
 575.259765625 201.466796875 l 1
 501.75 246.267578125 l 1
 343.00390625 -31.662109375 l 1
 343.00390625 660.360351562 l 1
 501.75 382.55078125 l 1
 575.259765625 427.349609375 l 1
 333.553710938 829 l 1
EndSplineSet
EndChar

StartChar: uni2196
Encoding: 8598 8598 353
Width: 736
GlyphClass: 2
Flags: W
LayerCount: 2
Fore
SplineSet
40 552.252929688 m 1
 83.783203125 596.036132812 l 1
 538.512695312 483.029296875 l 1
 518.211914062 399.372070312 l 1
 209.244140625 483.69921875 l 1
 706.571289062 -13.6279296875 l 1
 649.543945312 -70.6552734375 l 1
 152.564453125 426.32421875 l 1
 236.754882812 117.6328125 l 1
 153.09765625 97.3310546875 l 1
 40 552.252929688 l 1
EndSplineSet
EndChar

StartChar: uni2197
Encoding: 8599 8599 354
Width: 746
GlyphClass: 2
Flags: W
LayerCount: 2
Fore
SplineSet
659.53515625 594.609375 m 1
 703.318359375 550.826171875 l 1
 590.311523438 96.0966796875 l 1
 506.654296875 116.397460938 l 1
 590.981445312 425.365234375 l 1
 93.654296875 -71.9619140625 l 1
 36.626953125 -14.9345703125 l 1
 533.606445312 482.044921875 l 1
 224.915039062 397.854492188 l 1
 204.61328125 481.51171875 l 1
 659.53515625 594.609375 l 1
EndSplineSet
EndChar

StartChar: uni2198
Encoding: 8600 8600 355
Width: 736
GlyphClass: 2
Flags: W
LayerCount: 2
Fore
SplineSet
696.571289062 -24.92578125 m 1
 652.788085938 -68.708984375 l 1
 198.05859375 44.2978515625 l 1
 218.359375 127.955078125 l 1
 527.327148438 43.6279296875 l 1
 30 540.955078125 l 1
 87.02734375 597.982421875 l 1
 584.006835938 101.002929688 l 1
 499.81640625 409.694335938 l 1
 583.473632812 429.99609375 l 1
 696.571289062 -24.92578125 l 1
EndSplineSet
EndChar

StartChar: uni2199
Encoding: 8601 8601 356
Width: 746
GlyphClass: 2
Flags: W
LayerCount: 2
Fore
SplineSet
83.783203125 -67.2822265625 m 1
 40 -23.4990234375 l 1
 153.006835938 431.23046875 l 1
 236.6640625 410.9296875 l 1
 152.336914062 101.961914062 l 1
 649.6640625 599.2890625 l 1
 706.69140625 542.26171875 l 1
 209.711914062 45.2822265625 l 1
 518.403320312 129.47265625 l 1
 538.705078125 45.8154296875 l 1
 83.783203125 -67.2822265625 l 1
EndSplineSet
EndChar

StartChar: uniFB00
Encoding: 64256 64256 357
Width: 614
GlyphClass: 3
Flags: HMW
HStem: 0 21G<88 88 88 175 392 392 392 479> 451 69<10 88 10 88 175 392 479 580>
VStem: 88 87<0 451 0 451 520 545 545 545> 392 87<0 451 0 451 520 545 545 545>
LayerCount: 2
Fore
SplineSet
131.5 35.955078125 m 1
 129.149414062 483.635742188 l 1
 129.149414062 483.635742188 l 1
 46.3291015625 485.5 l 1
 129.149414062 487.364257812 l 1
 129.149414062 487.364257812 l 1
 128.500976562 545.930664062 l 1
 156.146484375 645.913085938 l 1
 244.755859375 681.278320312 l 1
 279.368164062 672.077148438 l 1
 245.59375 675.336914062 l 1
 160.651367188 641.950195312 l 1
 134.499023438 546.069335938 l 1
 133.849609375 487.364257812 l 1
 133.849609375 487.364257812 l 1
 433.149414062 487.365234375 l 1
 433.149414062 487.365234375 l 1
 432.500976562 545.930664062 l 1
 460.146484375 645.913085938 l 1
 548.755859375 681.278320312 l 1
 583.791015625 672.000976562 l 1
 549.59375 675.337890625 l 1
 464.651367188 641.950195312 l 1
 438.5 546 l 1
 437.849609375 487.365234375 l 1
 437.849609375 487.365234375 l 1
 543.983398438 485.5 l 1
 437.849609375 483.635742188 l 1
 437.849609375 483.635742188 l 1
 435.5 35.955078125 l 1
 433.149414062 483.635742188 l 1
 433.149414062 483.635742188 l 1
 133.849609375 483.635742188 l 1
 133.849609375 483.635742188 l 1
 131.5 35.955078125 l 1
EndSplineSet
Ligature2: "'liga' Standard Ligatures lookup 0 subtable" f f
EndChar

StartChar: uniFB01
Encoding: 64257 64257 358
Width: 607
GlyphClass: 3
Flags: HMW
HStem: 0 21G<164 164 164 251 452 452 452 542> 451 69<86 164 86 164 251 452> 700.245 20G
VStem: 164 87<0 451 0 451 520 545 545 545> 441.9 109.422 452 90<0 451 451 451>
LayerCount: 2
Fore
SplineSet
491.047851562 645.4296875 m 1
 483.259765625 653.905273438 l 1
 483.263671875 665.951171875 l 1
 490.916992188 674.5703125 l 1
 501.87890625 674.5703125 l 1
 509.741210938 665.927734375 l 1
 509.72265625 653.87109375 l 1
 502.009765625 645.4296875 l 1
 491.047851562 645.4296875 l 1
207.5 35.580078125 m 1
 205.149414062 483.635742188 l 1
 205.149414062 483.635742188 l 1
 121.751953125 485.5 l 1
 205.149414062 487.364257812 l 1
 205.149414062 487.364257812 l 1
 204.500976562 545.930664062 l 1
 232.146484375 645.913085938 l 1
 320.755859375 681.278320312 l 1
 356.0234375 672.53515625 l 1
 321.59375 675.336914062 l 1
 236.651367188 641.950195312 l 1
 210.499023438 546.069335938 l 1
 209.849609375 487.364257812 l 1
 209.849609375 487.364257812 l 1
 499.380859375 487.325195312 l 1
 497 35.580078125 l 1
 494.619140625 483.674804688 l 1
 209.849609375 483.635742188 l 1
 209.849609375 483.635742188 l 1
 207.5 35.580078125 l 1
EndSplineSet
Ligature2: "'liga' Standard Ligatures lookup 0 subtable" f i
EndChar

StartChar: uniFB02
Encoding: 64258 64258 359
Width: 534
GlyphClass: 3
Flags: HMW
HStem: 0 21G<89 89 89 176 377 377 377 467> 451 69<11 89 11 89 176 377> 700 20G<377 467 467 467>
VStem: 89 87<0 451 0 451 520 545 545 545> 377 90<0 451 451 451 520 720 0 720>
LayerCount: 2
Fore
SplineSet
132.5 35.5966796875 m 1
 130.149414062 483.635742188 l 1
 130.149414062 483.635742188 l 1
 46.5966796875 485.5 l 1
 130.149414062 487.364257812 l 1
 130.149414062 487.364257812 l 1
 129.500976562 545.930664062 l 1
 157.146484375 645.913085938 l 1
 245.755859375 681.278320312 l 1
 280.518554688 672.049804688 l 1
 246.59375 675.336914062 l 1
 161.651367188 641.950195312 l 1
 135.499023438 546.069335938 l 1
 134.849609375 487.364257812 l 1
 134.849609375 487.364257812 l 1
 416.111328125 488.5 l 1
 419 520 l 1
 422 684.374023438 l 1
 425 520 l 1
 425 451 l 1
 422 35.5966796875 l 1
 419 451 l 1
 416.111328125 482.5 l 1
 134.849609375 483.635742188 l 1
 134.849609375 483.635742188 l 1
 132.5 35.5966796875 l 1
EndSplineSet
Ligature2: "'liga' Standard Ligatures lookup 0 subtable" f l
EndChar

StartChar: uniFB03
Encoding: 64259 64259 360
Width: 839
GlyphClass: 3
Flags: HMW
HStem: 0 21G<88 88 88 175 392 392 392 479 680 680 680 770> 451 69<10 88 10 88 175 392 479 680> 700.245 20G
VStem: 88 87<0 451 0 451 520 545 545 545> 392 87<0 451 0 451 520 545 545 545> 669.9 109.422 680 90<0 451 451 451>
LayerCount: 2
Fore
SplineSet
244.755859375 681.279296875 m 1
 279.703125 672.017578125 l 1
 245.59375 675.337890625 l 1
 160.650390625 641.94921875 l 1
 134.5 546.068359375 l 1
 133.849609375 487.364257812 l 1
 133.849609375 487.364257812 l 1
 433.149414062 487.365234375 l 1
 433.149414062 487.365234375 l 1
 432.5 545.931640625 l 1
 460.146484375 645.912109375 l 1
 548.755859375 681.279296875 l 1
 583.703125 672.017578125 l 1
 549.59375 675.337890625 l 1
 464.650390625 641.951171875 l 1
 438.5 546 l 1
 437.849609375 487.365234375 l 1
 437.849609375 487.365234375 l 1
 727.380859375 487.326171875 l 1
 725 35.8876953125 l 1
 722.619140625 483.67578125 l 1
 437.849609375 483.635742188 l 1
 437.849609375 483.635742188 l 1
 435.5 35.8876953125 l 1
 433.149414062 483.635742188 l 1
 433.149414062 483.635742188 l 1
 133.849609375 483.635742188 l 1
 133.849609375 483.635742188 l 1
 131.5 35.8876953125 l 1
 129.149414062 483.635742188 l 1
 129.149414062 483.635742188 l 1
 46.3212890625 485.5 l 1
 129.149414062 487.364257812 l 1
 129.149414062 487.364257812 l 1
 128.5 545.931640625 l 1
 156.146484375 645.912109375 l 1
 244.755859375 681.279296875 l 1
718.91796875 674.5703125 m 1
 729.880859375 674.5703125 l 1
 737.740234375 665.9296875 l 1
 737.720703125 653.87109375 l 1
 730.009765625 645.4296875 l 1
 719.048828125 645.4296875 l 1
 711.2578125 653.90625 l 1
 711.265625 665.951171875 l 1
 718.91796875 674.5703125 l 1
EndSplineSet
Ligature2: "'liga' Standard Ligatures lookup 0 subtable" f f i
EndChar

StartChar: uniFB04
Encoding: 64260 64260 361
Width: 827
GlyphClass: 3
Flags: HMW
HStem: 0 21G<88 88 88 175 392 392 392 479 680 680 680 770> 451 69<10 88 10 88 175 392 479 680> 700 20G<680 770 770 770>
VStem: 88 87<0 451 0 451 520 545 545 545> 392 87<0 451 0 451 520 545 545 545> 680 90<0 451 451 451 520 720 0 720>
LayerCount: 2
Fore
SplineSet
131.5 35.2060546875 m 1
 129.149414062 483.635742188 l 1
 129.149414062 483.635742188 l 1
 45.751953125 485.5 l 1
 129.149414062 487.364257812 l 1
 129.149414062 487.364257812 l 1
 128.500976562 545.930664062 l 1
 156.146484375 645.913085938 l 1
 244.755859375 681.278320312 l 1
 279.54296875 672.045898438 l 1
 245.59375 675.336914062 l 1
 160.651367188 641.950195312 l 1
 134.5 546 l 1
 133.849609375 487.364257812 l 1
 133.849609375 487.364257812 l 1
 433.149414062 487.365234375 l 1
 433.149414062 487.365234375 l 1
 432.500976562 545.930664062 l 1
 460.146484375 645.913085938 l 1
 548.755859375 681.278320312 l 1
 583.650390625 672.026367188 l 1
 549.59375 675.337890625 l 1
 464.651367188 641.950195312 l 1
 438.5 546 l 1
 437.849609375 487.365234375 l 1
 437.849609375 487.365234375 l 1
 714.427734375 488.5 l 1
 722 520 l 1
 725 683.983398438 l 1
 728 520 l 1
 728 451 l 1
 725 35.2060546875 l 1
 722 451 l 1
 714.427734375 482.5 l 1
 437.849609375 483.635742188 l 1
 437.849609375 483.635742188 l 1
 435.5 35.2060546875 l 1
 433.149414062 483.635742188 l 1
 433.149414062 483.635742188 l 1
 133.849609375 483.635742188 l 1
 133.849609375 483.635742188 l 1
 131.5 35.2060546875 l 1
EndSplineSet
Ligature2: "'liga' Standard Ligatures lookup 0 subtable" f f l
EndChar

StartChar: uniFB05
Encoding: 64261 64261 362
Width: 626
GlyphClass: 3
Flags: HMW
HStem: 0 21G<88 88 88 175> 451 69<10 88 10 88 175 394 484 573>
VStem: 88 87<0 451 0 451 520 545 545 545> 394 90<152 451 152 451 520 700>
LayerCount: 2
Fore
SplineSet
131.5 35.2060546875 m 1
 129.149414062 483.635742188 l 1
 129.149414062 483.635742188 l 1
 45.580078125 485.5 l 1
 129.149414062 487.364257812 l 1
 129.149414062 487.364257812 l 1
 128.500976562 545.930664062 l 1
 156.146484375 645.913085938 l 1
 244.755859375 681.278320312 l 1
 279.633789062 672.029296875 l 1
 245.59375 675.336914062 l 1
 160.651367188 641.950195312 l 1
 134.5 546 l 1
 133.849609375 487.364257812 l 1
 133.849609375 487.364257812 l 1
 436.619140625 487.326171875 l 1
 436.619140625 487.326171875 l 1
 439 663.983398438 l 1
 441.379882812 487.326171875 l 1
 441.379882812 487.326171875 l 1
 537.512695312 485.5 l 1
 441.379882812 483.674804688 l 1
 441.379882812 483.674804688 l 1
 442 152 l 1
 455.5078125 58.3310546875 l 1
 526.713867188 26.9189453125 l 1
 545.36328125 26.716796875 l 1
 525.40625 21.0634765625 l 1
 450.7734375 54.646484375 l 1
 436 152 l 1
 436.619140625 483.674804688 l 1
 436.619140625 483.674804688 l 1
 133.849609375 483.635742188 l 1
 133.849609375 483.635742188 l 1
 131.5 35.2060546875 l 1
EndSplineSet
Ligature2: "'liga' Standard Ligatures lookup 0 subtable" f t
EndChar

StartChar: afii10052
Encoding: 65537 -1 364
Width: 553
GlyphClass: 2
Flags: MW
HStem: 0 21G<80 80 80 175> 635 85<175 533 175 175> 970 20G
VStem: 80 95<0 635 0 720 0 720>
LayerCount: 2
Fore
SplineSet
281 927.5 m 1
 224 790 l 1
 274 762 l 1
 355 884 l 1
 281 927.5 l 1
80 0 m 1
 80 720 l 1
 533 720 l 1
 533 635 l 1
 175 635 l 1
 175 0 l 1
 80 0 l 1
EndSplineSet
EndChar

StartChar: iacute
Encoding: 65538 -1 365
Width: 220
GlyphClass: 2
Flags: MW
HStem: 0 21G<65 155 155 155> 500 20G<65 155 65 65> 770 20G
VStem: 65 90<0 520 0 520>
LayerCount: 2
Fore
SplineSet
65 0 m 1
 155 0 l 1
 155 520 l 1
 65 520 l 1
 65 0 l 1
157.209960938 829.103515625 m 1
 68.349609375 615.931640625 l 1
 118.349609375 587.931640625 l 1
 246.969726562 782.090820312 l 1
 157.209960938 829.103515625 l 1
EndSplineSet
EndChar

StartChar: Eacute
Encoding: 65539 -1 366
Width: 657
GlyphClass: 2
Flags: MW
HStem: 0 85<175 587 175 587> 85 240<175 527 175 587 175 587> 325 85<175 527 175 527> 635 85<175 577 175 175> 970 20G
VStem: 80 95<85 325 410 635>
LayerCount: 2
Fore
SplineSet
338 927.5 m 1x1c
 281 790 l 1
 331 762 l 1
 412 884 l 1
 338 927.5 l 1x1c
587 0 m 1xb4
 80 0 l 1
 80 720 l 1
 577 720 l 1
 577 635 l 1
 175 635 l 1
 175 410 l 1
 527 410 l 1
 527 325 l 1
 175 325 l 1
 175 85 l 1
 587 85 l 1
 587 0 l 1xb4
EndSplineSet
EndChar

StartChar: Uacute
Encoding: 65540 -1 367
Width: 723
GlyphClass: 2
Flags: MW
HStem: -15 85 700 20G 970 20G
VStem: 80 95 548 95
LayerCount: 2
Fore
SplineSet
358 927.5 m 1
 301 790 l 1
 351 762 l 1
 432 884 l 1
 358 927.5 l 1
642.704101562 720.349609375 m 1
 642.704101562 301 l 1
 580.728515625 68.5537109375 l 1
 362.08984375 -22.35546875 l 1
 143.630859375 68.5537109375 l 1
 79.369140625 302.888671875 l 1
 79.369140625 720.349609375 l 1
 175.325195312 720.349609375 l 1
 175.325195312 295.897460938 l 1
 216.34765625 127.322265625 l 1
 363.110351562 64.3095703125 l 1
 508.405273438 127.288085938 l 1
 548.833007812 297.78515625 l 1
 548.662109375 720.349609375 l 1
 642.704101562 720.349609375 l 1
EndSplineSet
EndChar

StartChar: ecaron
Encoding: 65541 -1 368
Width: 544
GlyphClass: 2
Flags: MW
HStem: -15 75 60 177 237 72 309 151 460 75 535 225
VStem: 35 90 413 96
LayerCount: 2
Fore
SplineSet
250.356445312 600.879882812 m 1x00
 292.356445312 600.879882812 l 1
 430.356445312 843.0390625 l 1
 380.356445312 871.0390625 l 1
 273.377929688 709.548828125 l 1
 165.736328125 872.0390625 l 1
 115.736328125 844.0390625 l 1
 250.356445312 600.879882812 l 1x00
174.46484375 98.9150390625 m 1xab
 278.149414062 56.44140625 l 1
 365.399414062 85.7744140625 l 1
 419.926757812 174.744140625 l 1
 490 131 l 1
 421.6171875 23.7744140625 l 1
 273.046875 -20.1025390625 l 1
 96.6025390625 54.349609375 l 1
 30.3173828125 260.388671875 l 1
 96.6025390625 466.427734375 l 1
 273.046875 540.879882812 l 1
 453.446289062 463.494140625 l 1
 513 273 l 1
 508 237 l 1
 122.000976562 236.915039062 l 1
 174.46484375 98.9150390625 l 1xab
125 309 m 1
 416 309 l 1
 374.999023438 421.139648438 l 1
 272.961914062 464.505859375 l 1
 181.481445312 428.028320312 l 1
 125 309 l 1
EndSplineSet
EndChar

StartChar: ccaron
Encoding: 65542 -1 369
Width: 524
GlyphClass: 2
Flags: MW
HStem: -15 75 460 75 535 225
VStem: 35 90
LayerCount: 2
Fore
SplineSet
243.694335938 600.5 m 1x00
 285.694335938 600.5 l 1
 423.694335938 842.659179688 l 1
 373.694335938 870.659179688 l 1
 266.715820312 709.168945312 l 1
 159.07421875 871.659179688 l 1
 109.07421875 843.659179688 l 1
 243.694335938 600.5 l 1x00
273.384765625 55.9765625 m 1xd0
 355.116210938 84.2548828125 l 1
 404.955078125 175.299804688 l 1
 481.41015625 134.540039062 l 1
 415.639648438 25.5205078125 l 1
 273.384765625 -20.482421875 l 1
 96.833984375 53.9697265625 l 1
 30.5703125 260.008789062 l 1
 96.8974609375 466.047851562 l 1
 273.384765625 540.5 l 1
 415.639648438 493.944335938 l 1
 482.4296875 382.399414062 l 1
 404.955078125 343.612304688 l 1
 355.1796875 435.591796875 l 1
 273.384765625 464.041015625 l 1
 167.66796875 416.336914062 l 1
 122.422851562 260.008789062 l 1
 167.66796875 103.680664062 l 1
 273.384765625 55.9765625 l 1xd0
EndSplineSet
EndChar

StartChar: gravecomb
Encoding: 768 768 370
Width: 0
VWidth: 0
Flags: H
LayerCount: 2
Fore
SplineSet
183.139648438 580.623046875 m 1
 142.987304688 649.4140625 l 1
 83.6552734375 716.047851562 l 1
 126.049804688 738.366210938 l 1
 148.274414062 652.251953125 l 1
 183.139648438 580.623046875 l 1
EndSplineSet
EndChar

StartChar: acutecomb
Encoding: 769 769 372
Width: 0
VWidth: 0
Flags: H
LayerCount: 2
Fore
SplineSet
186.240234375 578.5546875 m 1
 221.106445312 650.18359375 l 1
 243.330078125 736.298828125 l 1
 285.724609375 713.98046875 l 1
 226.392578125 647.345703125 l 1
 186.240234375 578.5546875 l 1
EndSplineSet
EndChar

StartChar: uni0308
Encoding: 776 776 373
Width: 0
VWidth: 0
Flags: H
LayerCount: 2
Fore
SplineSet
388.307617188 700.423828125 m 1
 411.422851562 700.423828125 l 1
 428.002929688 682.19921875 l 1
 427.961914062 656.7734375 l 1
 411.698242188 638.974609375 l 1
 388.583007812 638.974609375 l 1
 372.157226562 656.84765625 l 1
 372.166992188 682.248046875 l 1
 388.307617188 700.423828125 l 1
588.147460938 700.423828125 m 1
 611.26171875 700.423828125 l 1
 627.842773438 682.19921875 l 1
 627.801757812 656.7734375 l 1
 611.538085938 638.974609375 l 1
 588.422851562 638.974609375 l 1
 571.997070312 656.84765625 l 1
 572.006835938 682.248046875 l 1
 588.147460938 700.423828125 l 1
EndSplineSet
EndChar

StartChar: dotlessi
Encoding: 305 305 374
Width: 220
VWidth: 0
Flags: H
LayerCount: 2
Fore
SplineSet
110 484.154296875 m 1
 113 260 l 1
 110 36.017578125 l 1
 107 260 l 1
 110 484.154296875 l 1
EndSplineSet
EndChar

StartChar: uni0237
Encoding: 567 567 459
Width: 220
VWidth: 0
Flags: H
LayerCount: 2
Fore
SplineSet
-7.5908203125 -167.201171875 m 1
 12.4404296875 -168.001953125 l 1
 88.2919921875 -126.579101562 l 1
 110.590820312 -9.2412109375 l 1
 109.971679688 483.983398438 l 1
 116.024414062 -11.7880859375 l 1
 92.8544921875 -130.474609375 l 1
 12.513671875 -174.000976562 l 1
 -7.5908203125 -167.201171875 l 1
EndSplineSet
EndChar

StartChar: uni2010
Encoding: 8208 8208 712
Width: 370
VWidth: 0
Flags: HW
LayerCount: 2
Fore
SplineSet
83.2548828125 251.96875 m 1
 83.2548828125 268.032226562 l 1
 286.745117188 268.032226562 l 1
 286.745117188 251.96875 l 1
 83.2548828125 251.96875 l 1
EndSplineSet
EndChar

StartChar: uni2011
Encoding: 8209 8209 713
Width: 370
VWidth: 0
Flags: HW
LayerCount: 2
Fore
SplineSet
83.2548828125 251.96875 m 1
 83.2548828125 268.032226562 l 1
 286.745117188 268.032226562 l 1
 286.745117188 251.96875 l 1
 83.2548828125 251.96875 l 1
EndSplineSet
EndChar

StartChar: figuredash
Encoding: 8210 8210 714
Width: 556
VWidth: 0
Flags: HW
LayerCount: 2
Fore
SplineSet
83.2548828125 251.96875 m 1
 83.2548828125 268.032226562 l 1
 472.745117188 268.032226562 l 1
 472.745117188 251.96875 l 1
 83.2548828125 251.96875 l 1
EndSplineSet
EndChar

StartChar: uni2015
Encoding: 8213 8213 715
Width: 2000
VWidth: 0
Flags: HW
LayerCount: 2
Fore
SplineSet
83.2548828125 251.96875 m 1
 83.2548828125 268.032226562 l 1
 1916.74511719 268.032226562 l 1
 1916.74511719 251.96875 l 1
 83.2548828125 251.96875 l 1
EndSplineSet
EndChar

StartChar: uniF6BE
Encoding: 63166 63166 1085
Width: 220
VWidth: 0
Flags: H
LayerCount: 2
Fore
SplineSet
-7.5908203125 -167.201171875 m 1
 12.4404296875 -168.001953125 l 1
 88.2919921875 -126.579101562 l 1
 110.590820312 -9.2412109375 l 1
 109.971679688 483.983398438 l 1
 116.024414062 -11.7880859375 l 1
 92.8544921875 -130.474609375 l 1
 12.513671875 -174.000976562 l 1
 -7.5908203125 -167.201171875 l 1
EndSplineSet
EndChar

